G04 (created by PCBNEW-RS274X (2012-01-19 BZR 3256)-stable) date 1/1/2013 6:43:37 PM*
G01*
G70*
G90*
%MOIN*%
G04 Gerber Fmt 3.4, Leading zero omitted, Abs format*
%FSLAX34Y34*%
G04 APERTURE LIST*
%ADD10C,0.006000*%
%ADD11R,0.090000X0.090000*%
%ADD12C,0.090000*%
%ADD13O,0.118400X0.098700*%
%ADD14R,0.075000X0.075000*%
%ADD15C,0.075000*%
%ADD16R,0.082000X0.110000*%
%ADD17O,0.082000X0.110000*%
G04 APERTURE END LIST*
G54D10*
%LPC*%
G54D11*
X38750Y-26000D03*
G54D12*
X38750Y-27000D03*
X38750Y-28000D03*
G54D13*
X39000Y-32000D03*
X39000Y-22000D03*
G54D14*
X24000Y-28500D03*
G54D15*
X24000Y-27500D03*
X24000Y-26500D03*
X24000Y-25500D03*
G54D14*
X24000Y-22000D03*
G54D15*
X24000Y-23000D03*
X24000Y-24000D03*
G54D14*
X24000Y-32000D03*
G54D15*
X24000Y-31000D03*
X24000Y-30000D03*
G54D14*
X26000Y-30000D03*
G54D15*
X27000Y-30000D03*
X28000Y-30000D03*
X29000Y-30000D03*
X30000Y-30000D03*
X31000Y-30000D03*
X32000Y-30000D03*
X33000Y-30000D03*
X34000Y-30000D03*
X35000Y-30000D03*
G54D14*
X26000Y-24000D03*
G54D15*
X27000Y-24000D03*
X28000Y-24000D03*
X29000Y-24000D03*
X30000Y-24000D03*
X31000Y-24000D03*
X32000Y-24000D03*
X33000Y-24000D03*
X34000Y-24000D03*
X35000Y-24000D03*
G54D14*
X26000Y-23000D03*
G54D15*
X27000Y-23000D03*
X28000Y-23000D03*
X29000Y-23000D03*
X30000Y-23000D03*
X31000Y-23000D03*
X32000Y-23000D03*
X33000Y-23000D03*
X34000Y-23000D03*
X35000Y-23000D03*
G54D14*
X26000Y-31000D03*
G54D15*
X27000Y-31000D03*
X28000Y-31000D03*
X29000Y-31000D03*
X30000Y-31000D03*
X31000Y-31000D03*
X32000Y-31000D03*
X33000Y-31000D03*
X34000Y-31000D03*
X35000Y-31000D03*
G54D14*
X26000Y-32000D03*
G54D15*
X27000Y-32000D03*
X28000Y-32000D03*
X29000Y-32000D03*
X30000Y-32000D03*
X31000Y-32000D03*
X32000Y-32000D03*
X33000Y-32000D03*
X34000Y-32000D03*
X35000Y-32000D03*
G54D14*
X26000Y-22000D03*
G54D15*
X27000Y-22000D03*
X28000Y-22000D03*
X29000Y-22000D03*
X30000Y-22000D03*
X31000Y-22000D03*
X32000Y-22000D03*
X33000Y-22000D03*
X34000Y-22000D03*
X35000Y-22000D03*
G54D16*
X26000Y-28500D03*
G54D17*
X27000Y-28500D03*
X28000Y-28500D03*
X29000Y-28500D03*
X30000Y-28500D03*
X31000Y-28500D03*
X32000Y-28500D03*
X33000Y-28500D03*
X34000Y-28500D03*
X35000Y-28500D03*
X35000Y-25500D03*
X34000Y-25500D03*
X33000Y-25500D03*
X32000Y-25500D03*
X31000Y-25500D03*
X30000Y-25500D03*
X29000Y-25500D03*
X28000Y-25500D03*
X27000Y-25500D03*
X26000Y-25500D03*
G54D15*
X36250Y-25000D03*
X36250Y-24000D03*
X37750Y-32000D03*
X37750Y-31000D03*
X37000Y-28750D03*
X37000Y-29750D03*
X37000Y-26500D03*
X37000Y-27500D03*
X37500Y-22500D03*
X37500Y-23500D03*
X36500Y-31000D03*
X36500Y-32000D03*
X36250Y-23000D03*
X36250Y-22000D03*
M02*
