G04 (created by PCBNEW (2012-01-19 BZR 3256)-stable) date 1/1/2013 6:43:45 PM*
G01*
G70*
G90*
%MOIN*%
G04 Gerber Fmt 3.4, Leading zero omitted, Abs format*
%FSLAX34Y34*%
G04 APERTURE LIST*
%ADD10C,0.001000*%
%ADD11C,0.015000*%
%ADD12C,0.008000*%
G04 APERTURE END LIST*
G54D10*
G54D11*
X23000Y-21500D02*
X39750Y-21500D01*
X39750Y-21500D02*
X39750Y-32500D01*
X23000Y-32500D02*
X23000Y-21500D01*
X39750Y-32500D02*
X23000Y-32500D01*
G54D10*
X23840Y-21840D02*
X24160Y-22160D01*
X24160Y-21840D02*
X23840Y-22160D01*
X23840Y-22840D02*
X24160Y-23160D01*
X24160Y-22840D02*
X23840Y-23160D01*
X23840Y-23840D02*
X24160Y-24160D01*
X24160Y-23840D02*
X23840Y-24160D01*
X23840Y-25340D02*
X24160Y-25660D01*
X24160Y-25340D02*
X23840Y-25660D01*
X23840Y-26340D02*
X24160Y-26660D01*
X24160Y-26340D02*
X23840Y-26660D01*
X23840Y-27340D02*
X24160Y-27660D01*
X24160Y-27340D02*
X23840Y-27660D01*
X23840Y-28340D02*
X24160Y-28660D01*
X24160Y-28340D02*
X23840Y-28660D01*
X23840Y-29840D02*
X24160Y-30160D01*
X24160Y-29840D02*
X23840Y-30160D01*
X23840Y-30840D02*
X24160Y-31160D01*
X24160Y-30840D02*
X23840Y-31160D01*
X23840Y-31840D02*
X24160Y-32160D01*
X24160Y-31840D02*
X23840Y-32160D01*
X25840Y-21840D02*
X26160Y-22160D01*
X26160Y-21840D02*
X25840Y-22160D01*
X25840Y-22840D02*
X26160Y-23160D01*
X26160Y-22840D02*
X25840Y-23160D01*
X25840Y-23840D02*
X26160Y-24160D01*
X26160Y-23840D02*
X25840Y-24160D01*
X25840Y-25340D02*
X26160Y-25660D01*
X26160Y-25340D02*
X25840Y-25660D01*
X25840Y-28340D02*
X26160Y-28660D01*
X26160Y-28340D02*
X25840Y-28660D01*
X25840Y-29840D02*
X26160Y-30160D01*
X26160Y-29840D02*
X25840Y-30160D01*
X25840Y-30840D02*
X26160Y-31160D01*
X26160Y-30840D02*
X25840Y-31160D01*
X25840Y-31840D02*
X26160Y-32160D01*
X26160Y-31840D02*
X25840Y-32160D01*
X26840Y-21840D02*
X27160Y-22160D01*
X27160Y-21840D02*
X26840Y-22160D01*
X26840Y-22840D02*
X27160Y-23160D01*
X27160Y-22840D02*
X26840Y-23160D01*
X26840Y-23840D02*
X27160Y-24160D01*
X27160Y-23840D02*
X26840Y-24160D01*
X26840Y-25340D02*
X27160Y-25660D01*
X27160Y-25340D02*
X26840Y-25660D01*
X26840Y-28340D02*
X27160Y-28660D01*
X27160Y-28340D02*
X26840Y-28660D01*
X26840Y-29840D02*
X27160Y-30160D01*
X27160Y-29840D02*
X26840Y-30160D01*
X26840Y-30840D02*
X27160Y-31160D01*
X27160Y-30840D02*
X26840Y-31160D01*
X26840Y-31840D02*
X27160Y-32160D01*
X27160Y-31840D02*
X26840Y-32160D01*
X27840Y-21840D02*
X28160Y-22160D01*
X28160Y-21840D02*
X27840Y-22160D01*
X27840Y-22840D02*
X28160Y-23160D01*
X28160Y-22840D02*
X27840Y-23160D01*
X27840Y-23840D02*
X28160Y-24160D01*
X28160Y-23840D02*
X27840Y-24160D01*
X27840Y-25340D02*
X28160Y-25660D01*
X28160Y-25340D02*
X27840Y-25660D01*
X27840Y-26340D02*
X28160Y-26660D01*
X28160Y-26340D02*
X27840Y-26660D01*
X27840Y-28340D02*
X28160Y-28660D01*
X28160Y-28340D02*
X27840Y-28660D01*
X27840Y-29840D02*
X28160Y-30160D01*
X28160Y-29840D02*
X27840Y-30160D01*
X27840Y-30840D02*
X28160Y-31160D01*
X28160Y-30840D02*
X27840Y-31160D01*
X27840Y-31840D02*
X28160Y-32160D01*
X28160Y-31840D02*
X27840Y-32160D01*
X28840Y-21840D02*
X29160Y-22160D01*
X29160Y-21840D02*
X28840Y-22160D01*
X28840Y-22840D02*
X29160Y-23160D01*
X29160Y-22840D02*
X28840Y-23160D01*
X28840Y-23840D02*
X29160Y-24160D01*
X29160Y-23840D02*
X28840Y-24160D01*
X28840Y-25340D02*
X29160Y-25660D01*
X29160Y-25340D02*
X28840Y-25660D01*
X28840Y-28340D02*
X29160Y-28660D01*
X29160Y-28340D02*
X28840Y-28660D01*
X28840Y-29840D02*
X29160Y-30160D01*
X29160Y-29840D02*
X28840Y-30160D01*
X28840Y-30840D02*
X29160Y-31160D01*
X29160Y-30840D02*
X28840Y-31160D01*
X28840Y-31840D02*
X29160Y-32160D01*
X29160Y-31840D02*
X28840Y-32160D01*
X29840Y-21840D02*
X30160Y-22160D01*
X30160Y-21840D02*
X29840Y-22160D01*
X29840Y-22840D02*
X30160Y-23160D01*
X30160Y-22840D02*
X29840Y-23160D01*
X29840Y-23840D02*
X30160Y-24160D01*
X30160Y-23840D02*
X29840Y-24160D01*
X29840Y-25340D02*
X30160Y-25660D01*
X30160Y-25340D02*
X29840Y-25660D01*
X29840Y-26340D02*
X30160Y-26660D01*
X30160Y-26340D02*
X29840Y-26660D01*
X29840Y-28340D02*
X30160Y-28660D01*
X30160Y-28340D02*
X29840Y-28660D01*
X29840Y-29840D02*
X30160Y-30160D01*
X30160Y-29840D02*
X29840Y-30160D01*
X29840Y-30840D02*
X30160Y-31160D01*
X30160Y-30840D02*
X29840Y-31160D01*
X29840Y-31840D02*
X30160Y-32160D01*
X30160Y-31840D02*
X29840Y-32160D01*
X30840Y-21840D02*
X31160Y-22160D01*
X31160Y-21840D02*
X30840Y-22160D01*
X30840Y-22840D02*
X31160Y-23160D01*
X31160Y-22840D02*
X30840Y-23160D01*
X30840Y-23840D02*
X31160Y-24160D01*
X31160Y-23840D02*
X30840Y-24160D01*
X30840Y-25340D02*
X31160Y-25660D01*
X31160Y-25340D02*
X30840Y-25660D01*
X30840Y-28340D02*
X31160Y-28660D01*
X31160Y-28340D02*
X30840Y-28660D01*
X30840Y-29840D02*
X31160Y-30160D01*
X31160Y-29840D02*
X30840Y-30160D01*
X30840Y-30840D02*
X31160Y-31160D01*
X31160Y-30840D02*
X30840Y-31160D01*
X30840Y-31840D02*
X31160Y-32160D01*
X31160Y-31840D02*
X30840Y-32160D01*
X31840Y-21840D02*
X32160Y-22160D01*
X32160Y-21840D02*
X31840Y-22160D01*
X31840Y-22840D02*
X32160Y-23160D01*
X32160Y-22840D02*
X31840Y-23160D01*
X31840Y-23840D02*
X32160Y-24160D01*
X32160Y-23840D02*
X31840Y-24160D01*
X31840Y-25340D02*
X32160Y-25660D01*
X32160Y-25340D02*
X31840Y-25660D01*
X31840Y-28340D02*
X32160Y-28660D01*
X32160Y-28340D02*
X31840Y-28660D01*
X31840Y-29840D02*
X32160Y-30160D01*
X32160Y-29840D02*
X31840Y-30160D01*
X31840Y-30840D02*
X32160Y-31160D01*
X32160Y-30840D02*
X31840Y-31160D01*
X31840Y-31840D02*
X32160Y-32160D01*
X32160Y-31840D02*
X31840Y-32160D01*
X32840Y-21840D02*
X33160Y-22160D01*
X33160Y-21840D02*
X32840Y-22160D01*
X32840Y-22840D02*
X33160Y-23160D01*
X33160Y-22840D02*
X32840Y-23160D01*
X32840Y-23840D02*
X33160Y-24160D01*
X33160Y-23840D02*
X32840Y-24160D01*
X32840Y-25340D02*
X33160Y-25660D01*
X33160Y-25340D02*
X32840Y-25660D01*
X32840Y-28340D02*
X33160Y-28660D01*
X33160Y-28340D02*
X32840Y-28660D01*
X32840Y-29840D02*
X33160Y-30160D01*
X33160Y-29840D02*
X32840Y-30160D01*
X32840Y-30840D02*
X33160Y-31160D01*
X33160Y-30840D02*
X32840Y-31160D01*
X32840Y-31840D02*
X33160Y-32160D01*
X33160Y-31840D02*
X32840Y-32160D01*
X33840Y-21840D02*
X34160Y-22160D01*
X34160Y-21840D02*
X33840Y-22160D01*
X33840Y-22840D02*
X34160Y-23160D01*
X34160Y-22840D02*
X33840Y-23160D01*
X33840Y-23840D02*
X34160Y-24160D01*
X34160Y-23840D02*
X33840Y-24160D01*
X33840Y-25340D02*
X34160Y-25660D01*
X34160Y-25340D02*
X33840Y-25660D01*
X33840Y-28340D02*
X34160Y-28660D01*
X34160Y-28340D02*
X33840Y-28660D01*
X33840Y-29840D02*
X34160Y-30160D01*
X34160Y-29840D02*
X33840Y-30160D01*
X33840Y-30840D02*
X34160Y-31160D01*
X34160Y-30840D02*
X33840Y-31160D01*
X33840Y-31840D02*
X34160Y-32160D01*
X34160Y-31840D02*
X33840Y-32160D01*
X34840Y-21840D02*
X35160Y-22160D01*
X35160Y-21840D02*
X34840Y-22160D01*
X34840Y-22840D02*
X35160Y-23160D01*
X35160Y-22840D02*
X34840Y-23160D01*
X34840Y-23840D02*
X35160Y-24160D01*
X35160Y-23840D02*
X34840Y-24160D01*
X34840Y-25340D02*
X35160Y-25660D01*
X35160Y-25340D02*
X34840Y-25660D01*
X34840Y-28340D02*
X35160Y-28660D01*
X35160Y-28340D02*
X34840Y-28660D01*
X34840Y-29840D02*
X35160Y-30160D01*
X35160Y-29840D02*
X34840Y-30160D01*
X34840Y-30840D02*
X35160Y-31160D01*
X35160Y-30840D02*
X34840Y-31160D01*
X34840Y-31840D02*
X35160Y-32160D01*
X35160Y-31840D02*
X34840Y-32160D01*
X36090Y-21840D02*
X36410Y-22160D01*
X36410Y-21840D02*
X36090Y-22160D01*
X36090Y-22840D02*
X36410Y-23160D01*
X36410Y-22840D02*
X36090Y-23160D01*
X36090Y-23840D02*
X36410Y-24160D01*
X36410Y-23840D02*
X36090Y-24160D01*
X36090Y-24840D02*
X36410Y-25160D01*
X36410Y-24840D02*
X36090Y-25160D01*
X36340Y-30840D02*
X36660Y-31160D01*
X36660Y-30840D02*
X36340Y-31160D01*
X36340Y-31840D02*
X36660Y-32160D01*
X36660Y-31840D02*
X36340Y-32160D01*
X36840Y-26340D02*
X37160Y-26660D01*
X37160Y-26340D02*
X36840Y-26660D01*
X36840Y-27340D02*
X37160Y-27660D01*
X37160Y-27340D02*
X36840Y-27660D01*
X36840Y-28590D02*
X37160Y-28910D01*
X37160Y-28590D02*
X36840Y-28910D01*
X36840Y-29590D02*
X37160Y-29910D01*
X37160Y-29590D02*
X36840Y-29910D01*
X37340Y-22340D02*
X37660Y-22660D01*
X37660Y-22340D02*
X37340Y-22660D01*
X37340Y-23340D02*
X37660Y-23660D01*
X37660Y-23340D02*
X37340Y-23660D01*
X37590Y-30840D02*
X37910Y-31160D01*
X37910Y-30840D02*
X37590Y-31160D01*
X37590Y-31840D02*
X37910Y-32160D01*
X37910Y-31840D02*
X37590Y-32160D01*
X38590Y-23090D02*
X38910Y-23410D01*
X38910Y-23090D02*
X38590Y-23410D01*
X38590Y-24090D02*
X38910Y-24410D01*
X38910Y-24090D02*
X38590Y-24410D01*
X38590Y-29590D02*
X38910Y-29910D01*
X38910Y-29590D02*
X38590Y-29910D01*
X38590Y-30590D02*
X38910Y-30910D01*
X38910Y-30590D02*
X38590Y-30910D01*
X38950Y-26000D02*
X38946Y-26038D01*
X38934Y-26076D01*
X38916Y-26110D01*
X38891Y-26140D01*
X38861Y-26165D01*
X38827Y-26184D01*
X38790Y-26195D01*
X38751Y-26199D01*
X38713Y-26196D01*
X38676Y-26185D01*
X38641Y-26167D01*
X38611Y-26142D01*
X38585Y-26112D01*
X38567Y-26078D01*
X38555Y-26041D01*
X38551Y-26002D01*
X38554Y-25964D01*
X38565Y-25927D01*
X38582Y-25892D01*
X38607Y-25862D01*
X38636Y-25836D01*
X38670Y-25817D01*
X38708Y-25805D01*
X38746Y-25801D01*
X38784Y-25804D01*
X38822Y-25814D01*
X38857Y-25832D01*
X38887Y-25856D01*
X38913Y-25885D01*
X38932Y-25919D01*
X38945Y-25956D01*
X38949Y-25995D01*
X38950Y-26000D01*
X38950Y-27000D02*
X38946Y-27038D01*
X38934Y-27076D01*
X38916Y-27110D01*
X38891Y-27140D01*
X38861Y-27165D01*
X38827Y-27184D01*
X38790Y-27195D01*
X38751Y-27199D01*
X38713Y-27196D01*
X38676Y-27185D01*
X38641Y-27167D01*
X38611Y-27142D01*
X38585Y-27112D01*
X38567Y-27078D01*
X38555Y-27041D01*
X38551Y-27002D01*
X38554Y-26964D01*
X38565Y-26927D01*
X38582Y-26892D01*
X38607Y-26862D01*
X38636Y-26836D01*
X38670Y-26817D01*
X38708Y-26805D01*
X38746Y-26801D01*
X38784Y-26804D01*
X38822Y-26814D01*
X38857Y-26832D01*
X38887Y-26856D01*
X38913Y-26885D01*
X38932Y-26919D01*
X38945Y-26956D01*
X38949Y-26995D01*
X38950Y-27000D01*
X38950Y-28000D02*
X38946Y-28038D01*
X38934Y-28076D01*
X38916Y-28110D01*
X38891Y-28140D01*
X38861Y-28165D01*
X38827Y-28184D01*
X38790Y-28195D01*
X38751Y-28199D01*
X38713Y-28196D01*
X38676Y-28185D01*
X38641Y-28167D01*
X38611Y-28142D01*
X38585Y-28112D01*
X38567Y-28078D01*
X38555Y-28041D01*
X38551Y-28002D01*
X38554Y-27964D01*
X38565Y-27927D01*
X38582Y-27892D01*
X38607Y-27862D01*
X38636Y-27836D01*
X38670Y-27817D01*
X38708Y-27805D01*
X38746Y-27801D01*
X38784Y-27804D01*
X38822Y-27814D01*
X38857Y-27832D01*
X38887Y-27856D01*
X38913Y-27885D01*
X38932Y-27919D01*
X38945Y-27956D01*
X38949Y-27995D01*
X38950Y-28000D01*
X39200Y-22000D02*
X39196Y-22038D01*
X39184Y-22076D01*
X39166Y-22110D01*
X39141Y-22140D01*
X39111Y-22165D01*
X39077Y-22184D01*
X39040Y-22195D01*
X39001Y-22199D01*
X38963Y-22196D01*
X38926Y-22185D01*
X38891Y-22167D01*
X38861Y-22142D01*
X38835Y-22112D01*
X38817Y-22078D01*
X38805Y-22041D01*
X38801Y-22002D01*
X38804Y-21964D01*
X38815Y-21927D01*
X38832Y-21892D01*
X38857Y-21862D01*
X38886Y-21836D01*
X38920Y-21817D01*
X38958Y-21805D01*
X38996Y-21801D01*
X39034Y-21804D01*
X39072Y-21814D01*
X39107Y-21832D01*
X39137Y-21856D01*
X39163Y-21885D01*
X39182Y-21919D01*
X39195Y-21956D01*
X39199Y-21995D01*
X39200Y-22000D01*
X39200Y-32000D02*
X39196Y-32038D01*
X39184Y-32076D01*
X39166Y-32110D01*
X39141Y-32140D01*
X39111Y-32165D01*
X39077Y-32184D01*
X39040Y-32195D01*
X39001Y-32199D01*
X38963Y-32196D01*
X38926Y-32185D01*
X38891Y-32167D01*
X38861Y-32142D01*
X38835Y-32112D01*
X38817Y-32078D01*
X38805Y-32041D01*
X38801Y-32002D01*
X38804Y-31964D01*
X38815Y-31927D01*
X38832Y-31892D01*
X38857Y-31862D01*
X38886Y-31836D01*
X38920Y-31817D01*
X38958Y-31805D01*
X38996Y-31801D01*
X39034Y-31804D01*
X39072Y-31814D01*
X39107Y-31832D01*
X39137Y-31856D01*
X39163Y-31885D01*
X39182Y-31919D01*
X39195Y-31956D01*
X39199Y-31995D01*
X39200Y-32000D01*
G54D12*
X22885Y-34405D02*
X22885Y-33605D01*
X23076Y-33605D01*
X23190Y-33643D01*
X23266Y-33719D01*
X23305Y-33795D01*
X23343Y-33948D01*
X23343Y-34062D01*
X23305Y-34214D01*
X23266Y-34291D01*
X23190Y-34367D01*
X23076Y-34405D01*
X22885Y-34405D01*
X23685Y-34405D02*
X23685Y-33871D01*
X23685Y-34024D02*
X23724Y-33948D01*
X23762Y-33910D01*
X23838Y-33871D01*
X23914Y-33871D01*
X24180Y-34405D02*
X24180Y-33871D01*
X24180Y-33605D02*
X24142Y-33643D01*
X24180Y-33681D01*
X24219Y-33643D01*
X24180Y-33605D01*
X24180Y-33681D01*
X24676Y-34405D02*
X24600Y-34367D01*
X24561Y-34291D01*
X24561Y-33605D01*
X25095Y-34405D02*
X25019Y-34367D01*
X24980Y-34291D01*
X24980Y-33605D01*
X26009Y-34405D02*
X26009Y-33605D01*
X26276Y-34176D01*
X26543Y-33605D01*
X26543Y-34405D01*
X27266Y-34405D02*
X27266Y-33986D01*
X27228Y-33910D01*
X27152Y-33871D01*
X27000Y-33871D01*
X26923Y-33910D01*
X27266Y-34367D02*
X27190Y-34405D01*
X27000Y-34405D01*
X26923Y-34367D01*
X26885Y-34291D01*
X26885Y-34214D01*
X26923Y-34138D01*
X27000Y-34100D01*
X27190Y-34100D01*
X27266Y-34062D01*
X27647Y-33871D02*
X27647Y-34671D01*
X27647Y-33910D02*
X27724Y-33871D01*
X27876Y-33871D01*
X27952Y-33910D01*
X27990Y-33948D01*
X28028Y-34024D01*
X28028Y-34252D01*
X27990Y-34329D01*
X27952Y-34367D01*
X27876Y-34405D01*
X27724Y-34405D01*
X27647Y-34367D01*
X28371Y-34329D02*
X28410Y-34367D01*
X28371Y-34405D01*
X28333Y-34367D01*
X28371Y-34329D01*
X28371Y-34405D01*
X28371Y-33910D02*
X28410Y-33948D01*
X28371Y-33986D01*
X28333Y-33948D01*
X28371Y-33910D01*
X28371Y-33986D01*
X22175Y-35601D02*
X22495Y-35921D01*
X22495Y-35601D02*
X22175Y-35921D01*
X23038Y-35285D02*
X23114Y-35285D01*
X23190Y-35323D01*
X23228Y-35361D01*
X23266Y-35437D01*
X23305Y-35590D01*
X23305Y-35780D01*
X23266Y-35932D01*
X23228Y-36009D01*
X23190Y-36047D01*
X23114Y-36085D01*
X23038Y-36085D01*
X22962Y-36047D01*
X22924Y-36009D01*
X22885Y-35932D01*
X22847Y-35780D01*
X22847Y-35590D01*
X22885Y-35437D01*
X22924Y-35361D01*
X22962Y-35323D01*
X23038Y-35285D01*
X23647Y-36009D02*
X23686Y-36047D01*
X23647Y-36085D01*
X23609Y-36047D01*
X23647Y-36009D01*
X23647Y-36085D01*
X24181Y-35285D02*
X24257Y-35285D01*
X24333Y-35323D01*
X24371Y-35361D01*
X24409Y-35437D01*
X24448Y-35590D01*
X24448Y-35780D01*
X24409Y-35932D01*
X24371Y-36009D01*
X24333Y-36047D01*
X24257Y-36085D01*
X24181Y-36085D01*
X24105Y-36047D01*
X24067Y-36009D01*
X24028Y-35932D01*
X23990Y-35780D01*
X23990Y-35590D01*
X24028Y-35437D01*
X24067Y-35361D01*
X24105Y-35323D01*
X24181Y-35285D01*
X24714Y-35285D02*
X25210Y-35285D01*
X24943Y-35590D01*
X25057Y-35590D01*
X25133Y-35628D01*
X25171Y-35666D01*
X25210Y-35742D01*
X25210Y-35932D01*
X25171Y-36009D01*
X25133Y-36047D01*
X25057Y-36085D01*
X24829Y-36085D01*
X24752Y-36047D01*
X24714Y-36009D01*
X25514Y-35361D02*
X25552Y-35323D01*
X25629Y-35285D01*
X25819Y-35285D01*
X25895Y-35323D01*
X25933Y-35361D01*
X25972Y-35437D01*
X25972Y-35513D01*
X25933Y-35628D01*
X25476Y-36085D01*
X25972Y-36085D01*
X26276Y-35285D02*
X26276Y-35437D01*
X26581Y-35285D02*
X26581Y-35437D01*
X28106Y-35247D02*
X27420Y-36275D01*
X29135Y-35285D02*
X29211Y-35285D01*
X29287Y-35323D01*
X29325Y-35361D01*
X29363Y-35437D01*
X29402Y-35590D01*
X29402Y-35780D01*
X29363Y-35932D01*
X29325Y-36009D01*
X29287Y-36047D01*
X29211Y-36085D01*
X29135Y-36085D01*
X29059Y-36047D01*
X29021Y-36009D01*
X28982Y-35932D01*
X28944Y-35780D01*
X28944Y-35590D01*
X28982Y-35437D01*
X29021Y-35361D01*
X29059Y-35323D01*
X29135Y-35285D01*
X29744Y-36009D02*
X29783Y-36047D01*
X29744Y-36085D01*
X29706Y-36047D01*
X29744Y-36009D01*
X29744Y-36085D01*
X30240Y-35628D02*
X30164Y-35590D01*
X30125Y-35551D01*
X30087Y-35475D01*
X30087Y-35437D01*
X30125Y-35361D01*
X30164Y-35323D01*
X30240Y-35285D01*
X30392Y-35285D01*
X30468Y-35323D01*
X30506Y-35361D01*
X30545Y-35437D01*
X30545Y-35475D01*
X30506Y-35551D01*
X30468Y-35590D01*
X30392Y-35628D01*
X30240Y-35628D01*
X30164Y-35666D01*
X30125Y-35704D01*
X30087Y-35780D01*
X30087Y-35932D01*
X30125Y-36009D01*
X30164Y-36047D01*
X30240Y-36085D01*
X30392Y-36085D01*
X30468Y-36047D01*
X30506Y-36009D01*
X30545Y-35932D01*
X30545Y-35780D01*
X30506Y-35704D01*
X30468Y-35666D01*
X30392Y-35628D01*
X31307Y-36085D02*
X30849Y-36085D01*
X31078Y-36085D02*
X31078Y-35285D01*
X31002Y-35399D01*
X30926Y-35475D01*
X30849Y-35513D01*
X31649Y-36085D02*
X31649Y-35551D01*
X31649Y-35628D02*
X31688Y-35590D01*
X31764Y-35551D01*
X31878Y-35551D01*
X31954Y-35590D01*
X31992Y-35666D01*
X31992Y-36085D01*
X31992Y-35666D02*
X32030Y-35590D01*
X32107Y-35551D01*
X32221Y-35551D01*
X32297Y-35590D01*
X32335Y-35666D01*
X32335Y-36085D01*
X32716Y-36085D02*
X32716Y-35551D01*
X32716Y-35628D02*
X32755Y-35590D01*
X32831Y-35551D01*
X32945Y-35551D01*
X33021Y-35590D01*
X33059Y-35666D01*
X33059Y-36085D01*
X33059Y-35666D02*
X33097Y-35590D01*
X33174Y-35551D01*
X33288Y-35551D01*
X33364Y-35590D01*
X33402Y-35666D01*
X33402Y-36085D01*
X34622Y-36390D02*
X34584Y-36351D01*
X34508Y-36237D01*
X34470Y-36161D01*
X34432Y-36047D01*
X34393Y-35856D01*
X34393Y-35704D01*
X34432Y-35513D01*
X34470Y-35399D01*
X34508Y-35323D01*
X34584Y-35209D01*
X34622Y-35171D01*
X35346Y-36085D02*
X34888Y-36085D01*
X35117Y-36085D02*
X35117Y-35285D01*
X35041Y-35399D01*
X34965Y-35475D01*
X34888Y-35513D01*
X36108Y-36085D02*
X35650Y-36085D01*
X35879Y-36085D02*
X35879Y-35285D01*
X35803Y-35399D01*
X35727Y-35475D01*
X35650Y-35513D01*
X36603Y-35285D02*
X36679Y-35285D01*
X36755Y-35323D01*
X36793Y-35361D01*
X36831Y-35437D01*
X36870Y-35590D01*
X36870Y-35780D01*
X36831Y-35932D01*
X36793Y-36009D01*
X36755Y-36047D01*
X36679Y-36085D01*
X36603Y-36085D01*
X36527Y-36047D01*
X36489Y-36009D01*
X36450Y-35932D01*
X36412Y-35780D01*
X36412Y-35590D01*
X36450Y-35437D01*
X36489Y-35361D01*
X36527Y-35323D01*
X36603Y-35285D01*
X37822Y-36085D02*
X37822Y-35285D01*
X38165Y-36085D02*
X38165Y-35666D01*
X38127Y-35590D01*
X38051Y-35551D01*
X37937Y-35551D01*
X37861Y-35590D01*
X37822Y-35628D01*
X38661Y-36085D02*
X38585Y-36047D01*
X38546Y-36009D01*
X38508Y-35932D01*
X38508Y-35704D01*
X38546Y-35628D01*
X38585Y-35590D01*
X38661Y-35551D01*
X38775Y-35551D01*
X38851Y-35590D01*
X38889Y-35628D01*
X38927Y-35704D01*
X38927Y-35932D01*
X38889Y-36009D01*
X38851Y-36047D01*
X38775Y-36085D01*
X38661Y-36085D01*
X39385Y-36085D02*
X39309Y-36047D01*
X39270Y-35971D01*
X39270Y-35285D01*
X39994Y-36047D02*
X39918Y-36085D01*
X39766Y-36085D01*
X39689Y-36047D01*
X39651Y-35971D01*
X39651Y-35666D01*
X39689Y-35590D01*
X39766Y-35551D01*
X39918Y-35551D01*
X39994Y-35590D01*
X40032Y-35666D01*
X40032Y-35742D01*
X39651Y-35818D01*
X40337Y-36047D02*
X40414Y-36085D01*
X40566Y-36085D01*
X40642Y-36047D01*
X40680Y-35971D01*
X40680Y-35932D01*
X40642Y-35856D01*
X40566Y-35818D01*
X40452Y-35818D01*
X40375Y-35780D01*
X40337Y-35704D01*
X40337Y-35666D01*
X40375Y-35590D01*
X40452Y-35551D01*
X40566Y-35551D01*
X40642Y-35590D01*
X40947Y-36390D02*
X40985Y-36351D01*
X41062Y-36237D01*
X41100Y-36161D01*
X41138Y-36047D01*
X41176Y-35856D01*
X41176Y-35704D01*
X41138Y-35513D01*
X41100Y-35399D01*
X41062Y-35323D01*
X40985Y-35209D01*
X40947Y-35171D01*
G54D10*
X22495Y-36816D02*
X22491Y-36854D01*
X22479Y-36892D01*
X22461Y-36926D01*
X22436Y-36956D01*
X22406Y-36981D01*
X22372Y-37000D01*
X22335Y-37011D01*
X22296Y-37015D01*
X22258Y-37012D01*
X22221Y-37001D01*
X22186Y-36983D01*
X22156Y-36958D01*
X22130Y-36928D01*
X22112Y-36894D01*
X22100Y-36857D01*
X22096Y-36818D01*
X22099Y-36780D01*
X22110Y-36743D01*
X22127Y-36708D01*
X22152Y-36678D01*
X22181Y-36652D01*
X22215Y-36633D01*
X22253Y-36621D01*
X22291Y-36617D01*
X22329Y-36620D01*
X22367Y-36630D01*
X22402Y-36648D01*
X22432Y-36672D01*
X22458Y-36701D01*
X22477Y-36735D01*
X22490Y-36772D01*
X22494Y-36811D01*
X22495Y-36816D01*
G54D12*
X23038Y-36340D02*
X23114Y-36340D01*
X23190Y-36378D01*
X23228Y-36416D01*
X23266Y-36492D01*
X23305Y-36645D01*
X23305Y-36835D01*
X23266Y-36987D01*
X23228Y-37064D01*
X23190Y-37102D01*
X23114Y-37140D01*
X23038Y-37140D01*
X22962Y-37102D01*
X22924Y-37064D01*
X22885Y-36987D01*
X22847Y-36835D01*
X22847Y-36645D01*
X22885Y-36492D01*
X22924Y-36416D01*
X22962Y-36378D01*
X23038Y-36340D01*
X23647Y-37064D02*
X23686Y-37102D01*
X23647Y-37140D01*
X23609Y-37102D01*
X23647Y-37064D01*
X23647Y-37140D01*
X24181Y-36340D02*
X24257Y-36340D01*
X24333Y-36378D01*
X24371Y-36416D01*
X24409Y-36492D01*
X24448Y-36645D01*
X24448Y-36835D01*
X24409Y-36987D01*
X24371Y-37064D01*
X24333Y-37102D01*
X24257Y-37140D01*
X24181Y-37140D01*
X24105Y-37102D01*
X24067Y-37064D01*
X24028Y-36987D01*
X23990Y-36835D01*
X23990Y-36645D01*
X24028Y-36492D01*
X24067Y-36416D01*
X24105Y-36378D01*
X24181Y-36340D01*
X25133Y-36606D02*
X25133Y-37140D01*
X24943Y-36302D02*
X24752Y-36873D01*
X25248Y-36873D01*
X25705Y-36340D02*
X25781Y-36340D01*
X25857Y-36378D01*
X25895Y-36416D01*
X25933Y-36492D01*
X25972Y-36645D01*
X25972Y-36835D01*
X25933Y-36987D01*
X25895Y-37064D01*
X25857Y-37102D01*
X25781Y-37140D01*
X25705Y-37140D01*
X25629Y-37102D01*
X25591Y-37064D01*
X25552Y-36987D01*
X25514Y-36835D01*
X25514Y-36645D01*
X25552Y-36492D01*
X25591Y-36416D01*
X25629Y-36378D01*
X25705Y-36340D01*
X26276Y-36340D02*
X26276Y-36492D01*
X26581Y-36340D02*
X26581Y-36492D01*
X28106Y-36302D02*
X27420Y-37330D01*
X29402Y-37140D02*
X28944Y-37140D01*
X29173Y-37140D02*
X29173Y-36340D01*
X29097Y-36454D01*
X29021Y-36530D01*
X28944Y-36568D01*
X29744Y-37064D02*
X29783Y-37102D01*
X29744Y-37140D01*
X29706Y-37102D01*
X29744Y-37064D01*
X29744Y-37140D01*
X30278Y-36340D02*
X30354Y-36340D01*
X30430Y-36378D01*
X30468Y-36416D01*
X30506Y-36492D01*
X30545Y-36645D01*
X30545Y-36835D01*
X30506Y-36987D01*
X30468Y-37064D01*
X30430Y-37102D01*
X30354Y-37140D01*
X30278Y-37140D01*
X30202Y-37102D01*
X30164Y-37064D01*
X30125Y-36987D01*
X30087Y-36835D01*
X30087Y-36645D01*
X30125Y-36492D01*
X30164Y-36416D01*
X30202Y-36378D01*
X30278Y-36340D01*
X30849Y-36416D02*
X30887Y-36378D01*
X30964Y-36340D01*
X31154Y-36340D01*
X31230Y-36378D01*
X31268Y-36416D01*
X31307Y-36492D01*
X31307Y-36568D01*
X31268Y-36683D01*
X30811Y-37140D01*
X31307Y-37140D01*
X31649Y-37140D02*
X31649Y-36606D01*
X31649Y-36683D02*
X31688Y-36645D01*
X31764Y-36606D01*
X31878Y-36606D01*
X31954Y-36645D01*
X31992Y-36721D01*
X31992Y-37140D01*
X31992Y-36721D02*
X32030Y-36645D01*
X32107Y-36606D01*
X32221Y-36606D01*
X32297Y-36645D01*
X32335Y-36721D01*
X32335Y-37140D01*
X32716Y-37140D02*
X32716Y-36606D01*
X32716Y-36683D02*
X32755Y-36645D01*
X32831Y-36606D01*
X32945Y-36606D01*
X33021Y-36645D01*
X33059Y-36721D01*
X33059Y-37140D01*
X33059Y-36721D02*
X33097Y-36645D01*
X33174Y-36606D01*
X33288Y-36606D01*
X33364Y-36645D01*
X33402Y-36721D01*
X33402Y-37140D01*
X34622Y-37445D02*
X34584Y-37406D01*
X34508Y-37292D01*
X34470Y-37216D01*
X34432Y-37102D01*
X34393Y-36911D01*
X34393Y-36759D01*
X34432Y-36568D01*
X34470Y-36454D01*
X34508Y-36378D01*
X34584Y-36264D01*
X34622Y-36226D01*
X35307Y-36340D02*
X34926Y-36340D01*
X34888Y-36721D01*
X34926Y-36683D01*
X35003Y-36645D01*
X35193Y-36645D01*
X35269Y-36683D01*
X35307Y-36721D01*
X35346Y-36797D01*
X35346Y-36987D01*
X35307Y-37064D01*
X35269Y-37102D01*
X35193Y-37140D01*
X35003Y-37140D01*
X34926Y-37102D01*
X34888Y-37064D01*
X36298Y-37140D02*
X36298Y-36340D01*
X36641Y-37140D02*
X36641Y-36721D01*
X36603Y-36645D01*
X36527Y-36606D01*
X36413Y-36606D01*
X36337Y-36645D01*
X36298Y-36683D01*
X37137Y-37140D02*
X37061Y-37102D01*
X37022Y-37064D01*
X36984Y-36987D01*
X36984Y-36759D01*
X37022Y-36683D01*
X37061Y-36645D01*
X37137Y-36606D01*
X37251Y-36606D01*
X37327Y-36645D01*
X37365Y-36683D01*
X37403Y-36759D01*
X37403Y-36987D01*
X37365Y-37064D01*
X37327Y-37102D01*
X37251Y-37140D01*
X37137Y-37140D01*
X37861Y-37140D02*
X37785Y-37102D01*
X37746Y-37026D01*
X37746Y-36340D01*
X38470Y-37102D02*
X38394Y-37140D01*
X38242Y-37140D01*
X38165Y-37102D01*
X38127Y-37026D01*
X38127Y-36721D01*
X38165Y-36645D01*
X38242Y-36606D01*
X38394Y-36606D01*
X38470Y-36645D01*
X38508Y-36721D01*
X38508Y-36797D01*
X38127Y-36873D01*
X38813Y-37102D02*
X38890Y-37140D01*
X39042Y-37140D01*
X39118Y-37102D01*
X39156Y-37026D01*
X39156Y-36987D01*
X39118Y-36911D01*
X39042Y-36873D01*
X38928Y-36873D01*
X38851Y-36835D01*
X38813Y-36759D01*
X38813Y-36721D01*
X38851Y-36645D01*
X38928Y-36606D01*
X39042Y-36606D01*
X39118Y-36645D01*
X39423Y-37445D02*
X39461Y-37406D01*
X39538Y-37292D01*
X39576Y-37216D01*
X39614Y-37102D01*
X39652Y-36911D01*
X39652Y-36759D01*
X39614Y-36568D01*
X39576Y-36454D01*
X39538Y-36378D01*
X39461Y-36264D01*
X39423Y-36226D01*
M02*
