G04 (created by PCBNEW-RS274X (2012-01-19 BZR 3256)-stable) date 1/1/2013 6:43:37 PM*
G01*
G70*
G90*
%MOIN*%
G04 Gerber Fmt 3.4, Leading zero omitted, Abs format*
%FSLAX34Y34*%
G04 APERTURE LIST*
%ADD10C,0.006000*%
%ADD11C,0.012000*%
G04 APERTURE END LIST*
G54D10*
G54D11*
X43039Y-24515D02*
X43077Y-24544D01*
X43115Y-24601D01*
X43115Y-24744D01*
X43077Y-24801D01*
X43039Y-24830D01*
X42963Y-24858D01*
X42887Y-24858D01*
X42772Y-24830D01*
X42315Y-24487D01*
X42315Y-24858D01*
X43115Y-25058D02*
X43115Y-25458D01*
X42315Y-25201D01*
X42391Y-25686D02*
X42353Y-25714D01*
X42315Y-25686D01*
X42353Y-25657D01*
X42391Y-25686D01*
X42315Y-25686D01*
X42315Y-26000D02*
X42315Y-26115D01*
X42353Y-26172D01*
X42391Y-26200D01*
X42506Y-26258D01*
X42658Y-26286D01*
X42963Y-26286D01*
X43039Y-26258D01*
X43077Y-26229D01*
X43115Y-26172D01*
X43115Y-26058D01*
X43077Y-26000D01*
X43039Y-25972D01*
X42963Y-25943D01*
X42772Y-25943D01*
X42696Y-25972D01*
X42658Y-26000D01*
X42620Y-26058D01*
X42620Y-26172D01*
X42658Y-26229D01*
X42696Y-26258D01*
X42772Y-26286D01*
X42849Y-26800D02*
X42315Y-26800D01*
X43153Y-26657D02*
X42582Y-26514D01*
X42582Y-26886D01*
X43115Y-27228D02*
X43115Y-27285D01*
X43077Y-27342D01*
X43039Y-27371D01*
X42963Y-27400D01*
X42810Y-27428D01*
X42620Y-27428D01*
X42468Y-27400D01*
X42391Y-27371D01*
X42353Y-27342D01*
X42315Y-27285D01*
X42315Y-27228D01*
X42353Y-27171D01*
X42391Y-27142D01*
X42468Y-27114D01*
X42620Y-27085D01*
X42810Y-27085D01*
X42963Y-27114D01*
X43039Y-27142D01*
X43077Y-27171D01*
X43115Y-27228D01*
X42315Y-28142D02*
X42849Y-28142D01*
X42772Y-28142D02*
X42810Y-28170D01*
X42849Y-28228D01*
X42849Y-28313D01*
X42810Y-28370D01*
X42734Y-28399D01*
X42315Y-28399D01*
X42734Y-28399D02*
X42810Y-28428D01*
X42849Y-28485D01*
X42849Y-28570D01*
X42810Y-28628D01*
X42734Y-28656D01*
X42315Y-28656D01*
X42315Y-28942D02*
X42849Y-28942D01*
X42772Y-28942D02*
X42810Y-28970D01*
X42849Y-29028D01*
X42849Y-29113D01*
X42810Y-29170D01*
X42734Y-29199D01*
X42315Y-29199D01*
X42734Y-29199D02*
X42810Y-29228D01*
X42849Y-29285D01*
X42849Y-29370D01*
X42810Y-29428D01*
X42734Y-29456D01*
X42315Y-29456D01*
X41999Y-21500D02*
X41999Y-32500D01*
X39750Y-21500D02*
X43279Y-21500D01*
X39750Y-32500D02*
X43279Y-32500D01*
X41999Y-32500D02*
X41769Y-32057D01*
X41999Y-32500D02*
X42229Y-32057D01*
X41999Y-21500D02*
X41769Y-21943D01*
X41999Y-21500D02*
X42229Y-21943D01*
X29176Y-18401D02*
X29176Y-18935D01*
X29033Y-18097D02*
X28890Y-18668D01*
X29262Y-18668D01*
X29461Y-18211D02*
X29490Y-18173D01*
X29547Y-18135D01*
X29690Y-18135D01*
X29747Y-18173D01*
X29776Y-18211D01*
X29804Y-18287D01*
X29804Y-18363D01*
X29776Y-18478D01*
X29433Y-18935D01*
X29804Y-18935D01*
X30061Y-18859D02*
X30089Y-18897D01*
X30061Y-18935D01*
X30032Y-18897D01*
X30061Y-18859D01*
X30061Y-18935D01*
X30633Y-18135D02*
X30347Y-18135D01*
X30318Y-18516D01*
X30347Y-18478D01*
X30404Y-18440D01*
X30547Y-18440D01*
X30604Y-18478D01*
X30633Y-18516D01*
X30661Y-18592D01*
X30661Y-18782D01*
X30633Y-18859D01*
X30604Y-18897D01*
X30547Y-18935D01*
X30404Y-18935D01*
X30347Y-18897D01*
X30318Y-18859D01*
X31175Y-18401D02*
X31175Y-18935D01*
X31032Y-18097D02*
X30889Y-18668D01*
X31261Y-18668D01*
X31775Y-18135D02*
X31489Y-18135D01*
X31460Y-18516D01*
X31489Y-18478D01*
X31546Y-18440D01*
X31689Y-18440D01*
X31746Y-18478D01*
X31775Y-18516D01*
X31803Y-18592D01*
X31803Y-18782D01*
X31775Y-18859D01*
X31746Y-18897D01*
X31689Y-18935D01*
X31546Y-18935D01*
X31489Y-18897D01*
X31460Y-18859D01*
X32517Y-18935D02*
X32517Y-18401D01*
X32517Y-18478D02*
X32545Y-18440D01*
X32603Y-18401D01*
X32688Y-18401D01*
X32745Y-18440D01*
X32774Y-18516D01*
X32774Y-18935D01*
X32774Y-18516D02*
X32803Y-18440D01*
X32860Y-18401D01*
X32945Y-18401D01*
X33003Y-18440D01*
X33031Y-18516D01*
X33031Y-18935D01*
X33317Y-18935D02*
X33317Y-18401D01*
X33317Y-18478D02*
X33345Y-18440D01*
X33403Y-18401D01*
X33488Y-18401D01*
X33545Y-18440D01*
X33574Y-18516D01*
X33574Y-18935D01*
X33574Y-18516D02*
X33603Y-18440D01*
X33660Y-18401D01*
X33745Y-18401D01*
X33803Y-18440D01*
X33831Y-18516D01*
X33831Y-18935D01*
X23000Y-19251D02*
X39750Y-19251D01*
X23000Y-21500D02*
X23000Y-17971D01*
X39750Y-21500D02*
X39750Y-17971D01*
X39750Y-19251D02*
X39307Y-19481D01*
X39750Y-19251D02*
X39307Y-19021D01*
X23000Y-19251D02*
X23443Y-19481D01*
X23000Y-19251D02*
X23443Y-19021D01*
M02*
