M48
;DRILL file {Pcbnew (2012-01-19 BZR 3256)-stable} date 1/3/2013 12:22:55 AM
;FORMAT={-:-/ absolute / inch / decimal}
FMAT,2
INCH,TZ
T1C0.024
T2C0.032
T3C0.040
%
G90
G05
M72
T1
X2.800Y-2.650
X3.000Y-2.650
T2
X2.400Y-2.200
X2.400Y-2.300
X2.400Y-2.400
X2.400Y-2.550
X2.400Y-2.650
X2.400Y-2.750
X2.400Y-2.850
X2.400Y-3.000
X2.400Y-3.100
X2.400Y-3.200
X2.600Y-2.200
X2.600Y-2.300
X2.600Y-2.400
X2.600Y-2.550
X2.600Y-2.850
X2.600Y-3.000
X2.600Y-3.100
X2.600Y-3.200
X2.700Y-2.200
X2.700Y-2.300
X2.700Y-2.400
X2.700Y-2.550
X2.700Y-2.850
X2.700Y-3.000
X2.700Y-3.100
X2.700Y-3.200
X2.800Y-2.200
X2.800Y-2.300
X2.800Y-2.400
X2.800Y-2.550
X2.800Y-2.850
X2.800Y-3.000
X2.800Y-3.100
X2.800Y-3.200
X2.900Y-2.200
X2.900Y-2.300
X2.900Y-2.400
X2.900Y-2.550
X2.900Y-2.850
X2.900Y-3.000
X2.900Y-3.100
X2.900Y-3.200
X3.000Y-2.200
X3.000Y-2.300
X3.000Y-2.400
X3.000Y-2.550
X3.000Y-2.850
X3.000Y-3.000
X3.000Y-3.100
X3.000Y-3.200
X3.100Y-2.200
X3.100Y-2.300
X3.100Y-2.400
X3.100Y-2.550
X3.100Y-2.850
X3.100Y-3.000
X3.100Y-3.100
X3.100Y-3.200
X3.200Y-2.200
X3.200Y-2.300
X3.200Y-2.400
X3.200Y-2.550
X3.200Y-2.850
X3.200Y-3.000
X3.200Y-3.100
X3.200Y-3.200
X3.300Y-2.200
X3.300Y-2.300
X3.300Y-2.400
X3.300Y-2.550
X3.300Y-2.850
X3.300Y-3.000
X3.300Y-3.100
X3.300Y-3.200
X3.400Y-2.200
X3.400Y-2.300
X3.400Y-2.400
X3.400Y-2.550
X3.400Y-2.850
X3.400Y-3.000
X3.400Y-3.100
X3.400Y-3.200
X3.500Y-2.200
X3.500Y-2.300
X3.500Y-2.400
X3.500Y-2.550
X3.500Y-2.850
X3.500Y-3.000
X3.500Y-3.100
X3.500Y-3.200
X3.625Y-2.200
X3.625Y-2.300
X3.625Y-2.400
X3.625Y-2.500
X3.650Y-3.100
X3.650Y-3.200
X3.700Y-2.650
X3.700Y-2.750
X3.700Y-2.875
X3.700Y-2.975
X3.750Y-2.250
X3.750Y-2.350
X3.775Y-3.100
X3.775Y-3.200
X3.875Y-2.325
X3.875Y-2.425
X3.875Y-2.975
X3.875Y-3.075
T3
X3.875Y-2.600
X3.875Y-2.700
X3.875Y-2.800
X3.900Y-2.200
X3.900Y-3.200
T0
M30
