G04 (created by PCBNEW-RS274X (2012-01-19 BZR 3256)-stable) date 1/1/2013 11:03:39 PM*
G01*
G70*
G90*
%MOIN*%
G04 Gerber Fmt 3.4, Leading zero omitted, Abs format*
%FSLAX34Y34*%
G04 APERTURE LIST*
%ADD10C,0.006000*%
%ADD11C,0.066000*%
%ADD12R,0.070000X0.070000*%
%ADD13C,0.070000*%
%ADD14O,0.098400X0.078700*%
%ADD15R,0.055000X0.055000*%
%ADD16C,0.055000*%
%ADD17R,0.062000X0.090000*%
%ADD18O,0.062000X0.090000*%
%ADD19C,0.035000*%
%ADD20C,0.024000*%
%ADD21C,0.008000*%
%ADD22C,0.016000*%
%ADD23C,0.010000*%
G04 APERTURE END LIST*
G54D10*
G54D11*
X38750Y-23250D03*
X38750Y-24250D03*
X38750Y-30750D03*
X38750Y-29750D03*
G54D12*
X38750Y-26000D03*
G54D13*
X38750Y-27000D03*
X38750Y-28000D03*
G54D14*
X39000Y-32000D03*
X39000Y-22000D03*
G54D15*
X24000Y-28500D03*
G54D16*
X24000Y-27500D03*
X24000Y-26500D03*
X24000Y-25500D03*
G54D15*
X24000Y-22000D03*
G54D16*
X24000Y-23000D03*
X24000Y-24000D03*
G54D15*
X24000Y-32000D03*
G54D16*
X24000Y-31000D03*
X24000Y-30000D03*
G54D15*
X26000Y-30000D03*
G54D16*
X27000Y-30000D03*
X28000Y-30000D03*
X29000Y-30000D03*
X30000Y-30000D03*
X31000Y-30000D03*
X32000Y-30000D03*
X33000Y-30000D03*
X34000Y-30000D03*
X35000Y-30000D03*
G54D15*
X26000Y-24000D03*
G54D16*
X27000Y-24000D03*
X28000Y-24000D03*
X29000Y-24000D03*
X30000Y-24000D03*
X31000Y-24000D03*
X32000Y-24000D03*
X33000Y-24000D03*
X34000Y-24000D03*
X35000Y-24000D03*
G54D15*
X26000Y-23000D03*
G54D16*
X27000Y-23000D03*
X28000Y-23000D03*
X29000Y-23000D03*
X30000Y-23000D03*
X31000Y-23000D03*
X32000Y-23000D03*
X33000Y-23000D03*
X34000Y-23000D03*
X35000Y-23000D03*
G54D15*
X26000Y-31000D03*
G54D16*
X27000Y-31000D03*
X28000Y-31000D03*
X29000Y-31000D03*
X30000Y-31000D03*
X31000Y-31000D03*
X32000Y-31000D03*
X33000Y-31000D03*
X34000Y-31000D03*
X35000Y-31000D03*
G54D15*
X26000Y-32000D03*
G54D16*
X27000Y-32000D03*
X28000Y-32000D03*
X29000Y-32000D03*
X30000Y-32000D03*
X31000Y-32000D03*
X32000Y-32000D03*
X33000Y-32000D03*
X34000Y-32000D03*
X35000Y-32000D03*
G54D15*
X26000Y-22000D03*
G54D16*
X27000Y-22000D03*
X28000Y-22000D03*
X29000Y-22000D03*
X30000Y-22000D03*
X31000Y-22000D03*
X32000Y-22000D03*
X33000Y-22000D03*
X34000Y-22000D03*
X35000Y-22000D03*
G54D17*
X26000Y-28500D03*
G54D18*
X27000Y-28500D03*
X28000Y-28500D03*
X29000Y-28500D03*
X30000Y-28500D03*
X31000Y-28500D03*
X32000Y-28500D03*
X33000Y-28500D03*
X34000Y-28500D03*
X35000Y-28500D03*
X35000Y-25500D03*
X34000Y-25500D03*
X33000Y-25500D03*
X32000Y-25500D03*
X31000Y-25500D03*
X30000Y-25500D03*
X29000Y-25500D03*
X28000Y-25500D03*
X27000Y-25500D03*
X26000Y-25500D03*
G54D16*
X36250Y-25000D03*
X36250Y-24000D03*
X37750Y-32000D03*
X37750Y-31000D03*
X37000Y-28750D03*
X37000Y-29750D03*
X37000Y-26500D03*
X37000Y-27500D03*
X37500Y-22500D03*
X37500Y-23500D03*
X36500Y-31000D03*
X36500Y-32000D03*
X36250Y-23000D03*
X36250Y-22000D03*
G54D19*
X28000Y-26500D03*
X30000Y-26500D03*
G54D20*
X26000Y-28500D02*
X24000Y-28500D01*
X26000Y-28500D02*
X26000Y-30000D01*
X38750Y-27000D02*
X37000Y-28750D01*
X29000Y-22000D02*
X30000Y-22000D01*
X26000Y-32000D02*
X27000Y-32000D01*
X27000Y-22000D02*
X28000Y-22000D01*
X33000Y-32000D02*
X34000Y-32000D01*
X32000Y-22000D02*
X33000Y-22000D01*
X28000Y-32000D02*
X29000Y-32000D01*
X33000Y-22000D02*
X34000Y-22000D01*
X30000Y-32000D02*
X31000Y-32000D01*
X26000Y-22000D02*
X27000Y-22000D01*
X35000Y-22000D02*
X36250Y-22000D01*
X31000Y-32000D02*
X32000Y-32000D01*
X28000Y-22000D02*
X29000Y-22000D01*
X30000Y-22000D02*
X31000Y-22000D01*
X34000Y-32000D02*
X35000Y-32000D01*
X34000Y-22000D02*
X35000Y-22000D01*
X32000Y-32000D02*
X33000Y-32000D01*
G54D21*
X26000Y-25500D02*
X26000Y-24000D01*
G54D20*
X36250Y-22000D02*
X39000Y-22000D01*
X31000Y-22000D02*
X32000Y-22000D01*
X27000Y-32000D02*
X28000Y-32000D01*
X29000Y-32000D02*
X30000Y-32000D01*
X35000Y-32000D02*
X36500Y-32000D01*
X35000Y-25500D02*
X35000Y-24100D01*
G54D21*
X35000Y-24100D02*
X35000Y-24000D01*
G54D20*
X34000Y-24000D02*
X34000Y-25500D01*
X33000Y-25500D02*
X33000Y-24000D01*
X28000Y-28500D02*
X28000Y-30000D01*
G54D22*
X29000Y-27000D02*
X24500Y-27000D01*
X29000Y-26500D02*
X29000Y-27000D01*
X29000Y-25500D02*
X29000Y-26500D01*
X24500Y-27000D02*
X24000Y-27500D01*
G54D20*
X29000Y-25500D02*
X29000Y-24000D01*
X38000Y-30750D02*
X37750Y-31000D01*
X38750Y-30750D02*
X38000Y-30750D01*
X29000Y-28500D02*
X29000Y-30000D01*
X30000Y-28500D02*
X30000Y-30000D01*
X31000Y-28500D02*
X31000Y-30000D01*
X32000Y-28500D02*
X32000Y-30000D01*
X33000Y-30000D02*
X33000Y-28500D01*
X34000Y-28500D02*
X34000Y-30000D01*
X35000Y-30000D02*
X35000Y-28500D01*
X27000Y-24000D02*
X27000Y-25500D01*
X28000Y-24000D02*
X28000Y-25500D01*
X31000Y-25500D02*
X31000Y-24000D01*
X32000Y-24000D02*
X32000Y-25500D01*
G54D22*
X36250Y-23000D02*
X36250Y-24000D01*
G54D20*
X30000Y-24000D02*
X30000Y-25500D01*
G54D21*
X36250Y-23500D02*
X36250Y-24000D01*
X36250Y-23000D02*
X36250Y-23500D01*
G54D22*
X24000Y-26500D02*
X28000Y-26500D01*
X30000Y-24000D02*
X30500Y-23500D01*
X30000Y-26500D02*
X30000Y-25500D01*
X30500Y-23500D02*
X36250Y-23500D01*
G54D20*
X27000Y-28500D02*
X27000Y-30000D01*
G54D22*
X27250Y-27500D02*
X27000Y-27750D01*
X37500Y-23500D02*
X37500Y-24750D01*
X31250Y-26500D02*
X30500Y-27500D01*
X37500Y-24750D02*
X35750Y-26500D01*
X27000Y-27750D02*
X27000Y-28500D01*
X35750Y-26500D02*
X31250Y-26500D01*
X30500Y-27500D02*
X27250Y-27500D01*
G54D10*
G36*
X26630Y-24941D02*
X26535Y-25036D01*
X26501Y-25115D01*
X26382Y-24950D01*
X26196Y-24835D01*
X26137Y-24818D01*
X26050Y-24865D01*
X26050Y-25400D01*
X26050Y-25450D01*
X26050Y-25550D01*
X25950Y-25550D01*
X25950Y-25450D01*
X25950Y-24865D01*
X25950Y-24463D01*
X25950Y-24050D01*
X25537Y-24050D01*
X25475Y-24112D01*
X25476Y-24226D01*
X25476Y-24325D01*
X25514Y-24416D01*
X25584Y-24486D01*
X25676Y-24524D01*
X25888Y-24525D01*
X25950Y-24463D01*
X25950Y-24865D01*
X25863Y-24818D01*
X25804Y-24835D01*
X25618Y-24950D01*
X25490Y-25127D01*
X25440Y-25340D01*
X25440Y-25450D01*
X25950Y-25450D01*
X25950Y-25550D01*
X25900Y-25550D01*
X25440Y-25550D01*
X25440Y-25660D01*
X25490Y-25873D01*
X25618Y-26050D01*
X25804Y-26165D01*
X25821Y-26170D01*
X24519Y-26170D01*
X24519Y-25574D01*
X24508Y-25370D01*
X24452Y-25233D01*
X24361Y-25210D01*
X24290Y-25281D01*
X24290Y-25139D01*
X24267Y-25048D01*
X24074Y-24981D01*
X23870Y-24992D01*
X23733Y-25048D01*
X23710Y-25139D01*
X24000Y-25429D01*
X24290Y-25139D01*
X24290Y-25281D01*
X24071Y-25500D01*
X24361Y-25790D01*
X24452Y-25767D01*
X24519Y-25574D01*
X24519Y-26170D01*
X24412Y-26170D01*
X24298Y-26055D01*
X24157Y-25996D01*
X24267Y-25952D01*
X24290Y-25861D01*
X24000Y-25571D01*
X23929Y-25642D01*
X23929Y-25500D01*
X23639Y-25210D01*
X23548Y-25233D01*
X23481Y-25426D01*
X23492Y-25630D01*
X23548Y-25767D01*
X23639Y-25790D01*
X23929Y-25500D01*
X23929Y-25642D01*
X23710Y-25861D01*
X23733Y-25952D01*
X23851Y-25993D01*
X23703Y-26055D01*
X23555Y-26202D01*
X23475Y-26395D01*
X23475Y-26604D01*
X23555Y-26797D01*
X23702Y-26945D01*
X23835Y-27000D01*
X23703Y-27055D01*
X23555Y-27202D01*
X23475Y-27395D01*
X23475Y-27604D01*
X23555Y-27797D01*
X23702Y-27945D01*
X23776Y-27976D01*
X23676Y-27976D01*
X23584Y-28014D01*
X23514Y-28084D01*
X23476Y-28175D01*
X23476Y-28274D01*
X23476Y-28824D01*
X23514Y-28916D01*
X23584Y-28986D01*
X23675Y-29024D01*
X23774Y-29024D01*
X24324Y-29024D01*
X24416Y-28986D01*
X24486Y-28916D01*
X24505Y-28870D01*
X25441Y-28870D01*
X25441Y-28999D01*
X25479Y-29091D01*
X25549Y-29161D01*
X25630Y-29194D01*
X25630Y-29495D01*
X25584Y-29514D01*
X25514Y-29584D01*
X25476Y-29675D01*
X25476Y-29774D01*
X25476Y-30324D01*
X25514Y-30416D01*
X25584Y-30486D01*
X25617Y-30500D01*
X25584Y-30514D01*
X25514Y-30584D01*
X25476Y-30675D01*
X25476Y-30774D01*
X25476Y-31324D01*
X25514Y-31416D01*
X25584Y-31486D01*
X25617Y-31500D01*
X25584Y-31514D01*
X25514Y-31584D01*
X25476Y-31675D01*
X25476Y-31774D01*
X25475Y-31888D01*
X25537Y-31950D01*
X25900Y-31950D01*
X25950Y-31950D01*
X26050Y-31950D01*
X26050Y-32050D01*
X25950Y-32050D01*
X25900Y-32050D01*
X25537Y-32050D01*
X25475Y-32112D01*
X25475Y-32175D01*
X24524Y-32175D01*
X24524Y-31676D01*
X24486Y-31584D01*
X24416Y-31514D01*
X24325Y-31476D01*
X24226Y-31476D01*
X24222Y-31476D01*
X24297Y-31445D01*
X24445Y-31298D01*
X24525Y-31105D01*
X24525Y-30896D01*
X24445Y-30703D01*
X24298Y-30555D01*
X24164Y-30499D01*
X24297Y-30445D01*
X24445Y-30298D01*
X24525Y-30105D01*
X24525Y-29896D01*
X24445Y-29703D01*
X24298Y-29555D01*
X24105Y-29475D01*
X23896Y-29475D01*
X23703Y-29555D01*
X23555Y-29702D01*
X23475Y-29895D01*
X23475Y-30104D01*
X23555Y-30297D01*
X23702Y-30445D01*
X23835Y-30500D01*
X23703Y-30555D01*
X23555Y-30702D01*
X23475Y-30895D01*
X23475Y-31104D01*
X23555Y-31297D01*
X23702Y-31445D01*
X23776Y-31476D01*
X23676Y-31476D01*
X23584Y-31514D01*
X23514Y-31584D01*
X23476Y-31675D01*
X23476Y-31774D01*
X23476Y-32175D01*
X23325Y-32175D01*
X23325Y-21825D01*
X23476Y-21825D01*
X23476Y-22324D01*
X23514Y-22416D01*
X23584Y-22486D01*
X23675Y-22524D01*
X23774Y-22524D01*
X23703Y-22555D01*
X23555Y-22702D01*
X23475Y-22895D01*
X23475Y-23104D01*
X23555Y-23297D01*
X23702Y-23445D01*
X23835Y-23500D01*
X23703Y-23555D01*
X23555Y-23702D01*
X23475Y-23895D01*
X23475Y-24104D01*
X23555Y-24297D01*
X23702Y-24445D01*
X23895Y-24525D01*
X24104Y-24525D01*
X24297Y-24445D01*
X24445Y-24298D01*
X24525Y-24105D01*
X24525Y-23896D01*
X24445Y-23703D01*
X24298Y-23555D01*
X24164Y-23499D01*
X24297Y-23445D01*
X24445Y-23298D01*
X24525Y-23105D01*
X24525Y-22896D01*
X24445Y-22703D01*
X24298Y-22555D01*
X24223Y-22524D01*
X24324Y-22524D01*
X24416Y-22486D01*
X24486Y-22416D01*
X24524Y-22325D01*
X24524Y-22226D01*
X24524Y-21825D01*
X25475Y-21825D01*
X25475Y-21888D01*
X25537Y-21950D01*
X25900Y-21950D01*
X25950Y-21950D01*
X26050Y-21950D01*
X26050Y-22050D01*
X25950Y-22050D01*
X25900Y-22050D01*
X25537Y-22050D01*
X25475Y-22112D01*
X25476Y-22226D01*
X25476Y-22325D01*
X25514Y-22416D01*
X25584Y-22486D01*
X25617Y-22500D01*
X25584Y-22514D01*
X25514Y-22584D01*
X25476Y-22675D01*
X25476Y-22774D01*
X25476Y-23324D01*
X25514Y-23416D01*
X25584Y-23486D01*
X25617Y-23500D01*
X25584Y-23514D01*
X25514Y-23584D01*
X25476Y-23675D01*
X25476Y-23774D01*
X25475Y-23888D01*
X25537Y-23950D01*
X25900Y-23950D01*
X25950Y-23950D01*
X26050Y-23950D01*
X26050Y-24050D01*
X26050Y-24100D01*
X26050Y-24463D01*
X26112Y-24525D01*
X26324Y-24524D01*
X26416Y-24486D01*
X26486Y-24416D01*
X26524Y-24325D01*
X26524Y-24226D01*
X26524Y-24222D01*
X26555Y-24297D01*
X26630Y-24372D01*
X26630Y-24941D01*
X26630Y-24941D01*
G37*
G54D23*
X26630Y-24941D02*
X26535Y-25036D01*
X26501Y-25115D01*
X26382Y-24950D01*
X26196Y-24835D01*
X26137Y-24818D01*
X26050Y-24865D01*
X26050Y-25400D01*
X26050Y-25450D01*
X26050Y-25550D01*
X25950Y-25550D01*
X25950Y-25450D01*
X25950Y-24865D01*
X25950Y-24463D01*
X25950Y-24050D01*
X25537Y-24050D01*
X25475Y-24112D01*
X25476Y-24226D01*
X25476Y-24325D01*
X25514Y-24416D01*
X25584Y-24486D01*
X25676Y-24524D01*
X25888Y-24525D01*
X25950Y-24463D01*
X25950Y-24865D01*
X25863Y-24818D01*
X25804Y-24835D01*
X25618Y-24950D01*
X25490Y-25127D01*
X25440Y-25340D01*
X25440Y-25450D01*
X25950Y-25450D01*
X25950Y-25550D01*
X25900Y-25550D01*
X25440Y-25550D01*
X25440Y-25660D01*
X25490Y-25873D01*
X25618Y-26050D01*
X25804Y-26165D01*
X25821Y-26170D01*
X24519Y-26170D01*
X24519Y-25574D01*
X24508Y-25370D01*
X24452Y-25233D01*
X24361Y-25210D01*
X24290Y-25281D01*
X24290Y-25139D01*
X24267Y-25048D01*
X24074Y-24981D01*
X23870Y-24992D01*
X23733Y-25048D01*
X23710Y-25139D01*
X24000Y-25429D01*
X24290Y-25139D01*
X24290Y-25281D01*
X24071Y-25500D01*
X24361Y-25790D01*
X24452Y-25767D01*
X24519Y-25574D01*
X24519Y-26170D01*
X24412Y-26170D01*
X24298Y-26055D01*
X24157Y-25996D01*
X24267Y-25952D01*
X24290Y-25861D01*
X24000Y-25571D01*
X23929Y-25642D01*
X23929Y-25500D01*
X23639Y-25210D01*
X23548Y-25233D01*
X23481Y-25426D01*
X23492Y-25630D01*
X23548Y-25767D01*
X23639Y-25790D01*
X23929Y-25500D01*
X23929Y-25642D01*
X23710Y-25861D01*
X23733Y-25952D01*
X23851Y-25993D01*
X23703Y-26055D01*
X23555Y-26202D01*
X23475Y-26395D01*
X23475Y-26604D01*
X23555Y-26797D01*
X23702Y-26945D01*
X23835Y-27000D01*
X23703Y-27055D01*
X23555Y-27202D01*
X23475Y-27395D01*
X23475Y-27604D01*
X23555Y-27797D01*
X23702Y-27945D01*
X23776Y-27976D01*
X23676Y-27976D01*
X23584Y-28014D01*
X23514Y-28084D01*
X23476Y-28175D01*
X23476Y-28274D01*
X23476Y-28824D01*
X23514Y-28916D01*
X23584Y-28986D01*
X23675Y-29024D01*
X23774Y-29024D01*
X24324Y-29024D01*
X24416Y-28986D01*
X24486Y-28916D01*
X24505Y-28870D01*
X25441Y-28870D01*
X25441Y-28999D01*
X25479Y-29091D01*
X25549Y-29161D01*
X25630Y-29194D01*
X25630Y-29495D01*
X25584Y-29514D01*
X25514Y-29584D01*
X25476Y-29675D01*
X25476Y-29774D01*
X25476Y-30324D01*
X25514Y-30416D01*
X25584Y-30486D01*
X25617Y-30500D01*
X25584Y-30514D01*
X25514Y-30584D01*
X25476Y-30675D01*
X25476Y-30774D01*
X25476Y-31324D01*
X25514Y-31416D01*
X25584Y-31486D01*
X25617Y-31500D01*
X25584Y-31514D01*
X25514Y-31584D01*
X25476Y-31675D01*
X25476Y-31774D01*
X25475Y-31888D01*
X25537Y-31950D01*
X25900Y-31950D01*
X25950Y-31950D01*
X26050Y-31950D01*
X26050Y-32050D01*
X25950Y-32050D01*
X25900Y-32050D01*
X25537Y-32050D01*
X25475Y-32112D01*
X25475Y-32175D01*
X24524Y-32175D01*
X24524Y-31676D01*
X24486Y-31584D01*
X24416Y-31514D01*
X24325Y-31476D01*
X24226Y-31476D01*
X24222Y-31476D01*
X24297Y-31445D01*
X24445Y-31298D01*
X24525Y-31105D01*
X24525Y-30896D01*
X24445Y-30703D01*
X24298Y-30555D01*
X24164Y-30499D01*
X24297Y-30445D01*
X24445Y-30298D01*
X24525Y-30105D01*
X24525Y-29896D01*
X24445Y-29703D01*
X24298Y-29555D01*
X24105Y-29475D01*
X23896Y-29475D01*
X23703Y-29555D01*
X23555Y-29702D01*
X23475Y-29895D01*
X23475Y-30104D01*
X23555Y-30297D01*
X23702Y-30445D01*
X23835Y-30500D01*
X23703Y-30555D01*
X23555Y-30702D01*
X23475Y-30895D01*
X23475Y-31104D01*
X23555Y-31297D01*
X23702Y-31445D01*
X23776Y-31476D01*
X23676Y-31476D01*
X23584Y-31514D01*
X23514Y-31584D01*
X23476Y-31675D01*
X23476Y-31774D01*
X23476Y-32175D01*
X23325Y-32175D01*
X23325Y-21825D01*
X23476Y-21825D01*
X23476Y-22324D01*
X23514Y-22416D01*
X23584Y-22486D01*
X23675Y-22524D01*
X23774Y-22524D01*
X23703Y-22555D01*
X23555Y-22702D01*
X23475Y-22895D01*
X23475Y-23104D01*
X23555Y-23297D01*
X23702Y-23445D01*
X23835Y-23500D01*
X23703Y-23555D01*
X23555Y-23702D01*
X23475Y-23895D01*
X23475Y-24104D01*
X23555Y-24297D01*
X23702Y-24445D01*
X23895Y-24525D01*
X24104Y-24525D01*
X24297Y-24445D01*
X24445Y-24298D01*
X24525Y-24105D01*
X24525Y-23896D01*
X24445Y-23703D01*
X24298Y-23555D01*
X24164Y-23499D01*
X24297Y-23445D01*
X24445Y-23298D01*
X24525Y-23105D01*
X24525Y-22896D01*
X24445Y-22703D01*
X24298Y-22555D01*
X24223Y-22524D01*
X24324Y-22524D01*
X24416Y-22486D01*
X24486Y-22416D01*
X24524Y-22325D01*
X24524Y-22226D01*
X24524Y-21825D01*
X25475Y-21825D01*
X25475Y-21888D01*
X25537Y-21950D01*
X25900Y-21950D01*
X25950Y-21950D01*
X26050Y-21950D01*
X26050Y-22050D01*
X25950Y-22050D01*
X25900Y-22050D01*
X25537Y-22050D01*
X25475Y-22112D01*
X25476Y-22226D01*
X25476Y-22325D01*
X25514Y-22416D01*
X25584Y-22486D01*
X25617Y-22500D01*
X25584Y-22514D01*
X25514Y-22584D01*
X25476Y-22675D01*
X25476Y-22774D01*
X25476Y-23324D01*
X25514Y-23416D01*
X25584Y-23486D01*
X25617Y-23500D01*
X25584Y-23514D01*
X25514Y-23584D01*
X25476Y-23675D01*
X25476Y-23774D01*
X25475Y-23888D01*
X25537Y-23950D01*
X25900Y-23950D01*
X25950Y-23950D01*
X26050Y-23950D01*
X26050Y-24050D01*
X26050Y-24100D01*
X26050Y-24463D01*
X26112Y-24525D01*
X26324Y-24524D01*
X26416Y-24486D01*
X26486Y-24416D01*
X26524Y-24325D01*
X26524Y-24226D01*
X26524Y-24222D01*
X26555Y-24297D01*
X26630Y-24372D01*
X26630Y-24941D01*
G54D10*
G36*
X39425Y-31445D02*
X39350Y-31414D01*
X39350Y-26112D01*
X39350Y-25888D01*
X39349Y-25699D01*
X39349Y-25600D01*
X39330Y-25554D01*
X39330Y-23366D01*
X39330Y-23135D01*
X39242Y-22922D01*
X39079Y-22759D01*
X38950Y-22705D01*
X38950Y-22574D01*
X38950Y-22050D01*
X38323Y-22050D01*
X38276Y-22150D01*
X38294Y-22196D01*
X38415Y-22413D01*
X38610Y-22568D01*
X38850Y-22636D01*
X38950Y-22574D01*
X38950Y-22705D01*
X38866Y-22670D01*
X38635Y-22670D01*
X38422Y-22758D01*
X38259Y-22921D01*
X38170Y-23134D01*
X38170Y-23365D01*
X38258Y-23578D01*
X38421Y-23741D01*
X38452Y-23753D01*
X38452Y-23754D01*
X38421Y-23850D01*
X38750Y-24179D01*
X39079Y-23850D01*
X39048Y-23754D01*
X39078Y-23742D01*
X39241Y-23579D01*
X39330Y-23366D01*
X39330Y-25554D01*
X39323Y-25537D01*
X39323Y-24336D01*
X39312Y-24111D01*
X39246Y-23952D01*
X39150Y-23921D01*
X38821Y-24250D01*
X39150Y-24579D01*
X39246Y-24548D01*
X39323Y-24336D01*
X39323Y-25537D01*
X39311Y-25509D01*
X39241Y-25439D01*
X39149Y-25401D01*
X39079Y-25400D01*
X39079Y-24650D01*
X38750Y-24321D01*
X38679Y-24392D01*
X38679Y-24250D01*
X38350Y-23921D01*
X38254Y-23952D01*
X38177Y-24164D01*
X38188Y-24389D01*
X38254Y-24548D01*
X38350Y-24579D01*
X38679Y-24250D01*
X38679Y-24392D01*
X38421Y-24650D01*
X38452Y-24746D01*
X38664Y-24823D01*
X38889Y-24812D01*
X39048Y-24746D01*
X39079Y-24650D01*
X39079Y-25400D01*
X38862Y-25400D01*
X38800Y-25462D01*
X38800Y-25950D01*
X39288Y-25950D01*
X39350Y-25888D01*
X39350Y-26112D01*
X39288Y-26050D01*
X38850Y-26050D01*
X38800Y-26050D01*
X38700Y-26050D01*
X38700Y-25950D01*
X38700Y-25462D01*
X38638Y-25400D01*
X38351Y-25401D01*
X38259Y-25439D01*
X38189Y-25509D01*
X38151Y-25600D01*
X38151Y-25699D01*
X38150Y-25888D01*
X38212Y-25950D01*
X38700Y-25950D01*
X38700Y-26050D01*
X38650Y-26050D01*
X38212Y-26050D01*
X38150Y-26112D01*
X38151Y-26301D01*
X38151Y-26400D01*
X38189Y-26491D01*
X38259Y-26561D01*
X38317Y-26585D01*
X38242Y-26661D01*
X38151Y-26881D01*
X38151Y-27075D01*
X37525Y-27701D01*
X37525Y-26605D01*
X37525Y-26396D01*
X37445Y-26203D01*
X37298Y-26055D01*
X37105Y-25975D01*
X36896Y-25975D01*
X36703Y-26055D01*
X36555Y-26202D01*
X36475Y-26395D01*
X36475Y-26604D01*
X36555Y-26797D01*
X36702Y-26945D01*
X36842Y-27003D01*
X36733Y-27048D01*
X36710Y-27139D01*
X37000Y-27429D01*
X37290Y-27139D01*
X37267Y-27048D01*
X37148Y-27006D01*
X37297Y-26945D01*
X37445Y-26798D01*
X37525Y-26605D01*
X37525Y-27701D01*
X37519Y-27707D01*
X37433Y-27792D01*
X37416Y-27775D01*
X37452Y-27767D01*
X37519Y-27574D01*
X37508Y-27370D01*
X37452Y-27233D01*
X37361Y-27210D01*
X37106Y-27465D01*
X37071Y-27500D01*
X37000Y-27571D01*
X36965Y-27606D01*
X36929Y-27642D01*
X36929Y-27500D01*
X36639Y-27210D01*
X36548Y-27233D01*
X36481Y-27426D01*
X36492Y-27630D01*
X36548Y-27767D01*
X36639Y-27790D01*
X36929Y-27500D01*
X36929Y-27642D01*
X36710Y-27861D01*
X36733Y-27952D01*
X36926Y-28019D01*
X37130Y-28008D01*
X37267Y-27952D01*
X37275Y-27916D01*
X37290Y-27931D01*
X37292Y-27933D01*
X37290Y-27936D01*
X37001Y-28225D01*
X36896Y-28225D01*
X36703Y-28305D01*
X36555Y-28452D01*
X36475Y-28645D01*
X36475Y-28854D01*
X36555Y-29047D01*
X36702Y-29195D01*
X36842Y-29253D01*
X36733Y-29298D01*
X36710Y-29389D01*
X37000Y-29679D01*
X37290Y-29389D01*
X37267Y-29298D01*
X37148Y-29256D01*
X37297Y-29195D01*
X37445Y-29048D01*
X37525Y-28855D01*
X37525Y-28748D01*
X38152Y-28121D01*
X38242Y-28339D01*
X38411Y-28508D01*
X38631Y-28599D01*
X38869Y-28599D01*
X39089Y-28508D01*
X39258Y-28339D01*
X39349Y-28119D01*
X39349Y-27881D01*
X39258Y-27661D01*
X39097Y-27500D01*
X39258Y-27339D01*
X39349Y-27119D01*
X39349Y-26881D01*
X39258Y-26661D01*
X39182Y-26585D01*
X39241Y-26561D01*
X39311Y-26491D01*
X39349Y-26400D01*
X39349Y-26301D01*
X39350Y-26112D01*
X39350Y-31414D01*
X39239Y-31369D01*
X38988Y-31369D01*
X38762Y-31369D01*
X38530Y-31465D01*
X38352Y-31642D01*
X38260Y-31862D01*
X38195Y-31703D01*
X38048Y-31555D01*
X37914Y-31499D01*
X38047Y-31445D01*
X38195Y-31298D01*
X38268Y-31120D01*
X38300Y-31120D01*
X38421Y-31241D01*
X38634Y-31330D01*
X38865Y-31330D01*
X39078Y-31242D01*
X39241Y-31079D01*
X39330Y-30866D01*
X39330Y-30635D01*
X39323Y-30618D01*
X39323Y-29836D01*
X39312Y-29611D01*
X39246Y-29452D01*
X39150Y-29421D01*
X39079Y-29492D01*
X39079Y-29350D01*
X39048Y-29254D01*
X38836Y-29177D01*
X38611Y-29188D01*
X38452Y-29254D01*
X38421Y-29350D01*
X38750Y-29679D01*
X39079Y-29350D01*
X39079Y-29492D01*
X38821Y-29750D01*
X39150Y-30079D01*
X39246Y-30048D01*
X39323Y-29836D01*
X39323Y-30618D01*
X39242Y-30422D01*
X39079Y-30259D01*
X39048Y-30246D01*
X39079Y-30150D01*
X38750Y-29821D01*
X38679Y-29892D01*
X38679Y-29750D01*
X38350Y-29421D01*
X38254Y-29452D01*
X38177Y-29664D01*
X38188Y-29889D01*
X38254Y-30048D01*
X38350Y-30079D01*
X38679Y-29750D01*
X38679Y-29892D01*
X38421Y-30150D01*
X38451Y-30245D01*
X38422Y-30258D01*
X38300Y-30380D01*
X38000Y-30380D01*
X37858Y-30408D01*
X37757Y-30475D01*
X37646Y-30475D01*
X37519Y-30527D01*
X37519Y-29824D01*
X37508Y-29620D01*
X37452Y-29483D01*
X37361Y-29460D01*
X37071Y-29750D01*
X37361Y-30040D01*
X37452Y-30017D01*
X37519Y-29824D01*
X37519Y-30527D01*
X37453Y-30555D01*
X37305Y-30702D01*
X37290Y-30738D01*
X37290Y-30111D01*
X37000Y-29821D01*
X36929Y-29892D01*
X36929Y-29750D01*
X36639Y-29460D01*
X36548Y-29483D01*
X36481Y-29676D01*
X36492Y-29880D01*
X36548Y-30017D01*
X36639Y-30040D01*
X36929Y-29750D01*
X36929Y-29892D01*
X36710Y-30111D01*
X36733Y-30202D01*
X36926Y-30269D01*
X37130Y-30258D01*
X37267Y-30202D01*
X37290Y-30111D01*
X37290Y-30738D01*
X37225Y-30895D01*
X37225Y-31104D01*
X37305Y-31297D01*
X37452Y-31445D01*
X37585Y-31500D01*
X37453Y-31555D01*
X37305Y-31702D01*
X37225Y-31895D01*
X37225Y-32104D01*
X37254Y-32175D01*
X37025Y-32175D01*
X37025Y-31105D01*
X37025Y-30896D01*
X36945Y-30703D01*
X36798Y-30555D01*
X36605Y-30475D01*
X36396Y-30475D01*
X36203Y-30555D01*
X36055Y-30702D01*
X35975Y-30895D01*
X35975Y-31104D01*
X36055Y-31297D01*
X36202Y-31445D01*
X36342Y-31503D01*
X36233Y-31548D01*
X36210Y-31639D01*
X36500Y-31929D01*
X36790Y-31639D01*
X36767Y-31548D01*
X36648Y-31506D01*
X36797Y-31445D01*
X36945Y-31298D01*
X37025Y-31105D01*
X37025Y-32175D01*
X36983Y-32175D01*
X37019Y-32074D01*
X37008Y-31870D01*
X36952Y-31733D01*
X36861Y-31710D01*
X36606Y-31965D01*
X36571Y-32000D01*
X36500Y-32071D01*
X36429Y-32000D01*
X36394Y-31965D01*
X36139Y-31710D01*
X36048Y-31733D01*
X35981Y-31926D01*
X35992Y-32130D01*
X36010Y-32175D01*
X35483Y-32175D01*
X35519Y-32074D01*
X35508Y-31870D01*
X35452Y-31733D01*
X35361Y-31710D01*
X35106Y-31965D01*
X35071Y-32000D01*
X35000Y-32071D01*
X34929Y-32000D01*
X34894Y-31965D01*
X34639Y-31710D01*
X34548Y-31733D01*
X34503Y-31859D01*
X34452Y-31733D01*
X34361Y-31710D01*
X34106Y-31965D01*
X34071Y-32000D01*
X34000Y-32071D01*
X33929Y-32000D01*
X33894Y-31965D01*
X33639Y-31710D01*
X33548Y-31733D01*
X33503Y-31859D01*
X33452Y-31733D01*
X33361Y-31710D01*
X33106Y-31965D01*
X33071Y-32000D01*
X33000Y-32071D01*
X32929Y-32000D01*
X32894Y-31965D01*
X32639Y-31710D01*
X32548Y-31733D01*
X32503Y-31859D01*
X32452Y-31733D01*
X32361Y-31710D01*
X32106Y-31965D01*
X32071Y-32000D01*
X32000Y-32071D01*
X31929Y-32000D01*
X31894Y-31965D01*
X31639Y-31710D01*
X31548Y-31733D01*
X31503Y-31859D01*
X31452Y-31733D01*
X31361Y-31710D01*
X31106Y-31965D01*
X31071Y-32000D01*
X31000Y-32071D01*
X30929Y-32000D01*
X30894Y-31965D01*
X30639Y-31710D01*
X30548Y-31733D01*
X30503Y-31859D01*
X30452Y-31733D01*
X30361Y-31710D01*
X30106Y-31965D01*
X30071Y-32000D01*
X30000Y-32071D01*
X29929Y-32000D01*
X29894Y-31965D01*
X29639Y-31710D01*
X29548Y-31733D01*
X29503Y-31859D01*
X29452Y-31733D01*
X29361Y-31710D01*
X29106Y-31965D01*
X29071Y-32000D01*
X29000Y-32071D01*
X28929Y-32000D01*
X28894Y-31965D01*
X28639Y-31710D01*
X28548Y-31733D01*
X28503Y-31859D01*
X28452Y-31733D01*
X28361Y-31710D01*
X28106Y-31965D01*
X28071Y-32000D01*
X28000Y-32071D01*
X27929Y-32000D01*
X27894Y-31965D01*
X27639Y-31710D01*
X27548Y-31733D01*
X27503Y-31859D01*
X27452Y-31733D01*
X27361Y-31710D01*
X27106Y-31965D01*
X27071Y-32000D01*
X27000Y-32071D01*
X26929Y-32000D01*
X26894Y-31965D01*
X26639Y-31710D01*
X26548Y-31733D01*
X26524Y-31801D01*
X26524Y-31774D01*
X26524Y-31675D01*
X26486Y-31584D01*
X26416Y-31514D01*
X26382Y-31500D01*
X26416Y-31486D01*
X26486Y-31416D01*
X26524Y-31325D01*
X26524Y-31226D01*
X26524Y-31222D01*
X26555Y-31297D01*
X26702Y-31445D01*
X26842Y-31503D01*
X26733Y-31548D01*
X26710Y-31639D01*
X27000Y-31929D01*
X27290Y-31639D01*
X27267Y-31548D01*
X27148Y-31506D01*
X27297Y-31445D01*
X27445Y-31298D01*
X27500Y-31164D01*
X27555Y-31297D01*
X27702Y-31445D01*
X27842Y-31503D01*
X27733Y-31548D01*
X27710Y-31639D01*
X28000Y-31929D01*
X28290Y-31639D01*
X28267Y-31548D01*
X28148Y-31506D01*
X28297Y-31445D01*
X28445Y-31298D01*
X28500Y-31164D01*
X28555Y-31297D01*
X28702Y-31445D01*
X28842Y-31503D01*
X28733Y-31548D01*
X28710Y-31639D01*
X29000Y-31929D01*
X29290Y-31639D01*
X29267Y-31548D01*
X29148Y-31506D01*
X29297Y-31445D01*
X29445Y-31298D01*
X29500Y-31164D01*
X29555Y-31297D01*
X29702Y-31445D01*
X29842Y-31503D01*
X29733Y-31548D01*
X29710Y-31639D01*
X30000Y-31929D01*
X30290Y-31639D01*
X30267Y-31548D01*
X30148Y-31506D01*
X30297Y-31445D01*
X30445Y-31298D01*
X30500Y-31164D01*
X30555Y-31297D01*
X30702Y-31445D01*
X30842Y-31503D01*
X30733Y-31548D01*
X30710Y-31639D01*
X31000Y-31929D01*
X31290Y-31639D01*
X31267Y-31548D01*
X31148Y-31506D01*
X31297Y-31445D01*
X31445Y-31298D01*
X31500Y-31164D01*
X31555Y-31297D01*
X31702Y-31445D01*
X31842Y-31503D01*
X31733Y-31548D01*
X31710Y-31639D01*
X32000Y-31929D01*
X32290Y-31639D01*
X32267Y-31548D01*
X32148Y-31506D01*
X32297Y-31445D01*
X32445Y-31298D01*
X32500Y-31164D01*
X32555Y-31297D01*
X32702Y-31445D01*
X32842Y-31503D01*
X32733Y-31548D01*
X32710Y-31639D01*
X33000Y-31929D01*
X33290Y-31639D01*
X33267Y-31548D01*
X33148Y-31506D01*
X33297Y-31445D01*
X33445Y-31298D01*
X33500Y-31164D01*
X33555Y-31297D01*
X33702Y-31445D01*
X33842Y-31503D01*
X33733Y-31548D01*
X33710Y-31639D01*
X34000Y-31929D01*
X34290Y-31639D01*
X34267Y-31548D01*
X34148Y-31506D01*
X34297Y-31445D01*
X34445Y-31298D01*
X34500Y-31164D01*
X34555Y-31297D01*
X34702Y-31445D01*
X34842Y-31503D01*
X34733Y-31548D01*
X34710Y-31639D01*
X35000Y-31929D01*
X35290Y-31639D01*
X35267Y-31548D01*
X35148Y-31506D01*
X35297Y-31445D01*
X35445Y-31298D01*
X35525Y-31105D01*
X35525Y-30896D01*
X35445Y-30703D01*
X35298Y-30555D01*
X35164Y-30499D01*
X35297Y-30445D01*
X35445Y-30298D01*
X35525Y-30105D01*
X35525Y-29896D01*
X35445Y-29703D01*
X35370Y-29627D01*
X35370Y-29059D01*
X35465Y-28964D01*
X35549Y-28762D01*
X35549Y-28544D01*
X35549Y-28238D01*
X35465Y-28036D01*
X35311Y-27882D01*
X35109Y-27798D01*
X34891Y-27798D01*
X34689Y-27882D01*
X34535Y-28036D01*
X34500Y-28120D01*
X34465Y-28036D01*
X34311Y-27882D01*
X34109Y-27798D01*
X33891Y-27798D01*
X33689Y-27882D01*
X33535Y-28036D01*
X33500Y-28120D01*
X33465Y-28036D01*
X33311Y-27882D01*
X33109Y-27798D01*
X32891Y-27798D01*
X32689Y-27882D01*
X32535Y-28036D01*
X32500Y-28120D01*
X32465Y-28036D01*
X32311Y-27882D01*
X32109Y-27798D01*
X31891Y-27798D01*
X31689Y-27882D01*
X31535Y-28036D01*
X31500Y-28120D01*
X31465Y-28036D01*
X31311Y-27882D01*
X31109Y-27798D01*
X30891Y-27798D01*
X30689Y-27882D01*
X30535Y-28036D01*
X30500Y-28120D01*
X30465Y-28036D01*
X30311Y-27882D01*
X30185Y-27830D01*
X30500Y-27830D01*
X30525Y-27825D01*
X30546Y-27826D01*
X30581Y-27813D01*
X30626Y-27805D01*
X30645Y-27791D01*
X30668Y-27784D01*
X30700Y-27754D01*
X30733Y-27733D01*
X30745Y-27714D01*
X30764Y-27698D01*
X31415Y-26830D01*
X35750Y-26830D01*
X35876Y-26805D01*
X35877Y-26805D01*
X35983Y-26733D01*
X37733Y-24984D01*
X37733Y-24983D01*
X37780Y-24912D01*
X37804Y-24877D01*
X37805Y-24876D01*
X37829Y-24751D01*
X37830Y-24750D01*
X37830Y-23912D01*
X37945Y-23798D01*
X38025Y-23605D01*
X38025Y-23396D01*
X37945Y-23203D01*
X37798Y-23055D01*
X37664Y-22999D01*
X37797Y-22945D01*
X37945Y-22798D01*
X38025Y-22605D01*
X38025Y-22396D01*
X37945Y-22203D01*
X37798Y-22055D01*
X37605Y-21975D01*
X37396Y-21975D01*
X37203Y-22055D01*
X37055Y-22202D01*
X36975Y-22395D01*
X36975Y-22604D01*
X37055Y-22797D01*
X37202Y-22945D01*
X37335Y-23000D01*
X37203Y-23055D01*
X37055Y-23202D01*
X36975Y-23395D01*
X36975Y-23604D01*
X37055Y-23797D01*
X37170Y-23912D01*
X37170Y-24613D01*
X36775Y-25008D01*
X36775Y-24896D01*
X36695Y-24703D01*
X36548Y-24555D01*
X36414Y-24499D01*
X36547Y-24445D01*
X36695Y-24298D01*
X36775Y-24105D01*
X36775Y-23896D01*
X36695Y-23703D01*
X36580Y-23587D01*
X36580Y-23500D01*
X36580Y-23412D01*
X36695Y-23298D01*
X36775Y-23105D01*
X36775Y-22896D01*
X36695Y-22703D01*
X36548Y-22555D01*
X36407Y-22496D01*
X36517Y-22452D01*
X36540Y-22361D01*
X36250Y-22071D01*
X35960Y-22361D01*
X35983Y-22452D01*
X36101Y-22493D01*
X35953Y-22555D01*
X35805Y-22702D01*
X35725Y-22895D01*
X35725Y-23104D01*
X35752Y-23170D01*
X35498Y-23170D01*
X35525Y-23105D01*
X35525Y-22896D01*
X35445Y-22703D01*
X35298Y-22555D01*
X35157Y-22496D01*
X35267Y-22452D01*
X35290Y-22361D01*
X35000Y-22071D01*
X34710Y-22361D01*
X34733Y-22452D01*
X34851Y-22493D01*
X34703Y-22555D01*
X34555Y-22702D01*
X34499Y-22835D01*
X34445Y-22703D01*
X34298Y-22555D01*
X34157Y-22496D01*
X34267Y-22452D01*
X34290Y-22361D01*
X34000Y-22071D01*
X33710Y-22361D01*
X33733Y-22452D01*
X33851Y-22493D01*
X33703Y-22555D01*
X33555Y-22702D01*
X33499Y-22835D01*
X33445Y-22703D01*
X33298Y-22555D01*
X33157Y-22496D01*
X33267Y-22452D01*
X33290Y-22361D01*
X33000Y-22071D01*
X32710Y-22361D01*
X32733Y-22452D01*
X32851Y-22493D01*
X32703Y-22555D01*
X32555Y-22702D01*
X32499Y-22835D01*
X32445Y-22703D01*
X32298Y-22555D01*
X32157Y-22496D01*
X32267Y-22452D01*
X32290Y-22361D01*
X32000Y-22071D01*
X31710Y-22361D01*
X31733Y-22452D01*
X31851Y-22493D01*
X31703Y-22555D01*
X31555Y-22702D01*
X31499Y-22835D01*
X31445Y-22703D01*
X31298Y-22555D01*
X31157Y-22496D01*
X31267Y-22452D01*
X31290Y-22361D01*
X31000Y-22071D01*
X30710Y-22361D01*
X30733Y-22452D01*
X30851Y-22493D01*
X30703Y-22555D01*
X30555Y-22702D01*
X30499Y-22835D01*
X30445Y-22703D01*
X30298Y-22555D01*
X30157Y-22496D01*
X30267Y-22452D01*
X30290Y-22361D01*
X30000Y-22071D01*
X29710Y-22361D01*
X29733Y-22452D01*
X29851Y-22493D01*
X29703Y-22555D01*
X29555Y-22702D01*
X29499Y-22835D01*
X29445Y-22703D01*
X29298Y-22555D01*
X29157Y-22496D01*
X29267Y-22452D01*
X29290Y-22361D01*
X29000Y-22071D01*
X28710Y-22361D01*
X28733Y-22452D01*
X28851Y-22493D01*
X28703Y-22555D01*
X28555Y-22702D01*
X28499Y-22835D01*
X28445Y-22703D01*
X28298Y-22555D01*
X28157Y-22496D01*
X28267Y-22452D01*
X28290Y-22361D01*
X28000Y-22071D01*
X27710Y-22361D01*
X27733Y-22452D01*
X27851Y-22493D01*
X27703Y-22555D01*
X27555Y-22702D01*
X27499Y-22835D01*
X27445Y-22703D01*
X27298Y-22555D01*
X27157Y-22496D01*
X27267Y-22452D01*
X27290Y-22361D01*
X27000Y-22071D01*
X26710Y-22361D01*
X26733Y-22452D01*
X26851Y-22493D01*
X26703Y-22555D01*
X26555Y-22702D01*
X26524Y-22776D01*
X26524Y-22676D01*
X26486Y-22584D01*
X26416Y-22514D01*
X26382Y-22499D01*
X26416Y-22486D01*
X26486Y-22416D01*
X26524Y-22325D01*
X26524Y-22226D01*
X26524Y-22208D01*
X26548Y-22267D01*
X26639Y-22290D01*
X26894Y-22035D01*
X26929Y-22000D01*
X27000Y-21929D01*
X27071Y-22000D01*
X27106Y-22035D01*
X27361Y-22290D01*
X27452Y-22267D01*
X27496Y-22140D01*
X27548Y-22267D01*
X27639Y-22290D01*
X27894Y-22035D01*
X27929Y-22000D01*
X28000Y-21929D01*
X28071Y-22000D01*
X28106Y-22035D01*
X28361Y-22290D01*
X28452Y-22267D01*
X28496Y-22140D01*
X28548Y-22267D01*
X28639Y-22290D01*
X28894Y-22035D01*
X28929Y-22000D01*
X29000Y-21929D01*
X29071Y-22000D01*
X29106Y-22035D01*
X29361Y-22290D01*
X29452Y-22267D01*
X29496Y-22140D01*
X29548Y-22267D01*
X29639Y-22290D01*
X29894Y-22035D01*
X29929Y-22000D01*
X30000Y-21929D01*
X30071Y-22000D01*
X30106Y-22035D01*
X30361Y-22290D01*
X30452Y-22267D01*
X30496Y-22140D01*
X30548Y-22267D01*
X30639Y-22290D01*
X30894Y-22035D01*
X30929Y-22000D01*
X31000Y-21929D01*
X31071Y-22000D01*
X31106Y-22035D01*
X31361Y-22290D01*
X31452Y-22267D01*
X31496Y-22140D01*
X31548Y-22267D01*
X31639Y-22290D01*
X31894Y-22035D01*
X31929Y-22000D01*
X32000Y-21929D01*
X32071Y-22000D01*
X32106Y-22035D01*
X32361Y-22290D01*
X32452Y-22267D01*
X32496Y-22140D01*
X32548Y-22267D01*
X32639Y-22290D01*
X32894Y-22035D01*
X32929Y-22000D01*
X33000Y-21929D01*
X33071Y-22000D01*
X33106Y-22035D01*
X33361Y-22290D01*
X33452Y-22267D01*
X33496Y-22140D01*
X33548Y-22267D01*
X33639Y-22290D01*
X33894Y-22035D01*
X33929Y-22000D01*
X34000Y-21929D01*
X34071Y-22000D01*
X34106Y-22035D01*
X34361Y-22290D01*
X34452Y-22267D01*
X34496Y-22140D01*
X34548Y-22267D01*
X34639Y-22290D01*
X34894Y-22035D01*
X34929Y-22000D01*
X35000Y-21929D01*
X35071Y-22000D01*
X35106Y-22035D01*
X35361Y-22290D01*
X35452Y-22267D01*
X35519Y-22074D01*
X35508Y-21870D01*
X35489Y-21825D01*
X35766Y-21825D01*
X35731Y-21926D01*
X35742Y-22130D01*
X35798Y-22267D01*
X35889Y-22290D01*
X36144Y-22035D01*
X36179Y-22000D01*
X36250Y-21929D01*
X36321Y-22000D01*
X36356Y-22035D01*
X36611Y-22290D01*
X36702Y-22267D01*
X36769Y-22074D01*
X36758Y-21870D01*
X36739Y-21825D01*
X38285Y-21825D01*
X38276Y-21850D01*
X38323Y-21950D01*
X38900Y-21950D01*
X38950Y-21950D01*
X39050Y-21950D01*
X39050Y-22050D01*
X39050Y-22100D01*
X39050Y-22574D01*
X39150Y-22636D01*
X39390Y-22568D01*
X39425Y-22540D01*
X39425Y-31445D01*
X39425Y-31445D01*
G37*
G54D23*
X39425Y-31445D02*
X39350Y-31414D01*
X39350Y-26112D01*
X39350Y-25888D01*
X39349Y-25699D01*
X39349Y-25600D01*
X39330Y-25554D01*
X39330Y-23366D01*
X39330Y-23135D01*
X39242Y-22922D01*
X39079Y-22759D01*
X38950Y-22705D01*
X38950Y-22574D01*
X38950Y-22050D01*
X38323Y-22050D01*
X38276Y-22150D01*
X38294Y-22196D01*
X38415Y-22413D01*
X38610Y-22568D01*
X38850Y-22636D01*
X38950Y-22574D01*
X38950Y-22705D01*
X38866Y-22670D01*
X38635Y-22670D01*
X38422Y-22758D01*
X38259Y-22921D01*
X38170Y-23134D01*
X38170Y-23365D01*
X38258Y-23578D01*
X38421Y-23741D01*
X38452Y-23753D01*
X38452Y-23754D01*
X38421Y-23850D01*
X38750Y-24179D01*
X39079Y-23850D01*
X39048Y-23754D01*
X39078Y-23742D01*
X39241Y-23579D01*
X39330Y-23366D01*
X39330Y-25554D01*
X39323Y-25537D01*
X39323Y-24336D01*
X39312Y-24111D01*
X39246Y-23952D01*
X39150Y-23921D01*
X38821Y-24250D01*
X39150Y-24579D01*
X39246Y-24548D01*
X39323Y-24336D01*
X39323Y-25537D01*
X39311Y-25509D01*
X39241Y-25439D01*
X39149Y-25401D01*
X39079Y-25400D01*
X39079Y-24650D01*
X38750Y-24321D01*
X38679Y-24392D01*
X38679Y-24250D01*
X38350Y-23921D01*
X38254Y-23952D01*
X38177Y-24164D01*
X38188Y-24389D01*
X38254Y-24548D01*
X38350Y-24579D01*
X38679Y-24250D01*
X38679Y-24392D01*
X38421Y-24650D01*
X38452Y-24746D01*
X38664Y-24823D01*
X38889Y-24812D01*
X39048Y-24746D01*
X39079Y-24650D01*
X39079Y-25400D01*
X38862Y-25400D01*
X38800Y-25462D01*
X38800Y-25950D01*
X39288Y-25950D01*
X39350Y-25888D01*
X39350Y-26112D01*
X39288Y-26050D01*
X38850Y-26050D01*
X38800Y-26050D01*
X38700Y-26050D01*
X38700Y-25950D01*
X38700Y-25462D01*
X38638Y-25400D01*
X38351Y-25401D01*
X38259Y-25439D01*
X38189Y-25509D01*
X38151Y-25600D01*
X38151Y-25699D01*
X38150Y-25888D01*
X38212Y-25950D01*
X38700Y-25950D01*
X38700Y-26050D01*
X38650Y-26050D01*
X38212Y-26050D01*
X38150Y-26112D01*
X38151Y-26301D01*
X38151Y-26400D01*
X38189Y-26491D01*
X38259Y-26561D01*
X38317Y-26585D01*
X38242Y-26661D01*
X38151Y-26881D01*
X38151Y-27075D01*
X37525Y-27701D01*
X37525Y-26605D01*
X37525Y-26396D01*
X37445Y-26203D01*
X37298Y-26055D01*
X37105Y-25975D01*
X36896Y-25975D01*
X36703Y-26055D01*
X36555Y-26202D01*
X36475Y-26395D01*
X36475Y-26604D01*
X36555Y-26797D01*
X36702Y-26945D01*
X36842Y-27003D01*
X36733Y-27048D01*
X36710Y-27139D01*
X37000Y-27429D01*
X37290Y-27139D01*
X37267Y-27048D01*
X37148Y-27006D01*
X37297Y-26945D01*
X37445Y-26798D01*
X37525Y-26605D01*
X37525Y-27701D01*
X37519Y-27707D01*
X37433Y-27792D01*
X37416Y-27775D01*
X37452Y-27767D01*
X37519Y-27574D01*
X37508Y-27370D01*
X37452Y-27233D01*
X37361Y-27210D01*
X37106Y-27465D01*
X37071Y-27500D01*
X37000Y-27571D01*
X36965Y-27606D01*
X36929Y-27642D01*
X36929Y-27500D01*
X36639Y-27210D01*
X36548Y-27233D01*
X36481Y-27426D01*
X36492Y-27630D01*
X36548Y-27767D01*
X36639Y-27790D01*
X36929Y-27500D01*
X36929Y-27642D01*
X36710Y-27861D01*
X36733Y-27952D01*
X36926Y-28019D01*
X37130Y-28008D01*
X37267Y-27952D01*
X37275Y-27916D01*
X37290Y-27931D01*
X37292Y-27933D01*
X37290Y-27936D01*
X37001Y-28225D01*
X36896Y-28225D01*
X36703Y-28305D01*
X36555Y-28452D01*
X36475Y-28645D01*
X36475Y-28854D01*
X36555Y-29047D01*
X36702Y-29195D01*
X36842Y-29253D01*
X36733Y-29298D01*
X36710Y-29389D01*
X37000Y-29679D01*
X37290Y-29389D01*
X37267Y-29298D01*
X37148Y-29256D01*
X37297Y-29195D01*
X37445Y-29048D01*
X37525Y-28855D01*
X37525Y-28748D01*
X38152Y-28121D01*
X38242Y-28339D01*
X38411Y-28508D01*
X38631Y-28599D01*
X38869Y-28599D01*
X39089Y-28508D01*
X39258Y-28339D01*
X39349Y-28119D01*
X39349Y-27881D01*
X39258Y-27661D01*
X39097Y-27500D01*
X39258Y-27339D01*
X39349Y-27119D01*
X39349Y-26881D01*
X39258Y-26661D01*
X39182Y-26585D01*
X39241Y-26561D01*
X39311Y-26491D01*
X39349Y-26400D01*
X39349Y-26301D01*
X39350Y-26112D01*
X39350Y-31414D01*
X39239Y-31369D01*
X38988Y-31369D01*
X38762Y-31369D01*
X38530Y-31465D01*
X38352Y-31642D01*
X38260Y-31862D01*
X38195Y-31703D01*
X38048Y-31555D01*
X37914Y-31499D01*
X38047Y-31445D01*
X38195Y-31298D01*
X38268Y-31120D01*
X38300Y-31120D01*
X38421Y-31241D01*
X38634Y-31330D01*
X38865Y-31330D01*
X39078Y-31242D01*
X39241Y-31079D01*
X39330Y-30866D01*
X39330Y-30635D01*
X39323Y-30618D01*
X39323Y-29836D01*
X39312Y-29611D01*
X39246Y-29452D01*
X39150Y-29421D01*
X39079Y-29492D01*
X39079Y-29350D01*
X39048Y-29254D01*
X38836Y-29177D01*
X38611Y-29188D01*
X38452Y-29254D01*
X38421Y-29350D01*
X38750Y-29679D01*
X39079Y-29350D01*
X39079Y-29492D01*
X38821Y-29750D01*
X39150Y-30079D01*
X39246Y-30048D01*
X39323Y-29836D01*
X39323Y-30618D01*
X39242Y-30422D01*
X39079Y-30259D01*
X39048Y-30246D01*
X39079Y-30150D01*
X38750Y-29821D01*
X38679Y-29892D01*
X38679Y-29750D01*
X38350Y-29421D01*
X38254Y-29452D01*
X38177Y-29664D01*
X38188Y-29889D01*
X38254Y-30048D01*
X38350Y-30079D01*
X38679Y-29750D01*
X38679Y-29892D01*
X38421Y-30150D01*
X38451Y-30245D01*
X38422Y-30258D01*
X38300Y-30380D01*
X38000Y-30380D01*
X37858Y-30408D01*
X37757Y-30475D01*
X37646Y-30475D01*
X37519Y-30527D01*
X37519Y-29824D01*
X37508Y-29620D01*
X37452Y-29483D01*
X37361Y-29460D01*
X37071Y-29750D01*
X37361Y-30040D01*
X37452Y-30017D01*
X37519Y-29824D01*
X37519Y-30527D01*
X37453Y-30555D01*
X37305Y-30702D01*
X37290Y-30738D01*
X37290Y-30111D01*
X37000Y-29821D01*
X36929Y-29892D01*
X36929Y-29750D01*
X36639Y-29460D01*
X36548Y-29483D01*
X36481Y-29676D01*
X36492Y-29880D01*
X36548Y-30017D01*
X36639Y-30040D01*
X36929Y-29750D01*
X36929Y-29892D01*
X36710Y-30111D01*
X36733Y-30202D01*
X36926Y-30269D01*
X37130Y-30258D01*
X37267Y-30202D01*
X37290Y-30111D01*
X37290Y-30738D01*
X37225Y-30895D01*
X37225Y-31104D01*
X37305Y-31297D01*
X37452Y-31445D01*
X37585Y-31500D01*
X37453Y-31555D01*
X37305Y-31702D01*
X37225Y-31895D01*
X37225Y-32104D01*
X37254Y-32175D01*
X37025Y-32175D01*
X37025Y-31105D01*
X37025Y-30896D01*
X36945Y-30703D01*
X36798Y-30555D01*
X36605Y-30475D01*
X36396Y-30475D01*
X36203Y-30555D01*
X36055Y-30702D01*
X35975Y-30895D01*
X35975Y-31104D01*
X36055Y-31297D01*
X36202Y-31445D01*
X36342Y-31503D01*
X36233Y-31548D01*
X36210Y-31639D01*
X36500Y-31929D01*
X36790Y-31639D01*
X36767Y-31548D01*
X36648Y-31506D01*
X36797Y-31445D01*
X36945Y-31298D01*
X37025Y-31105D01*
X37025Y-32175D01*
X36983Y-32175D01*
X37019Y-32074D01*
X37008Y-31870D01*
X36952Y-31733D01*
X36861Y-31710D01*
X36606Y-31965D01*
X36571Y-32000D01*
X36500Y-32071D01*
X36429Y-32000D01*
X36394Y-31965D01*
X36139Y-31710D01*
X36048Y-31733D01*
X35981Y-31926D01*
X35992Y-32130D01*
X36010Y-32175D01*
X35483Y-32175D01*
X35519Y-32074D01*
X35508Y-31870D01*
X35452Y-31733D01*
X35361Y-31710D01*
X35106Y-31965D01*
X35071Y-32000D01*
X35000Y-32071D01*
X34929Y-32000D01*
X34894Y-31965D01*
X34639Y-31710D01*
X34548Y-31733D01*
X34503Y-31859D01*
X34452Y-31733D01*
X34361Y-31710D01*
X34106Y-31965D01*
X34071Y-32000D01*
X34000Y-32071D01*
X33929Y-32000D01*
X33894Y-31965D01*
X33639Y-31710D01*
X33548Y-31733D01*
X33503Y-31859D01*
X33452Y-31733D01*
X33361Y-31710D01*
X33106Y-31965D01*
X33071Y-32000D01*
X33000Y-32071D01*
X32929Y-32000D01*
X32894Y-31965D01*
X32639Y-31710D01*
X32548Y-31733D01*
X32503Y-31859D01*
X32452Y-31733D01*
X32361Y-31710D01*
X32106Y-31965D01*
X32071Y-32000D01*
X32000Y-32071D01*
X31929Y-32000D01*
X31894Y-31965D01*
X31639Y-31710D01*
X31548Y-31733D01*
X31503Y-31859D01*
X31452Y-31733D01*
X31361Y-31710D01*
X31106Y-31965D01*
X31071Y-32000D01*
X31000Y-32071D01*
X30929Y-32000D01*
X30894Y-31965D01*
X30639Y-31710D01*
X30548Y-31733D01*
X30503Y-31859D01*
X30452Y-31733D01*
X30361Y-31710D01*
X30106Y-31965D01*
X30071Y-32000D01*
X30000Y-32071D01*
X29929Y-32000D01*
X29894Y-31965D01*
X29639Y-31710D01*
X29548Y-31733D01*
X29503Y-31859D01*
X29452Y-31733D01*
X29361Y-31710D01*
X29106Y-31965D01*
X29071Y-32000D01*
X29000Y-32071D01*
X28929Y-32000D01*
X28894Y-31965D01*
X28639Y-31710D01*
X28548Y-31733D01*
X28503Y-31859D01*
X28452Y-31733D01*
X28361Y-31710D01*
X28106Y-31965D01*
X28071Y-32000D01*
X28000Y-32071D01*
X27929Y-32000D01*
X27894Y-31965D01*
X27639Y-31710D01*
X27548Y-31733D01*
X27503Y-31859D01*
X27452Y-31733D01*
X27361Y-31710D01*
X27106Y-31965D01*
X27071Y-32000D01*
X27000Y-32071D01*
X26929Y-32000D01*
X26894Y-31965D01*
X26639Y-31710D01*
X26548Y-31733D01*
X26524Y-31801D01*
X26524Y-31774D01*
X26524Y-31675D01*
X26486Y-31584D01*
X26416Y-31514D01*
X26382Y-31500D01*
X26416Y-31486D01*
X26486Y-31416D01*
X26524Y-31325D01*
X26524Y-31226D01*
X26524Y-31222D01*
X26555Y-31297D01*
X26702Y-31445D01*
X26842Y-31503D01*
X26733Y-31548D01*
X26710Y-31639D01*
X27000Y-31929D01*
X27290Y-31639D01*
X27267Y-31548D01*
X27148Y-31506D01*
X27297Y-31445D01*
X27445Y-31298D01*
X27500Y-31164D01*
X27555Y-31297D01*
X27702Y-31445D01*
X27842Y-31503D01*
X27733Y-31548D01*
X27710Y-31639D01*
X28000Y-31929D01*
X28290Y-31639D01*
X28267Y-31548D01*
X28148Y-31506D01*
X28297Y-31445D01*
X28445Y-31298D01*
X28500Y-31164D01*
X28555Y-31297D01*
X28702Y-31445D01*
X28842Y-31503D01*
X28733Y-31548D01*
X28710Y-31639D01*
X29000Y-31929D01*
X29290Y-31639D01*
X29267Y-31548D01*
X29148Y-31506D01*
X29297Y-31445D01*
X29445Y-31298D01*
X29500Y-31164D01*
X29555Y-31297D01*
X29702Y-31445D01*
X29842Y-31503D01*
X29733Y-31548D01*
X29710Y-31639D01*
X30000Y-31929D01*
X30290Y-31639D01*
X30267Y-31548D01*
X30148Y-31506D01*
X30297Y-31445D01*
X30445Y-31298D01*
X30500Y-31164D01*
X30555Y-31297D01*
X30702Y-31445D01*
X30842Y-31503D01*
X30733Y-31548D01*
X30710Y-31639D01*
X31000Y-31929D01*
X31290Y-31639D01*
X31267Y-31548D01*
X31148Y-31506D01*
X31297Y-31445D01*
X31445Y-31298D01*
X31500Y-31164D01*
X31555Y-31297D01*
X31702Y-31445D01*
X31842Y-31503D01*
X31733Y-31548D01*
X31710Y-31639D01*
X32000Y-31929D01*
X32290Y-31639D01*
X32267Y-31548D01*
X32148Y-31506D01*
X32297Y-31445D01*
X32445Y-31298D01*
X32500Y-31164D01*
X32555Y-31297D01*
X32702Y-31445D01*
X32842Y-31503D01*
X32733Y-31548D01*
X32710Y-31639D01*
X33000Y-31929D01*
X33290Y-31639D01*
X33267Y-31548D01*
X33148Y-31506D01*
X33297Y-31445D01*
X33445Y-31298D01*
X33500Y-31164D01*
X33555Y-31297D01*
X33702Y-31445D01*
X33842Y-31503D01*
X33733Y-31548D01*
X33710Y-31639D01*
X34000Y-31929D01*
X34290Y-31639D01*
X34267Y-31548D01*
X34148Y-31506D01*
X34297Y-31445D01*
X34445Y-31298D01*
X34500Y-31164D01*
X34555Y-31297D01*
X34702Y-31445D01*
X34842Y-31503D01*
X34733Y-31548D01*
X34710Y-31639D01*
X35000Y-31929D01*
X35290Y-31639D01*
X35267Y-31548D01*
X35148Y-31506D01*
X35297Y-31445D01*
X35445Y-31298D01*
X35525Y-31105D01*
X35525Y-30896D01*
X35445Y-30703D01*
X35298Y-30555D01*
X35164Y-30499D01*
X35297Y-30445D01*
X35445Y-30298D01*
X35525Y-30105D01*
X35525Y-29896D01*
X35445Y-29703D01*
X35370Y-29627D01*
X35370Y-29059D01*
X35465Y-28964D01*
X35549Y-28762D01*
X35549Y-28544D01*
X35549Y-28238D01*
X35465Y-28036D01*
X35311Y-27882D01*
X35109Y-27798D01*
X34891Y-27798D01*
X34689Y-27882D01*
X34535Y-28036D01*
X34500Y-28120D01*
X34465Y-28036D01*
X34311Y-27882D01*
X34109Y-27798D01*
X33891Y-27798D01*
X33689Y-27882D01*
X33535Y-28036D01*
X33500Y-28120D01*
X33465Y-28036D01*
X33311Y-27882D01*
X33109Y-27798D01*
X32891Y-27798D01*
X32689Y-27882D01*
X32535Y-28036D01*
X32500Y-28120D01*
X32465Y-28036D01*
X32311Y-27882D01*
X32109Y-27798D01*
X31891Y-27798D01*
X31689Y-27882D01*
X31535Y-28036D01*
X31500Y-28120D01*
X31465Y-28036D01*
X31311Y-27882D01*
X31109Y-27798D01*
X30891Y-27798D01*
X30689Y-27882D01*
X30535Y-28036D01*
X30500Y-28120D01*
X30465Y-28036D01*
X30311Y-27882D01*
X30185Y-27830D01*
X30500Y-27830D01*
X30525Y-27825D01*
X30546Y-27826D01*
X30581Y-27813D01*
X30626Y-27805D01*
X30645Y-27791D01*
X30668Y-27784D01*
X30700Y-27754D01*
X30733Y-27733D01*
X30745Y-27714D01*
X30764Y-27698D01*
X31415Y-26830D01*
X35750Y-26830D01*
X35876Y-26805D01*
X35877Y-26805D01*
X35983Y-26733D01*
X37733Y-24984D01*
X37733Y-24983D01*
X37780Y-24912D01*
X37804Y-24877D01*
X37805Y-24876D01*
X37829Y-24751D01*
X37830Y-24750D01*
X37830Y-23912D01*
X37945Y-23798D01*
X38025Y-23605D01*
X38025Y-23396D01*
X37945Y-23203D01*
X37798Y-23055D01*
X37664Y-22999D01*
X37797Y-22945D01*
X37945Y-22798D01*
X38025Y-22605D01*
X38025Y-22396D01*
X37945Y-22203D01*
X37798Y-22055D01*
X37605Y-21975D01*
X37396Y-21975D01*
X37203Y-22055D01*
X37055Y-22202D01*
X36975Y-22395D01*
X36975Y-22604D01*
X37055Y-22797D01*
X37202Y-22945D01*
X37335Y-23000D01*
X37203Y-23055D01*
X37055Y-23202D01*
X36975Y-23395D01*
X36975Y-23604D01*
X37055Y-23797D01*
X37170Y-23912D01*
X37170Y-24613D01*
X36775Y-25008D01*
X36775Y-24896D01*
X36695Y-24703D01*
X36548Y-24555D01*
X36414Y-24499D01*
X36547Y-24445D01*
X36695Y-24298D01*
X36775Y-24105D01*
X36775Y-23896D01*
X36695Y-23703D01*
X36580Y-23587D01*
X36580Y-23500D01*
X36580Y-23412D01*
X36695Y-23298D01*
X36775Y-23105D01*
X36775Y-22896D01*
X36695Y-22703D01*
X36548Y-22555D01*
X36407Y-22496D01*
X36517Y-22452D01*
X36540Y-22361D01*
X36250Y-22071D01*
X35960Y-22361D01*
X35983Y-22452D01*
X36101Y-22493D01*
X35953Y-22555D01*
X35805Y-22702D01*
X35725Y-22895D01*
X35725Y-23104D01*
X35752Y-23170D01*
X35498Y-23170D01*
X35525Y-23105D01*
X35525Y-22896D01*
X35445Y-22703D01*
X35298Y-22555D01*
X35157Y-22496D01*
X35267Y-22452D01*
X35290Y-22361D01*
X35000Y-22071D01*
X34710Y-22361D01*
X34733Y-22452D01*
X34851Y-22493D01*
X34703Y-22555D01*
X34555Y-22702D01*
X34499Y-22835D01*
X34445Y-22703D01*
X34298Y-22555D01*
X34157Y-22496D01*
X34267Y-22452D01*
X34290Y-22361D01*
X34000Y-22071D01*
X33710Y-22361D01*
X33733Y-22452D01*
X33851Y-22493D01*
X33703Y-22555D01*
X33555Y-22702D01*
X33499Y-22835D01*
X33445Y-22703D01*
X33298Y-22555D01*
X33157Y-22496D01*
X33267Y-22452D01*
X33290Y-22361D01*
X33000Y-22071D01*
X32710Y-22361D01*
X32733Y-22452D01*
X32851Y-22493D01*
X32703Y-22555D01*
X32555Y-22702D01*
X32499Y-22835D01*
X32445Y-22703D01*
X32298Y-22555D01*
X32157Y-22496D01*
X32267Y-22452D01*
X32290Y-22361D01*
X32000Y-22071D01*
X31710Y-22361D01*
X31733Y-22452D01*
X31851Y-22493D01*
X31703Y-22555D01*
X31555Y-22702D01*
X31499Y-22835D01*
X31445Y-22703D01*
X31298Y-22555D01*
X31157Y-22496D01*
X31267Y-22452D01*
X31290Y-22361D01*
X31000Y-22071D01*
X30710Y-22361D01*
X30733Y-22452D01*
X30851Y-22493D01*
X30703Y-22555D01*
X30555Y-22702D01*
X30499Y-22835D01*
X30445Y-22703D01*
X30298Y-22555D01*
X30157Y-22496D01*
X30267Y-22452D01*
X30290Y-22361D01*
X30000Y-22071D01*
X29710Y-22361D01*
X29733Y-22452D01*
X29851Y-22493D01*
X29703Y-22555D01*
X29555Y-22702D01*
X29499Y-22835D01*
X29445Y-22703D01*
X29298Y-22555D01*
X29157Y-22496D01*
X29267Y-22452D01*
X29290Y-22361D01*
X29000Y-22071D01*
X28710Y-22361D01*
X28733Y-22452D01*
X28851Y-22493D01*
X28703Y-22555D01*
X28555Y-22702D01*
X28499Y-22835D01*
X28445Y-22703D01*
X28298Y-22555D01*
X28157Y-22496D01*
X28267Y-22452D01*
X28290Y-22361D01*
X28000Y-22071D01*
X27710Y-22361D01*
X27733Y-22452D01*
X27851Y-22493D01*
X27703Y-22555D01*
X27555Y-22702D01*
X27499Y-22835D01*
X27445Y-22703D01*
X27298Y-22555D01*
X27157Y-22496D01*
X27267Y-22452D01*
X27290Y-22361D01*
X27000Y-22071D01*
X26710Y-22361D01*
X26733Y-22452D01*
X26851Y-22493D01*
X26703Y-22555D01*
X26555Y-22702D01*
X26524Y-22776D01*
X26524Y-22676D01*
X26486Y-22584D01*
X26416Y-22514D01*
X26382Y-22499D01*
X26416Y-22486D01*
X26486Y-22416D01*
X26524Y-22325D01*
X26524Y-22226D01*
X26524Y-22208D01*
X26548Y-22267D01*
X26639Y-22290D01*
X26894Y-22035D01*
X26929Y-22000D01*
X27000Y-21929D01*
X27071Y-22000D01*
X27106Y-22035D01*
X27361Y-22290D01*
X27452Y-22267D01*
X27496Y-22140D01*
X27548Y-22267D01*
X27639Y-22290D01*
X27894Y-22035D01*
X27929Y-22000D01*
X28000Y-21929D01*
X28071Y-22000D01*
X28106Y-22035D01*
X28361Y-22290D01*
X28452Y-22267D01*
X28496Y-22140D01*
X28548Y-22267D01*
X28639Y-22290D01*
X28894Y-22035D01*
X28929Y-22000D01*
X29000Y-21929D01*
X29071Y-22000D01*
X29106Y-22035D01*
X29361Y-22290D01*
X29452Y-22267D01*
X29496Y-22140D01*
X29548Y-22267D01*
X29639Y-22290D01*
X29894Y-22035D01*
X29929Y-22000D01*
X30000Y-21929D01*
X30071Y-22000D01*
X30106Y-22035D01*
X30361Y-22290D01*
X30452Y-22267D01*
X30496Y-22140D01*
X30548Y-22267D01*
X30639Y-22290D01*
X30894Y-22035D01*
X30929Y-22000D01*
X31000Y-21929D01*
X31071Y-22000D01*
X31106Y-22035D01*
X31361Y-22290D01*
X31452Y-22267D01*
X31496Y-22140D01*
X31548Y-22267D01*
X31639Y-22290D01*
X31894Y-22035D01*
X31929Y-22000D01*
X32000Y-21929D01*
X32071Y-22000D01*
X32106Y-22035D01*
X32361Y-22290D01*
X32452Y-22267D01*
X32496Y-22140D01*
X32548Y-22267D01*
X32639Y-22290D01*
X32894Y-22035D01*
X32929Y-22000D01*
X33000Y-21929D01*
X33071Y-22000D01*
X33106Y-22035D01*
X33361Y-22290D01*
X33452Y-22267D01*
X33496Y-22140D01*
X33548Y-22267D01*
X33639Y-22290D01*
X33894Y-22035D01*
X33929Y-22000D01*
X34000Y-21929D01*
X34071Y-22000D01*
X34106Y-22035D01*
X34361Y-22290D01*
X34452Y-22267D01*
X34496Y-22140D01*
X34548Y-22267D01*
X34639Y-22290D01*
X34894Y-22035D01*
X34929Y-22000D01*
X35000Y-21929D01*
X35071Y-22000D01*
X35106Y-22035D01*
X35361Y-22290D01*
X35452Y-22267D01*
X35519Y-22074D01*
X35508Y-21870D01*
X35489Y-21825D01*
X35766Y-21825D01*
X35731Y-21926D01*
X35742Y-22130D01*
X35798Y-22267D01*
X35889Y-22290D01*
X36144Y-22035D01*
X36179Y-22000D01*
X36250Y-21929D01*
X36321Y-22000D01*
X36356Y-22035D01*
X36611Y-22290D01*
X36702Y-22267D01*
X36769Y-22074D01*
X36758Y-21870D01*
X36739Y-21825D01*
X38285Y-21825D01*
X38276Y-21850D01*
X38323Y-21950D01*
X38900Y-21950D01*
X38950Y-21950D01*
X39050Y-21950D01*
X39050Y-22050D01*
X39050Y-22100D01*
X39050Y-22574D01*
X39150Y-22636D01*
X39390Y-22568D01*
X39425Y-22540D01*
X39425Y-31445D01*
M02*
