G04 (created by PCBNEW-RS274X (2012-01-19 BZR 3256)-stable) date 1/1/2013 6:43:37 PM*
G01*
G70*
G90*
%MOIN*%
G04 Gerber Fmt 3.4, Leading zero omitted, Abs format*
%FSLAX34Y34*%
G04 APERTURE LIST*
%ADD10C,0.006000*%
%ADD11R,0.070000X0.070000*%
%ADD12C,0.070000*%
%ADD13O,0.098400X0.078700*%
%ADD14R,0.055000X0.055000*%
%ADD15C,0.055000*%
%ADD16R,0.062000X0.090000*%
%ADD17O,0.062000X0.090000*%
%ADD18C,0.066000*%
%ADD19C,0.035000*%
%ADD20C,0.024000*%
%ADD21C,0.016000*%
%ADD22C,0.010000*%
G04 APERTURE END LIST*
G54D10*
G54D11*
X38750Y-26000D03*
G54D12*
X38750Y-27000D03*
X38750Y-28000D03*
G54D13*
X39000Y-32000D03*
X39000Y-22000D03*
G54D14*
X24000Y-28500D03*
G54D15*
X24000Y-27500D03*
X24000Y-26500D03*
X24000Y-25500D03*
G54D14*
X24000Y-22000D03*
G54D15*
X24000Y-23000D03*
X24000Y-24000D03*
G54D14*
X24000Y-32000D03*
G54D15*
X24000Y-31000D03*
X24000Y-30000D03*
G54D14*
X26000Y-30000D03*
G54D15*
X27000Y-30000D03*
X28000Y-30000D03*
X29000Y-30000D03*
X30000Y-30000D03*
X31000Y-30000D03*
X32000Y-30000D03*
X33000Y-30000D03*
X34000Y-30000D03*
X35000Y-30000D03*
G54D14*
X26000Y-24000D03*
G54D15*
X27000Y-24000D03*
X28000Y-24000D03*
X29000Y-24000D03*
X30000Y-24000D03*
X31000Y-24000D03*
X32000Y-24000D03*
X33000Y-24000D03*
X34000Y-24000D03*
X35000Y-24000D03*
G54D14*
X26000Y-23000D03*
G54D15*
X27000Y-23000D03*
X28000Y-23000D03*
X29000Y-23000D03*
X30000Y-23000D03*
X31000Y-23000D03*
X32000Y-23000D03*
X33000Y-23000D03*
X34000Y-23000D03*
X35000Y-23000D03*
G54D14*
X26000Y-31000D03*
G54D15*
X27000Y-31000D03*
X28000Y-31000D03*
X29000Y-31000D03*
X30000Y-31000D03*
X31000Y-31000D03*
X32000Y-31000D03*
X33000Y-31000D03*
X34000Y-31000D03*
X35000Y-31000D03*
G54D14*
X26000Y-32000D03*
G54D15*
X27000Y-32000D03*
X28000Y-32000D03*
X29000Y-32000D03*
X30000Y-32000D03*
X31000Y-32000D03*
X32000Y-32000D03*
X33000Y-32000D03*
X34000Y-32000D03*
X35000Y-32000D03*
G54D14*
X26000Y-22000D03*
G54D15*
X27000Y-22000D03*
X28000Y-22000D03*
X29000Y-22000D03*
X30000Y-22000D03*
X31000Y-22000D03*
X32000Y-22000D03*
X33000Y-22000D03*
X34000Y-22000D03*
X35000Y-22000D03*
G54D16*
X26000Y-28500D03*
G54D17*
X27000Y-28500D03*
X28000Y-28500D03*
X29000Y-28500D03*
X30000Y-28500D03*
X31000Y-28500D03*
X32000Y-28500D03*
X33000Y-28500D03*
X34000Y-28500D03*
X35000Y-28500D03*
X35000Y-25500D03*
X34000Y-25500D03*
X33000Y-25500D03*
X32000Y-25500D03*
X31000Y-25500D03*
X30000Y-25500D03*
X29000Y-25500D03*
X28000Y-25500D03*
X27000Y-25500D03*
X26000Y-25500D03*
G54D15*
X36250Y-25000D03*
X36250Y-24000D03*
X37750Y-32000D03*
X37750Y-31000D03*
G54D18*
X38750Y-30750D03*
X38750Y-29750D03*
G54D15*
X37000Y-28750D03*
X37000Y-29750D03*
X37000Y-26500D03*
X37000Y-27500D03*
X37500Y-22500D03*
X37500Y-23500D03*
G54D18*
X38750Y-23250D03*
X38750Y-24250D03*
G54D15*
X36500Y-31000D03*
X36500Y-32000D03*
X36250Y-23000D03*
X36250Y-22000D03*
G54D19*
X30000Y-26500D03*
X28000Y-26500D03*
G54D20*
X38750Y-27000D02*
X38250Y-27000D01*
X38250Y-27000D02*
X36250Y-25000D01*
X25000Y-27500D02*
X25000Y-29000D01*
X39500Y-28750D02*
X38750Y-28000D01*
X25000Y-29000D02*
X24000Y-30000D01*
X36000Y-26500D02*
X35500Y-27000D01*
X25500Y-26750D02*
X25000Y-26250D01*
X35500Y-27000D02*
X25500Y-27000D01*
X39500Y-31250D02*
X39500Y-28750D01*
X37250Y-26500D02*
X38750Y-28000D01*
X25000Y-25000D02*
X24000Y-24000D01*
X39000Y-32000D02*
X39000Y-31750D01*
X39000Y-31750D02*
X39500Y-31250D01*
X37000Y-26500D02*
X36000Y-26500D01*
X37000Y-26500D02*
X37250Y-26500D01*
X25000Y-26250D02*
X25000Y-25000D01*
X25500Y-27000D02*
X25000Y-27500D01*
X25500Y-27000D02*
X25500Y-26750D01*
X32000Y-31000D02*
X33000Y-31000D01*
X31000Y-31000D02*
X32000Y-31000D01*
X34000Y-31000D02*
X35000Y-31000D01*
X26000Y-31000D02*
X27000Y-31000D01*
X29000Y-31000D02*
X30000Y-31000D01*
X24000Y-31000D02*
X26000Y-31000D01*
X30000Y-31000D02*
X31000Y-31000D01*
X28000Y-31000D02*
X29000Y-31000D01*
X27000Y-31000D02*
X28000Y-31000D01*
X33000Y-31000D02*
X34000Y-31000D01*
X28000Y-23000D02*
X29000Y-23000D01*
X31000Y-23000D02*
X32000Y-23000D01*
X32000Y-23000D02*
X33000Y-23000D01*
X30000Y-23000D02*
X31000Y-23000D01*
X26000Y-23000D02*
X27000Y-23000D01*
X24000Y-23000D02*
X26000Y-23000D01*
X34000Y-23000D02*
X35000Y-23000D01*
X33000Y-23000D02*
X34000Y-23000D01*
X27000Y-23000D02*
X28000Y-23000D01*
X29000Y-23000D02*
X30000Y-23000D01*
G54D21*
X28000Y-26500D02*
X30000Y-26500D01*
G54D20*
X38000Y-22500D02*
X38750Y-23250D01*
X37500Y-22500D02*
X38000Y-22500D01*
G54D10*
G36*
X25617Y-31500D02*
X25584Y-31514D01*
X25514Y-31584D01*
X25476Y-31675D01*
X25476Y-31774D01*
X25476Y-32175D01*
X24524Y-32175D01*
X24525Y-32112D01*
X24463Y-32050D01*
X24100Y-32050D01*
X24050Y-32050D01*
X23950Y-32050D01*
X23900Y-32050D01*
X23537Y-32050D01*
X23475Y-32112D01*
X23475Y-32175D01*
X23325Y-32175D01*
X23325Y-21825D01*
X23475Y-21825D01*
X23475Y-21888D01*
X23537Y-21950D01*
X23900Y-21950D01*
X23950Y-21950D01*
X24050Y-21950D01*
X24100Y-21950D01*
X24463Y-21950D01*
X24525Y-21888D01*
X24524Y-21825D01*
X25476Y-21825D01*
X25476Y-22324D01*
X25514Y-22416D01*
X25584Y-22486D01*
X25617Y-22500D01*
X25584Y-22514D01*
X25514Y-22584D01*
X25494Y-22630D01*
X24372Y-22630D01*
X24298Y-22555D01*
X24223Y-22524D01*
X24226Y-22524D01*
X24325Y-22524D01*
X24416Y-22486D01*
X24486Y-22416D01*
X24524Y-22324D01*
X24525Y-22112D01*
X24463Y-22050D01*
X24100Y-22050D01*
X24050Y-22050D01*
X23950Y-22050D01*
X23900Y-22050D01*
X23537Y-22050D01*
X23475Y-22112D01*
X23476Y-22324D01*
X23514Y-22416D01*
X23584Y-22486D01*
X23675Y-22524D01*
X23774Y-22524D01*
X23703Y-22555D01*
X23555Y-22702D01*
X23475Y-22895D01*
X23475Y-23104D01*
X23555Y-23297D01*
X23702Y-23445D01*
X23835Y-23500D01*
X23703Y-23555D01*
X23555Y-23702D01*
X23475Y-23895D01*
X23475Y-24104D01*
X23555Y-24297D01*
X23702Y-24445D01*
X23895Y-24525D01*
X24001Y-24525D01*
X24630Y-25153D01*
X24630Y-26245D01*
X24629Y-26250D01*
X24653Y-26367D01*
X24658Y-26392D01*
X24738Y-26512D01*
X25101Y-26875D01*
X24738Y-27238D01*
X24658Y-27358D01*
X24653Y-27382D01*
X24629Y-27500D01*
X24630Y-27504D01*
X24630Y-28846D01*
X24525Y-28951D01*
X24525Y-28612D01*
X24525Y-28388D01*
X24524Y-28176D01*
X24486Y-28084D01*
X24416Y-28014D01*
X24325Y-27976D01*
X24226Y-27976D01*
X24222Y-27975D01*
X24297Y-27945D01*
X24445Y-27798D01*
X24525Y-27605D01*
X24525Y-27396D01*
X24445Y-27203D01*
X24298Y-27055D01*
X24164Y-26999D01*
X24297Y-26945D01*
X24445Y-26798D01*
X24525Y-26605D01*
X24525Y-26396D01*
X24445Y-26203D01*
X24298Y-26055D01*
X24164Y-25999D01*
X24297Y-25945D01*
X24445Y-25798D01*
X24525Y-25605D01*
X24525Y-25396D01*
X24445Y-25203D01*
X24298Y-25055D01*
X24105Y-24975D01*
X23896Y-24975D01*
X23703Y-25055D01*
X23555Y-25202D01*
X23475Y-25395D01*
X23475Y-25604D01*
X23555Y-25797D01*
X23702Y-25945D01*
X23835Y-26000D01*
X23703Y-26055D01*
X23555Y-26202D01*
X23475Y-26395D01*
X23475Y-26604D01*
X23555Y-26797D01*
X23702Y-26945D01*
X23835Y-27000D01*
X23703Y-27055D01*
X23555Y-27202D01*
X23475Y-27395D01*
X23475Y-27604D01*
X23555Y-27797D01*
X23702Y-27945D01*
X23776Y-27975D01*
X23774Y-27976D01*
X23675Y-27976D01*
X23584Y-28014D01*
X23514Y-28084D01*
X23476Y-28176D01*
X23475Y-28388D01*
X23537Y-28450D01*
X23900Y-28450D01*
X23950Y-28450D01*
X24050Y-28450D01*
X24100Y-28450D01*
X24463Y-28450D01*
X24525Y-28388D01*
X24525Y-28612D01*
X24463Y-28550D01*
X24050Y-28550D01*
X24050Y-28963D01*
X24112Y-29025D01*
X24226Y-29024D01*
X24325Y-29024D01*
X24416Y-28986D01*
X24486Y-28916D01*
X24524Y-28824D01*
X24525Y-28612D01*
X24525Y-28951D01*
X24001Y-29475D01*
X23950Y-29475D01*
X23950Y-28963D01*
X23950Y-28550D01*
X23537Y-28550D01*
X23475Y-28612D01*
X23476Y-28824D01*
X23514Y-28916D01*
X23584Y-28986D01*
X23675Y-29024D01*
X23774Y-29024D01*
X23888Y-29025D01*
X23950Y-28963D01*
X23950Y-29475D01*
X23896Y-29475D01*
X23703Y-29555D01*
X23555Y-29702D01*
X23475Y-29895D01*
X23475Y-30104D01*
X23555Y-30297D01*
X23702Y-30445D01*
X23835Y-30500D01*
X23703Y-30555D01*
X23555Y-30702D01*
X23475Y-30895D01*
X23475Y-31104D01*
X23555Y-31297D01*
X23702Y-31445D01*
X23776Y-31475D01*
X23774Y-31476D01*
X23675Y-31476D01*
X23584Y-31514D01*
X23514Y-31584D01*
X23476Y-31676D01*
X23475Y-31888D01*
X23537Y-31950D01*
X23900Y-31950D01*
X23950Y-31950D01*
X24050Y-31950D01*
X24100Y-31950D01*
X24463Y-31950D01*
X24525Y-31888D01*
X24524Y-31676D01*
X24486Y-31584D01*
X24416Y-31514D01*
X24325Y-31476D01*
X24226Y-31476D01*
X24222Y-31475D01*
X24297Y-31445D01*
X24372Y-31370D01*
X25495Y-31370D01*
X25514Y-31416D01*
X25584Y-31486D01*
X25617Y-31500D01*
X25617Y-31500D01*
G37*
G54D22*
X25617Y-31500D02*
X25584Y-31514D01*
X25514Y-31584D01*
X25476Y-31675D01*
X25476Y-31774D01*
X25476Y-32175D01*
X24524Y-32175D01*
X24525Y-32112D01*
X24463Y-32050D01*
X24100Y-32050D01*
X24050Y-32050D01*
X23950Y-32050D01*
X23900Y-32050D01*
X23537Y-32050D01*
X23475Y-32112D01*
X23475Y-32175D01*
X23325Y-32175D01*
X23325Y-21825D01*
X23475Y-21825D01*
X23475Y-21888D01*
X23537Y-21950D01*
X23900Y-21950D01*
X23950Y-21950D01*
X24050Y-21950D01*
X24100Y-21950D01*
X24463Y-21950D01*
X24525Y-21888D01*
X24524Y-21825D01*
X25476Y-21825D01*
X25476Y-22324D01*
X25514Y-22416D01*
X25584Y-22486D01*
X25617Y-22500D01*
X25584Y-22514D01*
X25514Y-22584D01*
X25494Y-22630D01*
X24372Y-22630D01*
X24298Y-22555D01*
X24223Y-22524D01*
X24226Y-22524D01*
X24325Y-22524D01*
X24416Y-22486D01*
X24486Y-22416D01*
X24524Y-22324D01*
X24525Y-22112D01*
X24463Y-22050D01*
X24100Y-22050D01*
X24050Y-22050D01*
X23950Y-22050D01*
X23900Y-22050D01*
X23537Y-22050D01*
X23475Y-22112D01*
X23476Y-22324D01*
X23514Y-22416D01*
X23584Y-22486D01*
X23675Y-22524D01*
X23774Y-22524D01*
X23703Y-22555D01*
X23555Y-22702D01*
X23475Y-22895D01*
X23475Y-23104D01*
X23555Y-23297D01*
X23702Y-23445D01*
X23835Y-23500D01*
X23703Y-23555D01*
X23555Y-23702D01*
X23475Y-23895D01*
X23475Y-24104D01*
X23555Y-24297D01*
X23702Y-24445D01*
X23895Y-24525D01*
X24001Y-24525D01*
X24630Y-25153D01*
X24630Y-26245D01*
X24629Y-26250D01*
X24653Y-26367D01*
X24658Y-26392D01*
X24738Y-26512D01*
X25101Y-26875D01*
X24738Y-27238D01*
X24658Y-27358D01*
X24653Y-27382D01*
X24629Y-27500D01*
X24630Y-27504D01*
X24630Y-28846D01*
X24525Y-28951D01*
X24525Y-28612D01*
X24525Y-28388D01*
X24524Y-28176D01*
X24486Y-28084D01*
X24416Y-28014D01*
X24325Y-27976D01*
X24226Y-27976D01*
X24222Y-27975D01*
X24297Y-27945D01*
X24445Y-27798D01*
X24525Y-27605D01*
X24525Y-27396D01*
X24445Y-27203D01*
X24298Y-27055D01*
X24164Y-26999D01*
X24297Y-26945D01*
X24445Y-26798D01*
X24525Y-26605D01*
X24525Y-26396D01*
X24445Y-26203D01*
X24298Y-26055D01*
X24164Y-25999D01*
X24297Y-25945D01*
X24445Y-25798D01*
X24525Y-25605D01*
X24525Y-25396D01*
X24445Y-25203D01*
X24298Y-25055D01*
X24105Y-24975D01*
X23896Y-24975D01*
X23703Y-25055D01*
X23555Y-25202D01*
X23475Y-25395D01*
X23475Y-25604D01*
X23555Y-25797D01*
X23702Y-25945D01*
X23835Y-26000D01*
X23703Y-26055D01*
X23555Y-26202D01*
X23475Y-26395D01*
X23475Y-26604D01*
X23555Y-26797D01*
X23702Y-26945D01*
X23835Y-27000D01*
X23703Y-27055D01*
X23555Y-27202D01*
X23475Y-27395D01*
X23475Y-27604D01*
X23555Y-27797D01*
X23702Y-27945D01*
X23776Y-27975D01*
X23774Y-27976D01*
X23675Y-27976D01*
X23584Y-28014D01*
X23514Y-28084D01*
X23476Y-28176D01*
X23475Y-28388D01*
X23537Y-28450D01*
X23900Y-28450D01*
X23950Y-28450D01*
X24050Y-28450D01*
X24100Y-28450D01*
X24463Y-28450D01*
X24525Y-28388D01*
X24525Y-28612D01*
X24463Y-28550D01*
X24050Y-28550D01*
X24050Y-28963D01*
X24112Y-29025D01*
X24226Y-29024D01*
X24325Y-29024D01*
X24416Y-28986D01*
X24486Y-28916D01*
X24524Y-28824D01*
X24525Y-28612D01*
X24525Y-28951D01*
X24001Y-29475D01*
X23950Y-29475D01*
X23950Y-28963D01*
X23950Y-28550D01*
X23537Y-28550D01*
X23475Y-28612D01*
X23476Y-28824D01*
X23514Y-28916D01*
X23584Y-28986D01*
X23675Y-29024D01*
X23774Y-29024D01*
X23888Y-29025D01*
X23950Y-28963D01*
X23950Y-29475D01*
X23896Y-29475D01*
X23703Y-29555D01*
X23555Y-29702D01*
X23475Y-29895D01*
X23475Y-30104D01*
X23555Y-30297D01*
X23702Y-30445D01*
X23835Y-30500D01*
X23703Y-30555D01*
X23555Y-30702D01*
X23475Y-30895D01*
X23475Y-31104D01*
X23555Y-31297D01*
X23702Y-31445D01*
X23776Y-31475D01*
X23774Y-31476D01*
X23675Y-31476D01*
X23584Y-31514D01*
X23514Y-31584D01*
X23476Y-31676D01*
X23475Y-31888D01*
X23537Y-31950D01*
X23900Y-31950D01*
X23950Y-31950D01*
X24050Y-31950D01*
X24100Y-31950D01*
X24463Y-31950D01*
X24525Y-31888D01*
X24524Y-31676D01*
X24486Y-31584D01*
X24416Y-31514D01*
X24325Y-31476D01*
X24226Y-31476D01*
X24222Y-31475D01*
X24297Y-31445D01*
X24372Y-31370D01*
X25495Y-31370D01*
X25514Y-31416D01*
X25584Y-31486D01*
X25617Y-31500D01*
G54D10*
G36*
X39130Y-29310D02*
X39079Y-29259D01*
X38866Y-29170D01*
X38635Y-29170D01*
X38422Y-29258D01*
X38259Y-29421D01*
X38170Y-29634D01*
X38170Y-29865D01*
X38258Y-30078D01*
X38421Y-30241D01*
X38441Y-30249D01*
X38422Y-30258D01*
X38259Y-30421D01*
X38170Y-30634D01*
X38170Y-30677D01*
X38048Y-30555D01*
X37855Y-30475D01*
X37646Y-30475D01*
X37525Y-30525D01*
X37525Y-29855D01*
X37525Y-29646D01*
X37519Y-29631D01*
X37519Y-28824D01*
X37508Y-28620D01*
X37452Y-28483D01*
X37361Y-28460D01*
X37290Y-28531D01*
X37290Y-28389D01*
X37267Y-28298D01*
X37074Y-28231D01*
X36870Y-28242D01*
X36733Y-28298D01*
X36710Y-28389D01*
X37000Y-28679D01*
X37290Y-28389D01*
X37290Y-28531D01*
X37071Y-28750D01*
X37361Y-29040D01*
X37452Y-29017D01*
X37519Y-28824D01*
X37519Y-29631D01*
X37445Y-29453D01*
X37298Y-29305D01*
X37157Y-29246D01*
X37267Y-29202D01*
X37290Y-29111D01*
X37000Y-28821D01*
X36929Y-28892D01*
X36929Y-28750D01*
X36639Y-28460D01*
X36548Y-28483D01*
X36481Y-28676D01*
X36492Y-28880D01*
X36548Y-29017D01*
X36639Y-29040D01*
X36929Y-28750D01*
X36929Y-28892D01*
X36710Y-29111D01*
X36733Y-29202D01*
X36851Y-29243D01*
X36703Y-29305D01*
X36555Y-29452D01*
X36475Y-29645D01*
X36475Y-29854D01*
X36555Y-30047D01*
X36702Y-30195D01*
X36895Y-30275D01*
X37104Y-30275D01*
X37297Y-30195D01*
X37445Y-30048D01*
X37525Y-29855D01*
X37525Y-30525D01*
X37453Y-30555D01*
X37305Y-30702D01*
X37225Y-30895D01*
X37225Y-31104D01*
X37305Y-31297D01*
X37452Y-31445D01*
X37592Y-31503D01*
X37483Y-31548D01*
X37460Y-31639D01*
X37750Y-31929D01*
X38040Y-31639D01*
X38017Y-31548D01*
X37898Y-31506D01*
X38047Y-31445D01*
X38195Y-31298D01*
X38275Y-31105D01*
X38275Y-31095D01*
X38421Y-31241D01*
X38634Y-31330D01*
X38865Y-31330D01*
X38917Y-31308D01*
X38857Y-31369D01*
X38762Y-31369D01*
X38530Y-31465D01*
X38352Y-31642D01*
X38257Y-31869D01*
X38202Y-31733D01*
X38111Y-31710D01*
X37856Y-31965D01*
X37821Y-32000D01*
X37750Y-32071D01*
X37679Y-32000D01*
X37644Y-31965D01*
X37389Y-31710D01*
X37298Y-31733D01*
X37231Y-31926D01*
X37242Y-32130D01*
X37260Y-32175D01*
X36995Y-32175D01*
X37025Y-32105D01*
X37025Y-31896D01*
X37019Y-31881D01*
X37019Y-31074D01*
X37008Y-30870D01*
X36952Y-30733D01*
X36861Y-30710D01*
X36790Y-30781D01*
X36790Y-30639D01*
X36767Y-30548D01*
X36574Y-30481D01*
X36370Y-30492D01*
X36233Y-30548D01*
X36210Y-30639D01*
X36500Y-30929D01*
X36790Y-30639D01*
X36790Y-30781D01*
X36571Y-31000D01*
X36861Y-31290D01*
X36952Y-31267D01*
X37019Y-31074D01*
X37019Y-31881D01*
X36945Y-31703D01*
X36798Y-31555D01*
X36657Y-31496D01*
X36767Y-31452D01*
X36790Y-31361D01*
X36500Y-31071D01*
X36429Y-31142D01*
X36429Y-31000D01*
X36139Y-30710D01*
X36048Y-30733D01*
X35981Y-30926D01*
X35992Y-31130D01*
X36048Y-31267D01*
X36139Y-31290D01*
X36429Y-31000D01*
X36429Y-31142D01*
X36210Y-31361D01*
X36233Y-31452D01*
X36351Y-31493D01*
X36203Y-31555D01*
X36055Y-31702D01*
X35975Y-31895D01*
X35975Y-32104D01*
X36004Y-32175D01*
X35549Y-32175D01*
X35549Y-28762D01*
X35549Y-28544D01*
X35549Y-28238D01*
X35465Y-28036D01*
X35311Y-27882D01*
X35109Y-27798D01*
X34891Y-27798D01*
X34689Y-27882D01*
X34535Y-28036D01*
X34500Y-28120D01*
X34465Y-28036D01*
X34311Y-27882D01*
X34109Y-27798D01*
X33891Y-27798D01*
X33689Y-27882D01*
X33535Y-28036D01*
X33500Y-28120D01*
X33465Y-28036D01*
X33311Y-27882D01*
X33109Y-27798D01*
X32891Y-27798D01*
X32689Y-27882D01*
X32535Y-28036D01*
X32500Y-28120D01*
X32465Y-28036D01*
X32311Y-27882D01*
X32109Y-27798D01*
X31891Y-27798D01*
X31689Y-27882D01*
X31535Y-28036D01*
X31500Y-28120D01*
X31465Y-28036D01*
X31311Y-27882D01*
X31109Y-27798D01*
X30891Y-27798D01*
X30689Y-27882D01*
X30535Y-28036D01*
X30500Y-28120D01*
X30465Y-28036D01*
X30311Y-27882D01*
X30109Y-27798D01*
X29891Y-27798D01*
X29689Y-27882D01*
X29535Y-28036D01*
X29500Y-28120D01*
X29465Y-28036D01*
X29311Y-27882D01*
X29109Y-27798D01*
X28891Y-27798D01*
X28689Y-27882D01*
X28535Y-28036D01*
X28500Y-28120D01*
X28465Y-28036D01*
X28311Y-27882D01*
X28109Y-27798D01*
X27891Y-27798D01*
X27689Y-27882D01*
X27535Y-28036D01*
X27500Y-28120D01*
X27465Y-28036D01*
X27311Y-27882D01*
X27109Y-27798D01*
X26891Y-27798D01*
X26689Y-27882D01*
X26559Y-28012D01*
X26559Y-28000D01*
X26521Y-27909D01*
X26451Y-27839D01*
X26359Y-27801D01*
X26112Y-27800D01*
X26050Y-27862D01*
X26050Y-28400D01*
X26050Y-28450D01*
X26050Y-28550D01*
X26050Y-28600D01*
X26050Y-29138D01*
X26112Y-29200D01*
X26359Y-29199D01*
X26451Y-29161D01*
X26521Y-29091D01*
X26559Y-29000D01*
X26559Y-28988D01*
X26689Y-29118D01*
X26891Y-29202D01*
X27109Y-29202D01*
X27311Y-29118D01*
X27465Y-28964D01*
X27500Y-28879D01*
X27535Y-28964D01*
X27689Y-29118D01*
X27891Y-29202D01*
X28109Y-29202D01*
X28311Y-29118D01*
X28465Y-28964D01*
X28500Y-28879D01*
X28535Y-28964D01*
X28689Y-29118D01*
X28891Y-29202D01*
X29109Y-29202D01*
X29311Y-29118D01*
X29465Y-28964D01*
X29500Y-28879D01*
X29535Y-28964D01*
X29689Y-29118D01*
X29891Y-29202D01*
X30109Y-29202D01*
X30311Y-29118D01*
X30465Y-28964D01*
X30500Y-28879D01*
X30535Y-28964D01*
X30689Y-29118D01*
X30891Y-29202D01*
X31109Y-29202D01*
X31311Y-29118D01*
X31465Y-28964D01*
X31500Y-28879D01*
X31535Y-28964D01*
X31689Y-29118D01*
X31891Y-29202D01*
X32109Y-29202D01*
X32311Y-29118D01*
X32465Y-28964D01*
X32500Y-28879D01*
X32535Y-28964D01*
X32689Y-29118D01*
X32891Y-29202D01*
X33109Y-29202D01*
X33311Y-29118D01*
X33465Y-28964D01*
X33500Y-28879D01*
X33535Y-28964D01*
X33689Y-29118D01*
X33891Y-29202D01*
X34109Y-29202D01*
X34311Y-29118D01*
X34465Y-28964D01*
X34500Y-28879D01*
X34535Y-28964D01*
X34689Y-29118D01*
X34891Y-29202D01*
X35109Y-29202D01*
X35311Y-29118D01*
X35465Y-28964D01*
X35549Y-28762D01*
X35549Y-32175D01*
X35495Y-32175D01*
X35525Y-32105D01*
X35525Y-31896D01*
X35445Y-31703D01*
X35298Y-31555D01*
X35164Y-31499D01*
X35297Y-31445D01*
X35445Y-31298D01*
X35525Y-31105D01*
X35525Y-30896D01*
X35445Y-30703D01*
X35298Y-30555D01*
X35164Y-30499D01*
X35297Y-30445D01*
X35445Y-30298D01*
X35525Y-30105D01*
X35525Y-29896D01*
X35445Y-29703D01*
X35298Y-29555D01*
X35105Y-29475D01*
X34896Y-29475D01*
X34703Y-29555D01*
X34555Y-29702D01*
X34499Y-29835D01*
X34445Y-29703D01*
X34298Y-29555D01*
X34105Y-29475D01*
X33896Y-29475D01*
X33703Y-29555D01*
X33555Y-29702D01*
X33499Y-29835D01*
X33445Y-29703D01*
X33298Y-29555D01*
X33105Y-29475D01*
X32896Y-29475D01*
X32703Y-29555D01*
X32555Y-29702D01*
X32499Y-29835D01*
X32445Y-29703D01*
X32298Y-29555D01*
X32105Y-29475D01*
X31896Y-29475D01*
X31703Y-29555D01*
X31555Y-29702D01*
X31499Y-29835D01*
X31445Y-29703D01*
X31298Y-29555D01*
X31105Y-29475D01*
X30896Y-29475D01*
X30703Y-29555D01*
X30555Y-29702D01*
X30499Y-29835D01*
X30445Y-29703D01*
X30298Y-29555D01*
X30105Y-29475D01*
X29896Y-29475D01*
X29703Y-29555D01*
X29555Y-29702D01*
X29499Y-29835D01*
X29445Y-29703D01*
X29298Y-29555D01*
X29105Y-29475D01*
X28896Y-29475D01*
X28703Y-29555D01*
X28555Y-29702D01*
X28499Y-29835D01*
X28445Y-29703D01*
X28298Y-29555D01*
X28105Y-29475D01*
X27896Y-29475D01*
X27703Y-29555D01*
X27555Y-29702D01*
X27499Y-29835D01*
X27445Y-29703D01*
X27298Y-29555D01*
X27105Y-29475D01*
X26896Y-29475D01*
X26703Y-29555D01*
X26555Y-29702D01*
X26524Y-29774D01*
X26524Y-29675D01*
X26486Y-29584D01*
X26416Y-29514D01*
X26324Y-29476D01*
X26112Y-29475D01*
X26050Y-29537D01*
X26050Y-29900D01*
X26050Y-29950D01*
X26050Y-30050D01*
X25950Y-30050D01*
X25950Y-29950D01*
X25950Y-29537D01*
X25950Y-29138D01*
X25950Y-28550D01*
X25950Y-28450D01*
X25950Y-27862D01*
X25888Y-27800D01*
X25641Y-27801D01*
X25549Y-27839D01*
X25479Y-27909D01*
X25441Y-28000D01*
X25441Y-28099D01*
X25440Y-28388D01*
X25502Y-28450D01*
X25950Y-28450D01*
X25950Y-28550D01*
X25502Y-28550D01*
X25440Y-28612D01*
X25441Y-28901D01*
X25441Y-29000D01*
X25479Y-29091D01*
X25549Y-29161D01*
X25641Y-29199D01*
X25888Y-29200D01*
X25950Y-29138D01*
X25950Y-29537D01*
X25888Y-29475D01*
X25676Y-29476D01*
X25584Y-29514D01*
X25514Y-29584D01*
X25476Y-29675D01*
X25476Y-29774D01*
X25475Y-29888D01*
X25537Y-29950D01*
X25950Y-29950D01*
X25950Y-30050D01*
X25900Y-30050D01*
X25537Y-30050D01*
X25475Y-30112D01*
X25476Y-30226D01*
X25476Y-30325D01*
X25514Y-30416D01*
X25584Y-30486D01*
X25617Y-30500D01*
X25584Y-30514D01*
X25514Y-30584D01*
X25494Y-30630D01*
X24372Y-30630D01*
X24298Y-30555D01*
X24164Y-30499D01*
X24297Y-30445D01*
X24445Y-30298D01*
X24525Y-30105D01*
X24525Y-29998D01*
X25259Y-29263D01*
X25261Y-29262D01*
X25262Y-29262D01*
X25342Y-29142D01*
X25370Y-29000D01*
X25370Y-27654D01*
X25654Y-27370D01*
X35495Y-27370D01*
X35500Y-27371D01*
X35500Y-27370D01*
X35617Y-27346D01*
X35641Y-27342D01*
X35642Y-27342D01*
X35762Y-27262D01*
X36154Y-26870D01*
X36627Y-26870D01*
X36702Y-26945D01*
X36835Y-27000D01*
X36703Y-27055D01*
X36555Y-27202D01*
X36475Y-27395D01*
X36475Y-27604D01*
X36555Y-27797D01*
X36702Y-27945D01*
X36895Y-28025D01*
X37104Y-28025D01*
X37297Y-27945D01*
X37445Y-27798D01*
X37525Y-27605D01*
X37525Y-27396D01*
X37456Y-27229D01*
X38151Y-27924D01*
X38151Y-28119D01*
X38242Y-28339D01*
X38411Y-28508D01*
X38631Y-28599D01*
X38825Y-28599D01*
X39130Y-28903D01*
X39130Y-29310D01*
X39130Y-29310D01*
G37*
G54D22*
X39130Y-29310D02*
X39079Y-29259D01*
X38866Y-29170D01*
X38635Y-29170D01*
X38422Y-29258D01*
X38259Y-29421D01*
X38170Y-29634D01*
X38170Y-29865D01*
X38258Y-30078D01*
X38421Y-30241D01*
X38441Y-30249D01*
X38422Y-30258D01*
X38259Y-30421D01*
X38170Y-30634D01*
X38170Y-30677D01*
X38048Y-30555D01*
X37855Y-30475D01*
X37646Y-30475D01*
X37525Y-30525D01*
X37525Y-29855D01*
X37525Y-29646D01*
X37519Y-29631D01*
X37519Y-28824D01*
X37508Y-28620D01*
X37452Y-28483D01*
X37361Y-28460D01*
X37290Y-28531D01*
X37290Y-28389D01*
X37267Y-28298D01*
X37074Y-28231D01*
X36870Y-28242D01*
X36733Y-28298D01*
X36710Y-28389D01*
X37000Y-28679D01*
X37290Y-28389D01*
X37290Y-28531D01*
X37071Y-28750D01*
X37361Y-29040D01*
X37452Y-29017D01*
X37519Y-28824D01*
X37519Y-29631D01*
X37445Y-29453D01*
X37298Y-29305D01*
X37157Y-29246D01*
X37267Y-29202D01*
X37290Y-29111D01*
X37000Y-28821D01*
X36929Y-28892D01*
X36929Y-28750D01*
X36639Y-28460D01*
X36548Y-28483D01*
X36481Y-28676D01*
X36492Y-28880D01*
X36548Y-29017D01*
X36639Y-29040D01*
X36929Y-28750D01*
X36929Y-28892D01*
X36710Y-29111D01*
X36733Y-29202D01*
X36851Y-29243D01*
X36703Y-29305D01*
X36555Y-29452D01*
X36475Y-29645D01*
X36475Y-29854D01*
X36555Y-30047D01*
X36702Y-30195D01*
X36895Y-30275D01*
X37104Y-30275D01*
X37297Y-30195D01*
X37445Y-30048D01*
X37525Y-29855D01*
X37525Y-30525D01*
X37453Y-30555D01*
X37305Y-30702D01*
X37225Y-30895D01*
X37225Y-31104D01*
X37305Y-31297D01*
X37452Y-31445D01*
X37592Y-31503D01*
X37483Y-31548D01*
X37460Y-31639D01*
X37750Y-31929D01*
X38040Y-31639D01*
X38017Y-31548D01*
X37898Y-31506D01*
X38047Y-31445D01*
X38195Y-31298D01*
X38275Y-31105D01*
X38275Y-31095D01*
X38421Y-31241D01*
X38634Y-31330D01*
X38865Y-31330D01*
X38917Y-31308D01*
X38857Y-31369D01*
X38762Y-31369D01*
X38530Y-31465D01*
X38352Y-31642D01*
X38257Y-31869D01*
X38202Y-31733D01*
X38111Y-31710D01*
X37856Y-31965D01*
X37821Y-32000D01*
X37750Y-32071D01*
X37679Y-32000D01*
X37644Y-31965D01*
X37389Y-31710D01*
X37298Y-31733D01*
X37231Y-31926D01*
X37242Y-32130D01*
X37260Y-32175D01*
X36995Y-32175D01*
X37025Y-32105D01*
X37025Y-31896D01*
X37019Y-31881D01*
X37019Y-31074D01*
X37008Y-30870D01*
X36952Y-30733D01*
X36861Y-30710D01*
X36790Y-30781D01*
X36790Y-30639D01*
X36767Y-30548D01*
X36574Y-30481D01*
X36370Y-30492D01*
X36233Y-30548D01*
X36210Y-30639D01*
X36500Y-30929D01*
X36790Y-30639D01*
X36790Y-30781D01*
X36571Y-31000D01*
X36861Y-31290D01*
X36952Y-31267D01*
X37019Y-31074D01*
X37019Y-31881D01*
X36945Y-31703D01*
X36798Y-31555D01*
X36657Y-31496D01*
X36767Y-31452D01*
X36790Y-31361D01*
X36500Y-31071D01*
X36429Y-31142D01*
X36429Y-31000D01*
X36139Y-30710D01*
X36048Y-30733D01*
X35981Y-30926D01*
X35992Y-31130D01*
X36048Y-31267D01*
X36139Y-31290D01*
X36429Y-31000D01*
X36429Y-31142D01*
X36210Y-31361D01*
X36233Y-31452D01*
X36351Y-31493D01*
X36203Y-31555D01*
X36055Y-31702D01*
X35975Y-31895D01*
X35975Y-32104D01*
X36004Y-32175D01*
X35549Y-32175D01*
X35549Y-28762D01*
X35549Y-28544D01*
X35549Y-28238D01*
X35465Y-28036D01*
X35311Y-27882D01*
X35109Y-27798D01*
X34891Y-27798D01*
X34689Y-27882D01*
X34535Y-28036D01*
X34500Y-28120D01*
X34465Y-28036D01*
X34311Y-27882D01*
X34109Y-27798D01*
X33891Y-27798D01*
X33689Y-27882D01*
X33535Y-28036D01*
X33500Y-28120D01*
X33465Y-28036D01*
X33311Y-27882D01*
X33109Y-27798D01*
X32891Y-27798D01*
X32689Y-27882D01*
X32535Y-28036D01*
X32500Y-28120D01*
X32465Y-28036D01*
X32311Y-27882D01*
X32109Y-27798D01*
X31891Y-27798D01*
X31689Y-27882D01*
X31535Y-28036D01*
X31500Y-28120D01*
X31465Y-28036D01*
X31311Y-27882D01*
X31109Y-27798D01*
X30891Y-27798D01*
X30689Y-27882D01*
X30535Y-28036D01*
X30500Y-28120D01*
X30465Y-28036D01*
X30311Y-27882D01*
X30109Y-27798D01*
X29891Y-27798D01*
X29689Y-27882D01*
X29535Y-28036D01*
X29500Y-28120D01*
X29465Y-28036D01*
X29311Y-27882D01*
X29109Y-27798D01*
X28891Y-27798D01*
X28689Y-27882D01*
X28535Y-28036D01*
X28500Y-28120D01*
X28465Y-28036D01*
X28311Y-27882D01*
X28109Y-27798D01*
X27891Y-27798D01*
X27689Y-27882D01*
X27535Y-28036D01*
X27500Y-28120D01*
X27465Y-28036D01*
X27311Y-27882D01*
X27109Y-27798D01*
X26891Y-27798D01*
X26689Y-27882D01*
X26559Y-28012D01*
X26559Y-28000D01*
X26521Y-27909D01*
X26451Y-27839D01*
X26359Y-27801D01*
X26112Y-27800D01*
X26050Y-27862D01*
X26050Y-28400D01*
X26050Y-28450D01*
X26050Y-28550D01*
X26050Y-28600D01*
X26050Y-29138D01*
X26112Y-29200D01*
X26359Y-29199D01*
X26451Y-29161D01*
X26521Y-29091D01*
X26559Y-29000D01*
X26559Y-28988D01*
X26689Y-29118D01*
X26891Y-29202D01*
X27109Y-29202D01*
X27311Y-29118D01*
X27465Y-28964D01*
X27500Y-28879D01*
X27535Y-28964D01*
X27689Y-29118D01*
X27891Y-29202D01*
X28109Y-29202D01*
X28311Y-29118D01*
X28465Y-28964D01*
X28500Y-28879D01*
X28535Y-28964D01*
X28689Y-29118D01*
X28891Y-29202D01*
X29109Y-29202D01*
X29311Y-29118D01*
X29465Y-28964D01*
X29500Y-28879D01*
X29535Y-28964D01*
X29689Y-29118D01*
X29891Y-29202D01*
X30109Y-29202D01*
X30311Y-29118D01*
X30465Y-28964D01*
X30500Y-28879D01*
X30535Y-28964D01*
X30689Y-29118D01*
X30891Y-29202D01*
X31109Y-29202D01*
X31311Y-29118D01*
X31465Y-28964D01*
X31500Y-28879D01*
X31535Y-28964D01*
X31689Y-29118D01*
X31891Y-29202D01*
X32109Y-29202D01*
X32311Y-29118D01*
X32465Y-28964D01*
X32500Y-28879D01*
X32535Y-28964D01*
X32689Y-29118D01*
X32891Y-29202D01*
X33109Y-29202D01*
X33311Y-29118D01*
X33465Y-28964D01*
X33500Y-28879D01*
X33535Y-28964D01*
X33689Y-29118D01*
X33891Y-29202D01*
X34109Y-29202D01*
X34311Y-29118D01*
X34465Y-28964D01*
X34500Y-28879D01*
X34535Y-28964D01*
X34689Y-29118D01*
X34891Y-29202D01*
X35109Y-29202D01*
X35311Y-29118D01*
X35465Y-28964D01*
X35549Y-28762D01*
X35549Y-32175D01*
X35495Y-32175D01*
X35525Y-32105D01*
X35525Y-31896D01*
X35445Y-31703D01*
X35298Y-31555D01*
X35164Y-31499D01*
X35297Y-31445D01*
X35445Y-31298D01*
X35525Y-31105D01*
X35525Y-30896D01*
X35445Y-30703D01*
X35298Y-30555D01*
X35164Y-30499D01*
X35297Y-30445D01*
X35445Y-30298D01*
X35525Y-30105D01*
X35525Y-29896D01*
X35445Y-29703D01*
X35298Y-29555D01*
X35105Y-29475D01*
X34896Y-29475D01*
X34703Y-29555D01*
X34555Y-29702D01*
X34499Y-29835D01*
X34445Y-29703D01*
X34298Y-29555D01*
X34105Y-29475D01*
X33896Y-29475D01*
X33703Y-29555D01*
X33555Y-29702D01*
X33499Y-29835D01*
X33445Y-29703D01*
X33298Y-29555D01*
X33105Y-29475D01*
X32896Y-29475D01*
X32703Y-29555D01*
X32555Y-29702D01*
X32499Y-29835D01*
X32445Y-29703D01*
X32298Y-29555D01*
X32105Y-29475D01*
X31896Y-29475D01*
X31703Y-29555D01*
X31555Y-29702D01*
X31499Y-29835D01*
X31445Y-29703D01*
X31298Y-29555D01*
X31105Y-29475D01*
X30896Y-29475D01*
X30703Y-29555D01*
X30555Y-29702D01*
X30499Y-29835D01*
X30445Y-29703D01*
X30298Y-29555D01*
X30105Y-29475D01*
X29896Y-29475D01*
X29703Y-29555D01*
X29555Y-29702D01*
X29499Y-29835D01*
X29445Y-29703D01*
X29298Y-29555D01*
X29105Y-29475D01*
X28896Y-29475D01*
X28703Y-29555D01*
X28555Y-29702D01*
X28499Y-29835D01*
X28445Y-29703D01*
X28298Y-29555D01*
X28105Y-29475D01*
X27896Y-29475D01*
X27703Y-29555D01*
X27555Y-29702D01*
X27499Y-29835D01*
X27445Y-29703D01*
X27298Y-29555D01*
X27105Y-29475D01*
X26896Y-29475D01*
X26703Y-29555D01*
X26555Y-29702D01*
X26524Y-29774D01*
X26524Y-29675D01*
X26486Y-29584D01*
X26416Y-29514D01*
X26324Y-29476D01*
X26112Y-29475D01*
X26050Y-29537D01*
X26050Y-29900D01*
X26050Y-29950D01*
X26050Y-30050D01*
X25950Y-30050D01*
X25950Y-29950D01*
X25950Y-29537D01*
X25950Y-29138D01*
X25950Y-28550D01*
X25950Y-28450D01*
X25950Y-27862D01*
X25888Y-27800D01*
X25641Y-27801D01*
X25549Y-27839D01*
X25479Y-27909D01*
X25441Y-28000D01*
X25441Y-28099D01*
X25440Y-28388D01*
X25502Y-28450D01*
X25950Y-28450D01*
X25950Y-28550D01*
X25502Y-28550D01*
X25440Y-28612D01*
X25441Y-28901D01*
X25441Y-29000D01*
X25479Y-29091D01*
X25549Y-29161D01*
X25641Y-29199D01*
X25888Y-29200D01*
X25950Y-29138D01*
X25950Y-29537D01*
X25888Y-29475D01*
X25676Y-29476D01*
X25584Y-29514D01*
X25514Y-29584D01*
X25476Y-29675D01*
X25476Y-29774D01*
X25475Y-29888D01*
X25537Y-29950D01*
X25950Y-29950D01*
X25950Y-30050D01*
X25900Y-30050D01*
X25537Y-30050D01*
X25475Y-30112D01*
X25476Y-30226D01*
X25476Y-30325D01*
X25514Y-30416D01*
X25584Y-30486D01*
X25617Y-30500D01*
X25584Y-30514D01*
X25514Y-30584D01*
X25494Y-30630D01*
X24372Y-30630D01*
X24298Y-30555D01*
X24164Y-30499D01*
X24297Y-30445D01*
X24445Y-30298D01*
X24525Y-30105D01*
X24525Y-29998D01*
X25259Y-29263D01*
X25261Y-29262D01*
X25262Y-29262D01*
X25342Y-29142D01*
X25370Y-29000D01*
X25370Y-27654D01*
X25654Y-27370D01*
X35495Y-27370D01*
X35500Y-27371D01*
X35500Y-27370D01*
X35617Y-27346D01*
X35641Y-27342D01*
X35642Y-27342D01*
X35762Y-27262D01*
X36154Y-26870D01*
X36627Y-26870D01*
X36702Y-26945D01*
X36835Y-27000D01*
X36703Y-27055D01*
X36555Y-27202D01*
X36475Y-27395D01*
X36475Y-27604D01*
X36555Y-27797D01*
X36702Y-27945D01*
X36895Y-28025D01*
X37104Y-28025D01*
X37297Y-27945D01*
X37445Y-27798D01*
X37525Y-27605D01*
X37525Y-27396D01*
X37456Y-27229D01*
X38151Y-27924D01*
X38151Y-28119D01*
X38242Y-28339D01*
X38411Y-28508D01*
X38631Y-28599D01*
X38825Y-28599D01*
X39130Y-28903D01*
X39130Y-29310D01*
G54D10*
G36*
X39425Y-28151D02*
X39349Y-28075D01*
X39349Y-27881D01*
X39343Y-27866D01*
X39258Y-27661D01*
X39089Y-27492D01*
X39069Y-27484D01*
X39093Y-27414D01*
X38785Y-27106D01*
X38750Y-27071D01*
X38679Y-27000D01*
X38750Y-26929D01*
X38821Y-27000D01*
X38856Y-27035D01*
X39164Y-27343D01*
X39263Y-27310D01*
X39343Y-27091D01*
X39332Y-26856D01*
X39263Y-26690D01*
X39216Y-26674D01*
X39252Y-26639D01*
X39193Y-26580D01*
X39241Y-26561D01*
X39311Y-26491D01*
X39349Y-26400D01*
X39349Y-26301D01*
X39349Y-25601D01*
X39311Y-25509D01*
X39241Y-25439D01*
X39150Y-25401D01*
X39051Y-25401D01*
X38351Y-25401D01*
X38259Y-25439D01*
X38189Y-25509D01*
X38151Y-25600D01*
X38151Y-25699D01*
X38151Y-26399D01*
X38189Y-26491D01*
X38259Y-26561D01*
X38306Y-26580D01*
X38248Y-26639D01*
X38283Y-26674D01*
X38237Y-26690D01*
X38163Y-26890D01*
X37512Y-26238D01*
X37418Y-26175D01*
X37416Y-26174D01*
X37298Y-26055D01*
X37105Y-25975D01*
X36896Y-25975D01*
X36769Y-26027D01*
X36769Y-25074D01*
X36758Y-24870D01*
X36702Y-24733D01*
X36611Y-24710D01*
X36321Y-25000D01*
X36611Y-25290D01*
X36702Y-25267D01*
X36769Y-25074D01*
X36769Y-26027D01*
X36703Y-26055D01*
X36627Y-26130D01*
X36540Y-26130D01*
X36540Y-25361D01*
X36250Y-25071D01*
X36179Y-25142D01*
X36179Y-25000D01*
X35889Y-24710D01*
X35798Y-24733D01*
X35731Y-24926D01*
X35742Y-25130D01*
X35798Y-25267D01*
X35889Y-25290D01*
X36179Y-25000D01*
X36179Y-25142D01*
X35960Y-25361D01*
X35983Y-25452D01*
X36176Y-25519D01*
X36380Y-25508D01*
X36517Y-25452D01*
X36540Y-25361D01*
X36540Y-26130D01*
X36000Y-26130D01*
X35858Y-26158D01*
X35738Y-26238D01*
X35346Y-26630D01*
X30406Y-26630D01*
X30425Y-26585D01*
X30425Y-26416D01*
X30361Y-26260D01*
X30246Y-26145D01*
X30311Y-26118D01*
X30465Y-25964D01*
X30500Y-25879D01*
X30535Y-25964D01*
X30689Y-26118D01*
X30891Y-26202D01*
X31109Y-26202D01*
X31311Y-26118D01*
X31465Y-25964D01*
X31500Y-25879D01*
X31535Y-25964D01*
X31689Y-26118D01*
X31891Y-26202D01*
X32109Y-26202D01*
X32311Y-26118D01*
X32465Y-25964D01*
X32500Y-25879D01*
X32535Y-25964D01*
X32689Y-26118D01*
X32891Y-26202D01*
X33109Y-26202D01*
X33311Y-26118D01*
X33465Y-25964D01*
X33500Y-25879D01*
X33535Y-25964D01*
X33689Y-26118D01*
X33891Y-26202D01*
X34109Y-26202D01*
X34311Y-26118D01*
X34465Y-25964D01*
X34500Y-25879D01*
X34535Y-25964D01*
X34689Y-26118D01*
X34891Y-26202D01*
X35109Y-26202D01*
X35311Y-26118D01*
X35465Y-25964D01*
X35549Y-25762D01*
X35549Y-25544D01*
X35549Y-25238D01*
X35465Y-25036D01*
X35311Y-24882D01*
X35109Y-24798D01*
X34891Y-24798D01*
X34689Y-24882D01*
X34535Y-25036D01*
X34500Y-25120D01*
X34465Y-25036D01*
X34311Y-24882D01*
X34109Y-24798D01*
X33891Y-24798D01*
X33689Y-24882D01*
X33535Y-25036D01*
X33500Y-25120D01*
X33465Y-25036D01*
X33311Y-24882D01*
X33109Y-24798D01*
X32891Y-24798D01*
X32689Y-24882D01*
X32535Y-25036D01*
X32500Y-25120D01*
X32465Y-25036D01*
X32311Y-24882D01*
X32109Y-24798D01*
X31891Y-24798D01*
X31689Y-24882D01*
X31535Y-25036D01*
X31500Y-25120D01*
X31465Y-25036D01*
X31311Y-24882D01*
X31109Y-24798D01*
X30891Y-24798D01*
X30689Y-24882D01*
X30535Y-25036D01*
X30500Y-25120D01*
X30465Y-25036D01*
X30311Y-24882D01*
X30109Y-24798D01*
X29891Y-24798D01*
X29689Y-24882D01*
X29535Y-25036D01*
X29500Y-25120D01*
X29465Y-25036D01*
X29311Y-24882D01*
X29109Y-24798D01*
X28891Y-24798D01*
X28689Y-24882D01*
X28535Y-25036D01*
X28500Y-25120D01*
X28465Y-25036D01*
X28311Y-24882D01*
X28109Y-24798D01*
X27891Y-24798D01*
X27689Y-24882D01*
X27535Y-25036D01*
X27500Y-25120D01*
X27465Y-25036D01*
X27311Y-24882D01*
X27109Y-24798D01*
X26891Y-24798D01*
X26689Y-24882D01*
X26535Y-25036D01*
X26500Y-25120D01*
X26465Y-25036D01*
X26311Y-24882D01*
X26109Y-24798D01*
X25891Y-24798D01*
X25689Y-24882D01*
X25535Y-25036D01*
X25451Y-25238D01*
X25451Y-25456D01*
X25451Y-25762D01*
X25535Y-25964D01*
X25689Y-26118D01*
X25891Y-26202D01*
X26109Y-26202D01*
X26311Y-26118D01*
X26465Y-25964D01*
X26500Y-25879D01*
X26535Y-25964D01*
X26689Y-26118D01*
X26891Y-26202D01*
X27109Y-26202D01*
X27311Y-26118D01*
X27465Y-25964D01*
X27500Y-25879D01*
X27535Y-25964D01*
X27689Y-26118D01*
X27753Y-26145D01*
X27640Y-26259D01*
X27575Y-26415D01*
X27575Y-26584D01*
X27593Y-26630D01*
X25846Y-26630D01*
X25842Y-26609D01*
X25842Y-26608D01*
X25762Y-26488D01*
X25370Y-26096D01*
X25370Y-25000D01*
X25342Y-24858D01*
X25262Y-24738D01*
X25259Y-24736D01*
X24525Y-24001D01*
X24525Y-23896D01*
X24445Y-23703D01*
X24298Y-23555D01*
X24164Y-23499D01*
X24297Y-23445D01*
X24372Y-23370D01*
X25495Y-23370D01*
X25514Y-23416D01*
X25584Y-23486D01*
X25617Y-23500D01*
X25584Y-23514D01*
X25514Y-23584D01*
X25476Y-23675D01*
X25476Y-23774D01*
X25476Y-24324D01*
X25514Y-24416D01*
X25584Y-24486D01*
X25675Y-24524D01*
X25774Y-24524D01*
X26324Y-24524D01*
X26416Y-24486D01*
X26486Y-24416D01*
X26524Y-24325D01*
X26524Y-24226D01*
X26524Y-24222D01*
X26555Y-24297D01*
X26702Y-24445D01*
X26895Y-24525D01*
X27104Y-24525D01*
X27297Y-24445D01*
X27445Y-24298D01*
X27500Y-24164D01*
X27555Y-24297D01*
X27702Y-24445D01*
X27895Y-24525D01*
X28104Y-24525D01*
X28297Y-24445D01*
X28445Y-24298D01*
X28500Y-24164D01*
X28555Y-24297D01*
X28702Y-24445D01*
X28895Y-24525D01*
X29104Y-24525D01*
X29297Y-24445D01*
X29445Y-24298D01*
X29500Y-24164D01*
X29555Y-24297D01*
X29702Y-24445D01*
X29895Y-24525D01*
X30104Y-24525D01*
X30297Y-24445D01*
X30445Y-24298D01*
X30500Y-24164D01*
X30555Y-24297D01*
X30702Y-24445D01*
X30895Y-24525D01*
X31104Y-24525D01*
X31297Y-24445D01*
X31445Y-24298D01*
X31500Y-24164D01*
X31555Y-24297D01*
X31702Y-24445D01*
X31895Y-24525D01*
X32104Y-24525D01*
X32297Y-24445D01*
X32445Y-24298D01*
X32500Y-24164D01*
X32555Y-24297D01*
X32702Y-24445D01*
X32895Y-24525D01*
X33104Y-24525D01*
X33297Y-24445D01*
X33445Y-24298D01*
X33500Y-24164D01*
X33555Y-24297D01*
X33702Y-24445D01*
X33895Y-24525D01*
X34104Y-24525D01*
X34297Y-24445D01*
X34445Y-24298D01*
X34500Y-24164D01*
X34555Y-24297D01*
X34702Y-24445D01*
X34895Y-24525D01*
X35104Y-24525D01*
X35297Y-24445D01*
X35445Y-24298D01*
X35525Y-24105D01*
X35525Y-23896D01*
X35445Y-23703D01*
X35298Y-23555D01*
X35164Y-23499D01*
X35297Y-23445D01*
X35445Y-23298D01*
X35525Y-23105D01*
X35525Y-22896D01*
X35445Y-22703D01*
X35298Y-22555D01*
X35164Y-22499D01*
X35297Y-22445D01*
X35445Y-22298D01*
X35525Y-22105D01*
X35525Y-21896D01*
X35495Y-21825D01*
X35754Y-21825D01*
X35725Y-21895D01*
X35725Y-22104D01*
X35805Y-22297D01*
X35952Y-22445D01*
X36085Y-22500D01*
X35953Y-22555D01*
X35805Y-22702D01*
X35725Y-22895D01*
X35725Y-23104D01*
X35805Y-23297D01*
X35952Y-23445D01*
X36085Y-23500D01*
X35953Y-23555D01*
X35805Y-23702D01*
X35725Y-23895D01*
X35725Y-24104D01*
X35805Y-24297D01*
X35952Y-24445D01*
X36092Y-24503D01*
X35983Y-24548D01*
X35960Y-24639D01*
X36250Y-24929D01*
X36540Y-24639D01*
X36517Y-24548D01*
X36398Y-24506D01*
X36547Y-24445D01*
X36695Y-24298D01*
X36775Y-24105D01*
X36775Y-23896D01*
X36695Y-23703D01*
X36548Y-23555D01*
X36414Y-23499D01*
X36547Y-23445D01*
X36695Y-23298D01*
X36775Y-23105D01*
X36775Y-22896D01*
X36695Y-22703D01*
X36548Y-22555D01*
X36414Y-22499D01*
X36547Y-22445D01*
X36695Y-22298D01*
X36775Y-22105D01*
X36775Y-21896D01*
X36745Y-21825D01*
X38276Y-21825D01*
X38256Y-21874D01*
X38256Y-22125D01*
X38331Y-22307D01*
X38262Y-22238D01*
X38142Y-22158D01*
X38117Y-22153D01*
X38000Y-22129D01*
X37995Y-22130D01*
X37872Y-22130D01*
X37798Y-22055D01*
X37605Y-21975D01*
X37396Y-21975D01*
X37203Y-22055D01*
X37055Y-22202D01*
X36975Y-22395D01*
X36975Y-22604D01*
X37055Y-22797D01*
X37202Y-22945D01*
X37335Y-23000D01*
X37203Y-23055D01*
X37055Y-23202D01*
X36975Y-23395D01*
X36975Y-23604D01*
X37055Y-23797D01*
X37202Y-23945D01*
X37395Y-24025D01*
X37604Y-24025D01*
X37797Y-23945D01*
X37945Y-23798D01*
X38025Y-23605D01*
X38025Y-23396D01*
X37945Y-23203D01*
X37798Y-23055D01*
X37664Y-22999D01*
X37797Y-22945D01*
X37859Y-22883D01*
X38170Y-23193D01*
X38170Y-23365D01*
X38258Y-23578D01*
X38421Y-23741D01*
X38441Y-23749D01*
X38422Y-23758D01*
X38259Y-23921D01*
X38170Y-24134D01*
X38170Y-24365D01*
X38258Y-24578D01*
X38421Y-24741D01*
X38634Y-24830D01*
X38865Y-24830D01*
X39078Y-24742D01*
X39241Y-24579D01*
X39330Y-24366D01*
X39330Y-24135D01*
X39242Y-23922D01*
X39079Y-23759D01*
X39058Y-23750D01*
X39078Y-23742D01*
X39241Y-23579D01*
X39330Y-23366D01*
X39330Y-23135D01*
X39242Y-22922D01*
X39079Y-22759D01*
X38866Y-22670D01*
X38693Y-22670D01*
X38579Y-22555D01*
X38761Y-22631D01*
X39012Y-22631D01*
X39238Y-22631D01*
X39425Y-22553D01*
X39425Y-28151D01*
X39425Y-28151D01*
G37*
G54D22*
X39425Y-28151D02*
X39349Y-28075D01*
X39349Y-27881D01*
X39343Y-27866D01*
X39258Y-27661D01*
X39089Y-27492D01*
X39069Y-27484D01*
X39093Y-27414D01*
X38785Y-27106D01*
X38750Y-27071D01*
X38679Y-27000D01*
X38750Y-26929D01*
X38821Y-27000D01*
X38856Y-27035D01*
X39164Y-27343D01*
X39263Y-27310D01*
X39343Y-27091D01*
X39332Y-26856D01*
X39263Y-26690D01*
X39216Y-26674D01*
X39252Y-26639D01*
X39193Y-26580D01*
X39241Y-26561D01*
X39311Y-26491D01*
X39349Y-26400D01*
X39349Y-26301D01*
X39349Y-25601D01*
X39311Y-25509D01*
X39241Y-25439D01*
X39150Y-25401D01*
X39051Y-25401D01*
X38351Y-25401D01*
X38259Y-25439D01*
X38189Y-25509D01*
X38151Y-25600D01*
X38151Y-25699D01*
X38151Y-26399D01*
X38189Y-26491D01*
X38259Y-26561D01*
X38306Y-26580D01*
X38248Y-26639D01*
X38283Y-26674D01*
X38237Y-26690D01*
X38163Y-26890D01*
X37512Y-26238D01*
X37418Y-26175D01*
X37416Y-26174D01*
X37298Y-26055D01*
X37105Y-25975D01*
X36896Y-25975D01*
X36769Y-26027D01*
X36769Y-25074D01*
X36758Y-24870D01*
X36702Y-24733D01*
X36611Y-24710D01*
X36321Y-25000D01*
X36611Y-25290D01*
X36702Y-25267D01*
X36769Y-25074D01*
X36769Y-26027D01*
X36703Y-26055D01*
X36627Y-26130D01*
X36540Y-26130D01*
X36540Y-25361D01*
X36250Y-25071D01*
X36179Y-25142D01*
X36179Y-25000D01*
X35889Y-24710D01*
X35798Y-24733D01*
X35731Y-24926D01*
X35742Y-25130D01*
X35798Y-25267D01*
X35889Y-25290D01*
X36179Y-25000D01*
X36179Y-25142D01*
X35960Y-25361D01*
X35983Y-25452D01*
X36176Y-25519D01*
X36380Y-25508D01*
X36517Y-25452D01*
X36540Y-25361D01*
X36540Y-26130D01*
X36000Y-26130D01*
X35858Y-26158D01*
X35738Y-26238D01*
X35346Y-26630D01*
X30406Y-26630D01*
X30425Y-26585D01*
X30425Y-26416D01*
X30361Y-26260D01*
X30246Y-26145D01*
X30311Y-26118D01*
X30465Y-25964D01*
X30500Y-25879D01*
X30535Y-25964D01*
X30689Y-26118D01*
X30891Y-26202D01*
X31109Y-26202D01*
X31311Y-26118D01*
X31465Y-25964D01*
X31500Y-25879D01*
X31535Y-25964D01*
X31689Y-26118D01*
X31891Y-26202D01*
X32109Y-26202D01*
X32311Y-26118D01*
X32465Y-25964D01*
X32500Y-25879D01*
X32535Y-25964D01*
X32689Y-26118D01*
X32891Y-26202D01*
X33109Y-26202D01*
X33311Y-26118D01*
X33465Y-25964D01*
X33500Y-25879D01*
X33535Y-25964D01*
X33689Y-26118D01*
X33891Y-26202D01*
X34109Y-26202D01*
X34311Y-26118D01*
X34465Y-25964D01*
X34500Y-25879D01*
X34535Y-25964D01*
X34689Y-26118D01*
X34891Y-26202D01*
X35109Y-26202D01*
X35311Y-26118D01*
X35465Y-25964D01*
X35549Y-25762D01*
X35549Y-25544D01*
X35549Y-25238D01*
X35465Y-25036D01*
X35311Y-24882D01*
X35109Y-24798D01*
X34891Y-24798D01*
X34689Y-24882D01*
X34535Y-25036D01*
X34500Y-25120D01*
X34465Y-25036D01*
X34311Y-24882D01*
X34109Y-24798D01*
X33891Y-24798D01*
X33689Y-24882D01*
X33535Y-25036D01*
X33500Y-25120D01*
X33465Y-25036D01*
X33311Y-24882D01*
X33109Y-24798D01*
X32891Y-24798D01*
X32689Y-24882D01*
X32535Y-25036D01*
X32500Y-25120D01*
X32465Y-25036D01*
X32311Y-24882D01*
X32109Y-24798D01*
X31891Y-24798D01*
X31689Y-24882D01*
X31535Y-25036D01*
X31500Y-25120D01*
X31465Y-25036D01*
X31311Y-24882D01*
X31109Y-24798D01*
X30891Y-24798D01*
X30689Y-24882D01*
X30535Y-25036D01*
X30500Y-25120D01*
X30465Y-25036D01*
X30311Y-24882D01*
X30109Y-24798D01*
X29891Y-24798D01*
X29689Y-24882D01*
X29535Y-25036D01*
X29500Y-25120D01*
X29465Y-25036D01*
X29311Y-24882D01*
X29109Y-24798D01*
X28891Y-24798D01*
X28689Y-24882D01*
X28535Y-25036D01*
X28500Y-25120D01*
X28465Y-25036D01*
X28311Y-24882D01*
X28109Y-24798D01*
X27891Y-24798D01*
X27689Y-24882D01*
X27535Y-25036D01*
X27500Y-25120D01*
X27465Y-25036D01*
X27311Y-24882D01*
X27109Y-24798D01*
X26891Y-24798D01*
X26689Y-24882D01*
X26535Y-25036D01*
X26500Y-25120D01*
X26465Y-25036D01*
X26311Y-24882D01*
X26109Y-24798D01*
X25891Y-24798D01*
X25689Y-24882D01*
X25535Y-25036D01*
X25451Y-25238D01*
X25451Y-25456D01*
X25451Y-25762D01*
X25535Y-25964D01*
X25689Y-26118D01*
X25891Y-26202D01*
X26109Y-26202D01*
X26311Y-26118D01*
X26465Y-25964D01*
X26500Y-25879D01*
X26535Y-25964D01*
X26689Y-26118D01*
X26891Y-26202D01*
X27109Y-26202D01*
X27311Y-26118D01*
X27465Y-25964D01*
X27500Y-25879D01*
X27535Y-25964D01*
X27689Y-26118D01*
X27753Y-26145D01*
X27640Y-26259D01*
X27575Y-26415D01*
X27575Y-26584D01*
X27593Y-26630D01*
X25846Y-26630D01*
X25842Y-26609D01*
X25842Y-26608D01*
X25762Y-26488D01*
X25370Y-26096D01*
X25370Y-25000D01*
X25342Y-24858D01*
X25262Y-24738D01*
X25259Y-24736D01*
X24525Y-24001D01*
X24525Y-23896D01*
X24445Y-23703D01*
X24298Y-23555D01*
X24164Y-23499D01*
X24297Y-23445D01*
X24372Y-23370D01*
X25495Y-23370D01*
X25514Y-23416D01*
X25584Y-23486D01*
X25617Y-23500D01*
X25584Y-23514D01*
X25514Y-23584D01*
X25476Y-23675D01*
X25476Y-23774D01*
X25476Y-24324D01*
X25514Y-24416D01*
X25584Y-24486D01*
X25675Y-24524D01*
X25774Y-24524D01*
X26324Y-24524D01*
X26416Y-24486D01*
X26486Y-24416D01*
X26524Y-24325D01*
X26524Y-24226D01*
X26524Y-24222D01*
X26555Y-24297D01*
X26702Y-24445D01*
X26895Y-24525D01*
X27104Y-24525D01*
X27297Y-24445D01*
X27445Y-24298D01*
X27500Y-24164D01*
X27555Y-24297D01*
X27702Y-24445D01*
X27895Y-24525D01*
X28104Y-24525D01*
X28297Y-24445D01*
X28445Y-24298D01*
X28500Y-24164D01*
X28555Y-24297D01*
X28702Y-24445D01*
X28895Y-24525D01*
X29104Y-24525D01*
X29297Y-24445D01*
X29445Y-24298D01*
X29500Y-24164D01*
X29555Y-24297D01*
X29702Y-24445D01*
X29895Y-24525D01*
X30104Y-24525D01*
X30297Y-24445D01*
X30445Y-24298D01*
X30500Y-24164D01*
X30555Y-24297D01*
X30702Y-24445D01*
X30895Y-24525D01*
X31104Y-24525D01*
X31297Y-24445D01*
X31445Y-24298D01*
X31500Y-24164D01*
X31555Y-24297D01*
X31702Y-24445D01*
X31895Y-24525D01*
X32104Y-24525D01*
X32297Y-24445D01*
X32445Y-24298D01*
X32500Y-24164D01*
X32555Y-24297D01*
X32702Y-24445D01*
X32895Y-24525D01*
X33104Y-24525D01*
X33297Y-24445D01*
X33445Y-24298D01*
X33500Y-24164D01*
X33555Y-24297D01*
X33702Y-24445D01*
X33895Y-24525D01*
X34104Y-24525D01*
X34297Y-24445D01*
X34445Y-24298D01*
X34500Y-24164D01*
X34555Y-24297D01*
X34702Y-24445D01*
X34895Y-24525D01*
X35104Y-24525D01*
X35297Y-24445D01*
X35445Y-24298D01*
X35525Y-24105D01*
X35525Y-23896D01*
X35445Y-23703D01*
X35298Y-23555D01*
X35164Y-23499D01*
X35297Y-23445D01*
X35445Y-23298D01*
X35525Y-23105D01*
X35525Y-22896D01*
X35445Y-22703D01*
X35298Y-22555D01*
X35164Y-22499D01*
X35297Y-22445D01*
X35445Y-22298D01*
X35525Y-22105D01*
X35525Y-21896D01*
X35495Y-21825D01*
X35754Y-21825D01*
X35725Y-21895D01*
X35725Y-22104D01*
X35805Y-22297D01*
X35952Y-22445D01*
X36085Y-22500D01*
X35953Y-22555D01*
X35805Y-22702D01*
X35725Y-22895D01*
X35725Y-23104D01*
X35805Y-23297D01*
X35952Y-23445D01*
X36085Y-23500D01*
X35953Y-23555D01*
X35805Y-23702D01*
X35725Y-23895D01*
X35725Y-24104D01*
X35805Y-24297D01*
X35952Y-24445D01*
X36092Y-24503D01*
X35983Y-24548D01*
X35960Y-24639D01*
X36250Y-24929D01*
X36540Y-24639D01*
X36517Y-24548D01*
X36398Y-24506D01*
X36547Y-24445D01*
X36695Y-24298D01*
X36775Y-24105D01*
X36775Y-23896D01*
X36695Y-23703D01*
X36548Y-23555D01*
X36414Y-23499D01*
X36547Y-23445D01*
X36695Y-23298D01*
X36775Y-23105D01*
X36775Y-22896D01*
X36695Y-22703D01*
X36548Y-22555D01*
X36414Y-22499D01*
X36547Y-22445D01*
X36695Y-22298D01*
X36775Y-22105D01*
X36775Y-21896D01*
X36745Y-21825D01*
X38276Y-21825D01*
X38256Y-21874D01*
X38256Y-22125D01*
X38331Y-22307D01*
X38262Y-22238D01*
X38142Y-22158D01*
X38117Y-22153D01*
X38000Y-22129D01*
X37995Y-22130D01*
X37872Y-22130D01*
X37798Y-22055D01*
X37605Y-21975D01*
X37396Y-21975D01*
X37203Y-22055D01*
X37055Y-22202D01*
X36975Y-22395D01*
X36975Y-22604D01*
X37055Y-22797D01*
X37202Y-22945D01*
X37335Y-23000D01*
X37203Y-23055D01*
X37055Y-23202D01*
X36975Y-23395D01*
X36975Y-23604D01*
X37055Y-23797D01*
X37202Y-23945D01*
X37395Y-24025D01*
X37604Y-24025D01*
X37797Y-23945D01*
X37945Y-23798D01*
X38025Y-23605D01*
X38025Y-23396D01*
X37945Y-23203D01*
X37798Y-23055D01*
X37664Y-22999D01*
X37797Y-22945D01*
X37859Y-22883D01*
X38170Y-23193D01*
X38170Y-23365D01*
X38258Y-23578D01*
X38421Y-23741D01*
X38441Y-23749D01*
X38422Y-23758D01*
X38259Y-23921D01*
X38170Y-24134D01*
X38170Y-24365D01*
X38258Y-24578D01*
X38421Y-24741D01*
X38634Y-24830D01*
X38865Y-24830D01*
X39078Y-24742D01*
X39241Y-24579D01*
X39330Y-24366D01*
X39330Y-24135D01*
X39242Y-23922D01*
X39079Y-23759D01*
X39058Y-23750D01*
X39078Y-23742D01*
X39241Y-23579D01*
X39330Y-23366D01*
X39330Y-23135D01*
X39242Y-22922D01*
X39079Y-22759D01*
X38866Y-22670D01*
X38693Y-22670D01*
X38579Y-22555D01*
X38761Y-22631D01*
X39012Y-22631D01*
X39238Y-22631D01*
X39425Y-22553D01*
X39425Y-28151D01*
M02*
