G04 (created by PCBNEW-RS274X (2012-01-19 BZR 3256)-stable) date 1/1/2013 10:27:46 PM*
G01*
G70*
G90*
%MOIN*%
G04 Gerber Fmt 3.4, Leading zero omitted, Abs format*
%FSLAX34Y34*%
G04 APERTURE LIST*
%ADD10C,0.006000*%
%ADD11R,0.080000X0.060000*%
%ADD12R,0.047200X0.047200*%
%ADD13R,0.050000X0.038000*%
%ADD14R,0.055000X0.035000*%
%ADD15R,0.016000X0.050000*%
%ADD16R,0.080000X0.144000*%
%ADD17R,0.080000X0.040000*%
%ADD18R,0.035000X0.055000*%
G04 APERTURE END LIST*
G54D10*
G54D11*
X32500Y-26850D03*
X32500Y-28150D03*
G54D12*
X37250Y-29837D03*
X37250Y-30663D03*
X37250Y-25163D03*
X37250Y-24337D03*
G54D13*
X36000Y-31000D03*
X36000Y-31500D03*
X36000Y-32000D03*
X34000Y-23500D03*
X34000Y-24000D03*
X34000Y-24500D03*
G54D14*
X35750Y-23125D03*
X35750Y-23875D03*
X37250Y-28375D03*
X37250Y-29125D03*
X37250Y-25875D03*
X37250Y-26625D03*
G54D15*
X28350Y-28300D03*
X28600Y-28300D03*
X28860Y-28300D03*
X29120Y-28300D03*
X29370Y-28300D03*
X29630Y-28300D03*
X29890Y-28300D03*
X30140Y-28300D03*
X30400Y-28300D03*
X30650Y-28300D03*
X30650Y-26200D03*
X30400Y-26200D03*
X30140Y-26200D03*
X29890Y-26200D03*
X29630Y-26200D03*
X29370Y-26200D03*
X29120Y-26200D03*
X28860Y-26200D03*
X28600Y-26200D03*
X28350Y-26200D03*
G54D16*
X33700Y-27250D03*
G54D17*
X36300Y-27250D03*
X36300Y-26350D03*
X36300Y-28150D03*
G54D14*
X31500Y-27375D03*
X31500Y-28125D03*
X35000Y-23875D03*
X35000Y-23125D03*
G54D18*
X35125Y-25000D03*
X35875Y-25000D03*
M02*
