G04 (created by PCBNEW (2012-01-19 BZR 3256)-stable) date 1/1/2013 10:28:34 PM*
G01*
G70*
G90*
%MOIN*%
G04 Gerber Fmt 3.4, Leading zero omitted, Abs format*
%FSLAX34Y34*%
G04 APERTURE LIST*
%ADD10C,0.001000*%
%ADD11C,0.015000*%
%ADD12C,0.008000*%
G04 APERTURE END LIST*
G54D10*
G54D11*
X26500Y-32500D02*
X26500Y-22500D01*
X37750Y-32500D02*
X26500Y-32500D01*
X37750Y-22500D02*
X37750Y-32500D01*
X26500Y-22500D02*
X37750Y-22500D01*
G54D10*
X26840Y-22840D02*
X27160Y-23160D01*
X27160Y-22840D02*
X26840Y-23160D01*
X26840Y-23840D02*
X27160Y-24160D01*
X27160Y-23840D02*
X26840Y-24160D01*
X26840Y-24840D02*
X27160Y-25160D01*
X27160Y-24840D02*
X26840Y-25160D01*
X26840Y-25840D02*
X27160Y-26160D01*
X27160Y-25840D02*
X26840Y-26160D01*
X26840Y-26840D02*
X27160Y-27160D01*
X27160Y-26840D02*
X26840Y-27160D01*
X26840Y-27840D02*
X27160Y-28160D01*
X27160Y-27840D02*
X26840Y-28160D01*
X26840Y-28840D02*
X27160Y-29160D01*
X27160Y-28840D02*
X26840Y-29160D01*
X26840Y-29840D02*
X27160Y-30160D01*
X27160Y-29840D02*
X26840Y-30160D01*
X26840Y-30840D02*
X27160Y-31160D01*
X27160Y-30840D02*
X26840Y-31160D01*
X26840Y-31840D02*
X27160Y-32160D01*
X27160Y-31840D02*
X26840Y-32160D01*
X27840Y-22840D02*
X28160Y-23160D01*
X28160Y-22840D02*
X27840Y-23160D01*
X27840Y-23840D02*
X28160Y-24160D01*
X28160Y-23840D02*
X27840Y-24160D01*
X27840Y-24840D02*
X28160Y-25160D01*
X28160Y-24840D02*
X27840Y-25160D01*
X27840Y-29840D02*
X28160Y-30160D01*
X28160Y-29840D02*
X27840Y-30160D01*
X27840Y-30840D02*
X28160Y-31160D01*
X28160Y-30840D02*
X27840Y-31160D01*
X27840Y-31840D02*
X28160Y-32160D01*
X28160Y-31840D02*
X27840Y-32160D01*
X28840Y-22840D02*
X29160Y-23160D01*
X29160Y-22840D02*
X28840Y-23160D01*
X28840Y-23840D02*
X29160Y-24160D01*
X29160Y-23840D02*
X28840Y-24160D01*
X28840Y-24840D02*
X29160Y-25160D01*
X29160Y-24840D02*
X28840Y-25160D01*
X28840Y-29840D02*
X29160Y-30160D01*
X29160Y-29840D02*
X28840Y-30160D01*
X28840Y-30840D02*
X29160Y-31160D01*
X29160Y-30840D02*
X28840Y-31160D01*
X28840Y-31840D02*
X29160Y-32160D01*
X29160Y-31840D02*
X28840Y-32160D01*
X29840Y-22840D02*
X30160Y-23160D01*
X30160Y-22840D02*
X29840Y-23160D01*
X29840Y-23840D02*
X30160Y-24160D01*
X30160Y-23840D02*
X29840Y-24160D01*
X29840Y-24840D02*
X30160Y-25160D01*
X30160Y-24840D02*
X29840Y-25160D01*
X29840Y-29840D02*
X30160Y-30160D01*
X30160Y-29840D02*
X29840Y-30160D01*
X29840Y-30840D02*
X30160Y-31160D01*
X30160Y-30840D02*
X29840Y-31160D01*
X29840Y-31840D02*
X30160Y-32160D01*
X30160Y-31840D02*
X29840Y-32160D01*
X30840Y-22840D02*
X31160Y-23160D01*
X31160Y-22840D02*
X30840Y-23160D01*
X30840Y-23840D02*
X31160Y-24160D01*
X31160Y-23840D02*
X30840Y-24160D01*
X30840Y-24840D02*
X31160Y-25160D01*
X31160Y-24840D02*
X30840Y-25160D01*
X30840Y-29840D02*
X31160Y-30160D01*
X31160Y-29840D02*
X30840Y-30160D01*
X30840Y-30840D02*
X31160Y-31160D01*
X31160Y-30840D02*
X30840Y-31160D01*
X30840Y-31840D02*
X31160Y-32160D01*
X31160Y-31840D02*
X30840Y-32160D01*
X31840Y-22840D02*
X32160Y-23160D01*
X32160Y-22840D02*
X31840Y-23160D01*
X31840Y-23840D02*
X32160Y-24160D01*
X32160Y-23840D02*
X31840Y-24160D01*
X31840Y-24840D02*
X32160Y-25160D01*
X32160Y-24840D02*
X31840Y-25160D01*
X31840Y-29840D02*
X32160Y-30160D01*
X32160Y-29840D02*
X31840Y-30160D01*
X31840Y-30840D02*
X32160Y-31160D01*
X32160Y-30840D02*
X31840Y-31160D01*
X31840Y-31840D02*
X32160Y-32160D01*
X32160Y-31840D02*
X31840Y-32160D01*
X32840Y-22840D02*
X33160Y-23160D01*
X33160Y-22840D02*
X32840Y-23160D01*
X32840Y-23840D02*
X33160Y-24160D01*
X33160Y-23840D02*
X32840Y-24160D01*
X32840Y-24840D02*
X33160Y-25160D01*
X33160Y-24840D02*
X32840Y-25160D01*
X32840Y-29840D02*
X33160Y-30160D01*
X33160Y-29840D02*
X32840Y-30160D01*
X32840Y-30840D02*
X33160Y-31160D01*
X33160Y-30840D02*
X32840Y-31160D01*
X32840Y-31840D02*
X33160Y-32160D01*
X33160Y-31840D02*
X32840Y-32160D01*
X33840Y-29840D02*
X34160Y-30160D01*
X34160Y-29840D02*
X33840Y-30160D01*
X33840Y-30840D02*
X34160Y-31160D01*
X34160Y-30840D02*
X33840Y-31160D01*
X33840Y-31840D02*
X34160Y-32160D01*
X34160Y-31840D02*
X33840Y-32160D01*
X34840Y-29840D02*
X35160Y-30160D01*
X35160Y-29840D02*
X34840Y-30160D01*
X34840Y-30840D02*
X35160Y-31160D01*
X35160Y-30840D02*
X34840Y-31160D01*
X34840Y-31840D02*
X35160Y-32160D01*
X35160Y-31840D02*
X34840Y-32160D01*
X36840Y-22840D02*
X37160Y-23160D01*
X37160Y-22840D02*
X36840Y-23160D01*
X36840Y-31840D02*
X37160Y-32160D01*
X37160Y-31840D02*
X36840Y-32160D01*
G54D12*
X23938Y-36454D02*
X23938Y-35654D01*
X24129Y-35654D01*
X24243Y-35692D01*
X24319Y-35768D01*
X24358Y-35844D01*
X24396Y-35997D01*
X24396Y-36111D01*
X24358Y-36263D01*
X24319Y-36340D01*
X24243Y-36416D01*
X24129Y-36454D01*
X23938Y-36454D01*
X24738Y-36454D02*
X24738Y-35920D01*
X24738Y-36073D02*
X24777Y-35997D01*
X24815Y-35959D01*
X24891Y-35920D01*
X24967Y-35920D01*
X25233Y-36454D02*
X25233Y-35920D01*
X25233Y-35654D02*
X25195Y-35692D01*
X25233Y-35730D01*
X25272Y-35692D01*
X25233Y-35654D01*
X25233Y-35730D01*
X25729Y-36454D02*
X25653Y-36416D01*
X25614Y-36340D01*
X25614Y-35654D01*
X26148Y-36454D02*
X26072Y-36416D01*
X26033Y-36340D01*
X26033Y-35654D01*
X27062Y-36454D02*
X27062Y-35654D01*
X27329Y-36225D01*
X27596Y-35654D01*
X27596Y-36454D01*
X28319Y-36454D02*
X28319Y-36035D01*
X28281Y-35959D01*
X28205Y-35920D01*
X28053Y-35920D01*
X27976Y-35959D01*
X28319Y-36416D02*
X28243Y-36454D01*
X28053Y-36454D01*
X27976Y-36416D01*
X27938Y-36340D01*
X27938Y-36263D01*
X27976Y-36187D01*
X28053Y-36149D01*
X28243Y-36149D01*
X28319Y-36111D01*
X28700Y-35920D02*
X28700Y-36720D01*
X28700Y-35959D02*
X28777Y-35920D01*
X28929Y-35920D01*
X29005Y-35959D01*
X29043Y-35997D01*
X29081Y-36073D01*
X29081Y-36301D01*
X29043Y-36378D01*
X29005Y-36416D01*
X28929Y-36454D01*
X28777Y-36454D01*
X28700Y-36416D01*
X29424Y-36378D02*
X29463Y-36416D01*
X29424Y-36454D01*
X29386Y-36416D01*
X29424Y-36378D01*
X29424Y-36454D01*
X29424Y-35959D02*
X29463Y-35997D01*
X29424Y-36035D01*
X29386Y-35997D01*
X29424Y-35959D01*
X29424Y-36035D01*
X23228Y-37650D02*
X23548Y-37970D01*
X23548Y-37650D02*
X23228Y-37970D01*
X24091Y-37334D02*
X24167Y-37334D01*
X24243Y-37372D01*
X24281Y-37410D01*
X24319Y-37486D01*
X24358Y-37639D01*
X24358Y-37829D01*
X24319Y-37981D01*
X24281Y-38058D01*
X24243Y-38096D01*
X24167Y-38134D01*
X24091Y-38134D01*
X24015Y-38096D01*
X23977Y-38058D01*
X23938Y-37981D01*
X23900Y-37829D01*
X23900Y-37639D01*
X23938Y-37486D01*
X23977Y-37410D01*
X24015Y-37372D01*
X24091Y-37334D01*
X24700Y-38058D02*
X24739Y-38096D01*
X24700Y-38134D01*
X24662Y-38096D01*
X24700Y-38058D01*
X24700Y-38134D01*
X25234Y-37334D02*
X25310Y-37334D01*
X25386Y-37372D01*
X25424Y-37410D01*
X25462Y-37486D01*
X25501Y-37639D01*
X25501Y-37829D01*
X25462Y-37981D01*
X25424Y-38058D01*
X25386Y-38096D01*
X25310Y-38134D01*
X25234Y-38134D01*
X25158Y-38096D01*
X25120Y-38058D01*
X25081Y-37981D01*
X25043Y-37829D01*
X25043Y-37639D01*
X25081Y-37486D01*
X25120Y-37410D01*
X25158Y-37372D01*
X25234Y-37334D01*
X25767Y-37334D02*
X26263Y-37334D01*
X25996Y-37639D01*
X26110Y-37639D01*
X26186Y-37677D01*
X26224Y-37715D01*
X26263Y-37791D01*
X26263Y-37981D01*
X26224Y-38058D01*
X26186Y-38096D01*
X26110Y-38134D01*
X25882Y-38134D01*
X25805Y-38096D01*
X25767Y-38058D01*
X26567Y-37410D02*
X26605Y-37372D01*
X26682Y-37334D01*
X26872Y-37334D01*
X26948Y-37372D01*
X26986Y-37410D01*
X27025Y-37486D01*
X27025Y-37562D01*
X26986Y-37677D01*
X26529Y-38134D01*
X27025Y-38134D01*
X27329Y-37334D02*
X27329Y-37486D01*
X27634Y-37334D02*
X27634Y-37486D01*
X29159Y-37296D02*
X28473Y-38324D01*
X30188Y-37334D02*
X30264Y-37334D01*
X30340Y-37372D01*
X30378Y-37410D01*
X30416Y-37486D01*
X30455Y-37639D01*
X30455Y-37829D01*
X30416Y-37981D01*
X30378Y-38058D01*
X30340Y-38096D01*
X30264Y-38134D01*
X30188Y-38134D01*
X30112Y-38096D01*
X30074Y-38058D01*
X30035Y-37981D01*
X29997Y-37829D01*
X29997Y-37639D01*
X30035Y-37486D01*
X30074Y-37410D01*
X30112Y-37372D01*
X30188Y-37334D01*
X30797Y-38058D02*
X30836Y-38096D01*
X30797Y-38134D01*
X30759Y-38096D01*
X30797Y-38058D01*
X30797Y-38134D01*
X31293Y-37677D02*
X31217Y-37639D01*
X31178Y-37600D01*
X31140Y-37524D01*
X31140Y-37486D01*
X31178Y-37410D01*
X31217Y-37372D01*
X31293Y-37334D01*
X31445Y-37334D01*
X31521Y-37372D01*
X31559Y-37410D01*
X31598Y-37486D01*
X31598Y-37524D01*
X31559Y-37600D01*
X31521Y-37639D01*
X31445Y-37677D01*
X31293Y-37677D01*
X31217Y-37715D01*
X31178Y-37753D01*
X31140Y-37829D01*
X31140Y-37981D01*
X31178Y-38058D01*
X31217Y-38096D01*
X31293Y-38134D01*
X31445Y-38134D01*
X31521Y-38096D01*
X31559Y-38058D01*
X31598Y-37981D01*
X31598Y-37829D01*
X31559Y-37753D01*
X31521Y-37715D01*
X31445Y-37677D01*
X32360Y-38134D02*
X31902Y-38134D01*
X32131Y-38134D02*
X32131Y-37334D01*
X32055Y-37448D01*
X31979Y-37524D01*
X31902Y-37562D01*
X32702Y-38134D02*
X32702Y-37600D01*
X32702Y-37677D02*
X32741Y-37639D01*
X32817Y-37600D01*
X32931Y-37600D01*
X33007Y-37639D01*
X33045Y-37715D01*
X33045Y-38134D01*
X33045Y-37715D02*
X33083Y-37639D01*
X33160Y-37600D01*
X33274Y-37600D01*
X33350Y-37639D01*
X33388Y-37715D01*
X33388Y-38134D01*
X33769Y-38134D02*
X33769Y-37600D01*
X33769Y-37677D02*
X33808Y-37639D01*
X33884Y-37600D01*
X33998Y-37600D01*
X34074Y-37639D01*
X34112Y-37715D01*
X34112Y-38134D01*
X34112Y-37715D02*
X34150Y-37639D01*
X34227Y-37600D01*
X34341Y-37600D01*
X34417Y-37639D01*
X34455Y-37715D01*
X34455Y-38134D01*
X35675Y-38439D02*
X35637Y-38400D01*
X35561Y-38286D01*
X35523Y-38210D01*
X35485Y-38096D01*
X35446Y-37905D01*
X35446Y-37753D01*
X35485Y-37562D01*
X35523Y-37448D01*
X35561Y-37372D01*
X35637Y-37258D01*
X35675Y-37220D01*
X36360Y-37334D02*
X35979Y-37334D01*
X35941Y-37715D01*
X35979Y-37677D01*
X36056Y-37639D01*
X36246Y-37639D01*
X36322Y-37677D01*
X36360Y-37715D01*
X36399Y-37791D01*
X36399Y-37981D01*
X36360Y-38058D01*
X36322Y-38096D01*
X36246Y-38134D01*
X36056Y-38134D01*
X35979Y-38096D01*
X35941Y-38058D01*
X37084Y-37600D02*
X37084Y-38134D01*
X36894Y-37296D02*
X36703Y-37867D01*
X37199Y-37867D01*
X38113Y-38134D02*
X38113Y-37334D01*
X38456Y-38134D02*
X38456Y-37715D01*
X38418Y-37639D01*
X38342Y-37600D01*
X38228Y-37600D01*
X38152Y-37639D01*
X38113Y-37677D01*
X38952Y-38134D02*
X38876Y-38096D01*
X38837Y-38058D01*
X38799Y-37981D01*
X38799Y-37753D01*
X38837Y-37677D01*
X38876Y-37639D01*
X38952Y-37600D01*
X39066Y-37600D01*
X39142Y-37639D01*
X39180Y-37677D01*
X39218Y-37753D01*
X39218Y-37981D01*
X39180Y-38058D01*
X39142Y-38096D01*
X39066Y-38134D01*
X38952Y-38134D01*
X39676Y-38134D02*
X39600Y-38096D01*
X39561Y-38020D01*
X39561Y-37334D01*
X40285Y-38096D02*
X40209Y-38134D01*
X40057Y-38134D01*
X39980Y-38096D01*
X39942Y-38020D01*
X39942Y-37715D01*
X39980Y-37639D01*
X40057Y-37600D01*
X40209Y-37600D01*
X40285Y-37639D01*
X40323Y-37715D01*
X40323Y-37791D01*
X39942Y-37867D01*
X40628Y-38096D02*
X40705Y-38134D01*
X40857Y-38134D01*
X40933Y-38096D01*
X40971Y-38020D01*
X40971Y-37981D01*
X40933Y-37905D01*
X40857Y-37867D01*
X40743Y-37867D01*
X40666Y-37829D01*
X40628Y-37753D01*
X40628Y-37715D01*
X40666Y-37639D01*
X40743Y-37600D01*
X40857Y-37600D01*
X40933Y-37639D01*
X41238Y-38439D02*
X41276Y-38400D01*
X41353Y-38286D01*
X41391Y-38210D01*
X41429Y-38096D01*
X41467Y-37905D01*
X41467Y-37753D01*
X41429Y-37562D01*
X41391Y-37448D01*
X41353Y-37372D01*
X41276Y-37258D01*
X41238Y-37220D01*
M02*
