G04 (created by PCBNEW-RS274X (2012-01-19 BZR 3256)-stable) date 1/1/2013 10:27:46 PM*
G01*
G70*
G90*
%MOIN*%
G04 Gerber Fmt 3.4, Leading zero omitted, Abs format*
%FSLAX34Y34*%
G04 APERTURE LIST*
%ADD10C,0.006000*%
%ADD11C,0.012000*%
G04 APERTURE END LIST*
G54D10*
G54D11*
X29640Y-19461D02*
X29669Y-19423D01*
X29726Y-19385D01*
X29869Y-19385D01*
X29926Y-19423D01*
X29955Y-19461D01*
X29983Y-19537D01*
X29983Y-19613D01*
X29955Y-19728D01*
X29612Y-20185D01*
X29983Y-20185D01*
X30326Y-19728D02*
X30268Y-19690D01*
X30240Y-19651D01*
X30211Y-19575D01*
X30211Y-19537D01*
X30240Y-19461D01*
X30268Y-19423D01*
X30326Y-19385D01*
X30440Y-19385D01*
X30497Y-19423D01*
X30526Y-19461D01*
X30554Y-19537D01*
X30554Y-19575D01*
X30526Y-19651D01*
X30497Y-19690D01*
X30440Y-19728D01*
X30326Y-19728D01*
X30268Y-19766D01*
X30240Y-19804D01*
X30211Y-19880D01*
X30211Y-20032D01*
X30240Y-20109D01*
X30268Y-20147D01*
X30326Y-20185D01*
X30440Y-20185D01*
X30497Y-20147D01*
X30526Y-20109D01*
X30554Y-20032D01*
X30554Y-19880D01*
X30526Y-19804D01*
X30497Y-19766D01*
X30440Y-19728D01*
X30811Y-20109D02*
X30839Y-20147D01*
X30811Y-20185D01*
X30782Y-20147D01*
X30811Y-20109D01*
X30811Y-20185D01*
X31383Y-19385D02*
X31097Y-19385D01*
X31068Y-19766D01*
X31097Y-19728D01*
X31154Y-19690D01*
X31297Y-19690D01*
X31354Y-19728D01*
X31383Y-19766D01*
X31411Y-19842D01*
X31411Y-20032D01*
X31383Y-20109D01*
X31354Y-20147D01*
X31297Y-20185D01*
X31154Y-20185D01*
X31097Y-20147D01*
X31068Y-20109D01*
X31611Y-19385D02*
X32011Y-19385D01*
X31754Y-20185D01*
X32525Y-19385D02*
X32239Y-19385D01*
X32210Y-19766D01*
X32239Y-19728D01*
X32296Y-19690D01*
X32439Y-19690D01*
X32496Y-19728D01*
X32525Y-19766D01*
X32553Y-19842D01*
X32553Y-20032D01*
X32525Y-20109D01*
X32496Y-20147D01*
X32439Y-20185D01*
X32296Y-20185D01*
X32239Y-20147D01*
X32210Y-20109D01*
X33267Y-20185D02*
X33267Y-19651D01*
X33267Y-19728D02*
X33295Y-19690D01*
X33353Y-19651D01*
X33438Y-19651D01*
X33495Y-19690D01*
X33524Y-19766D01*
X33524Y-20185D01*
X33524Y-19766D02*
X33553Y-19690D01*
X33610Y-19651D01*
X33695Y-19651D01*
X33753Y-19690D01*
X33781Y-19766D01*
X33781Y-20185D01*
X34067Y-20185D02*
X34067Y-19651D01*
X34067Y-19728D02*
X34095Y-19690D01*
X34153Y-19651D01*
X34238Y-19651D01*
X34295Y-19690D01*
X34324Y-19766D01*
X34324Y-20185D01*
X34324Y-19766D02*
X34353Y-19690D01*
X34410Y-19651D01*
X34495Y-19651D01*
X34553Y-19690D01*
X34581Y-19766D01*
X34581Y-20185D01*
X26500Y-20501D02*
X37750Y-20501D01*
X26500Y-22500D02*
X26500Y-19221D01*
X37750Y-22500D02*
X37750Y-19221D01*
X37750Y-20501D02*
X37307Y-20731D01*
X37750Y-20501D02*
X37307Y-20271D01*
X26500Y-20501D02*
X26943Y-20731D01*
X26500Y-20501D02*
X26943Y-20271D01*
X40289Y-25015D02*
X40327Y-25044D01*
X40365Y-25101D01*
X40365Y-25244D01*
X40327Y-25301D01*
X40289Y-25330D01*
X40213Y-25358D01*
X40137Y-25358D01*
X40022Y-25330D01*
X39565Y-24987D01*
X39565Y-25358D01*
X40365Y-25901D02*
X40365Y-25615D01*
X39984Y-25586D01*
X40022Y-25615D01*
X40060Y-25672D01*
X40060Y-25815D01*
X40022Y-25872D01*
X39984Y-25901D01*
X39908Y-25929D01*
X39718Y-25929D01*
X39641Y-25901D01*
X39603Y-25872D01*
X39565Y-25815D01*
X39565Y-25672D01*
X39603Y-25615D01*
X39641Y-25586D01*
X39641Y-26186D02*
X39603Y-26214D01*
X39565Y-26186D01*
X39603Y-26157D01*
X39641Y-26186D01*
X39565Y-26186D01*
X40099Y-26729D02*
X39565Y-26729D01*
X40403Y-26586D02*
X39832Y-26443D01*
X39832Y-26815D01*
X40365Y-27157D02*
X40365Y-27214D01*
X40327Y-27271D01*
X40289Y-27300D01*
X40213Y-27329D01*
X40060Y-27357D01*
X39870Y-27357D01*
X39718Y-27329D01*
X39641Y-27300D01*
X39603Y-27271D01*
X39565Y-27214D01*
X39565Y-27157D01*
X39603Y-27100D01*
X39641Y-27071D01*
X39718Y-27043D01*
X39870Y-27014D01*
X40060Y-27014D01*
X40213Y-27043D01*
X40289Y-27071D01*
X40327Y-27100D01*
X40365Y-27157D01*
X40365Y-27728D02*
X40365Y-27785D01*
X40327Y-27842D01*
X40289Y-27871D01*
X40213Y-27900D01*
X40060Y-27928D01*
X39870Y-27928D01*
X39718Y-27900D01*
X39641Y-27871D01*
X39603Y-27842D01*
X39565Y-27785D01*
X39565Y-27728D01*
X39603Y-27671D01*
X39641Y-27642D01*
X39718Y-27614D01*
X39870Y-27585D01*
X40060Y-27585D01*
X40213Y-27614D01*
X40289Y-27642D01*
X40327Y-27671D01*
X40365Y-27728D01*
X39565Y-28642D02*
X40099Y-28642D01*
X40022Y-28642D02*
X40060Y-28670D01*
X40099Y-28728D01*
X40099Y-28813D01*
X40060Y-28870D01*
X39984Y-28899D01*
X39565Y-28899D01*
X39984Y-28899D02*
X40060Y-28928D01*
X40099Y-28985D01*
X40099Y-29070D01*
X40060Y-29128D01*
X39984Y-29156D01*
X39565Y-29156D01*
X39565Y-29442D02*
X40099Y-29442D01*
X40022Y-29442D02*
X40060Y-29470D01*
X40099Y-29528D01*
X40099Y-29613D01*
X40060Y-29670D01*
X39984Y-29699D01*
X39565Y-29699D01*
X39984Y-29699D02*
X40060Y-29728D01*
X40099Y-29785D01*
X40099Y-29870D01*
X40060Y-29928D01*
X39984Y-29956D01*
X39565Y-29956D01*
X39249Y-22500D02*
X39249Y-32500D01*
X37750Y-22500D02*
X40529Y-22500D01*
X37750Y-32500D02*
X40529Y-32500D01*
X39249Y-32500D02*
X39019Y-32057D01*
X39249Y-32500D02*
X39479Y-32057D01*
X39249Y-22500D02*
X39019Y-22943D01*
X39249Y-22500D02*
X39479Y-22943D01*
M02*
