G04 (created by PCBNEW-RS274X (2012-01-19 BZR 3256)-stable) date 1/5/2013 5:07:44 PM*
G01*
G70*
G90*
%MOIN*%
G04 Gerber Fmt 3.4, Leading zero omitted, Abs format*
%FSLAX34Y34*%
G04 APERTURE LIST*
%ADD10C,0.006000*%
%ADD11O,0.118400X0.098700*%
%ADD12R,0.075000X0.075000*%
%ADD13C,0.075000*%
G04 APERTURE END LIST*
G54D10*
G54D11*
X37000Y-32000D03*
X37000Y-23000D03*
G54D12*
X27000Y-29000D03*
G54D13*
X27000Y-28000D03*
X27000Y-27000D03*
X27000Y-26000D03*
G54D12*
X27000Y-30000D03*
G54D13*
X28000Y-30000D03*
X29000Y-30000D03*
X30000Y-30000D03*
X31000Y-30000D03*
X32000Y-30000D03*
X33000Y-30000D03*
X34000Y-30000D03*
X35000Y-30000D03*
G54D12*
X27000Y-25000D03*
G54D13*
X28000Y-25000D03*
X29000Y-25000D03*
X30000Y-25000D03*
X31000Y-25000D03*
X32000Y-25000D03*
X33000Y-25000D03*
G54D12*
X27000Y-31000D03*
G54D13*
X28000Y-31000D03*
X29000Y-31000D03*
X30000Y-31000D03*
X31000Y-31000D03*
X32000Y-31000D03*
X33000Y-31000D03*
X34000Y-31000D03*
X35000Y-31000D03*
G54D12*
X27000Y-24000D03*
G54D13*
X28000Y-24000D03*
X29000Y-24000D03*
X30000Y-24000D03*
X31000Y-24000D03*
X32000Y-24000D03*
X33000Y-24000D03*
G54D12*
X27000Y-32000D03*
G54D13*
X28000Y-32000D03*
X29000Y-32000D03*
X30000Y-32000D03*
X31000Y-32000D03*
X32000Y-32000D03*
X33000Y-32000D03*
X34000Y-32000D03*
X35000Y-32000D03*
G54D12*
X27000Y-23000D03*
G54D13*
X28000Y-23000D03*
X29000Y-23000D03*
X30000Y-23000D03*
X31000Y-23000D03*
X32000Y-23000D03*
X33000Y-23000D03*
M02*
