M48
;DRILL file {Pcbnew (2012-01-19 BZR 3256)-stable} date 2/25/2013 10:00:19 PM
;FORMAT={-:-/ absolute / inch / decimal}
FMAT,2
INCH,TZ
T1C0.024
T2C0.032
T3C0.039
%
G90
G05
M72
T1
X2.800Y-2.650
X2.970Y-2.590
X3.390Y-2.560
X3.410Y-2.460
X3.440Y-2.640
X3.600Y-2.920
X3.650Y-2.560
X3.670Y-3.090
T2
X2.700Y-2.300
X2.700Y-2.400
X2.700Y-2.500
X2.700Y-2.600
X2.700Y-2.700
X2.700Y-2.800
X2.700Y-2.900
X2.700Y-3.000
X2.700Y-3.100
X2.700Y-3.200
X2.800Y-2.300
X2.800Y-2.400
X2.800Y-2.500
X2.800Y-3.000
X2.800Y-3.100
X2.800Y-3.200
X2.900Y-2.300
X2.900Y-2.400
X2.900Y-2.500
X2.900Y-3.000
X2.900Y-3.100
X2.900Y-3.200
X3.000Y-2.300
X3.000Y-2.400
X3.000Y-2.500
X3.000Y-3.000
X3.000Y-3.100
X3.000Y-3.200
X3.100Y-2.300
X3.100Y-2.400
X3.100Y-2.500
X3.100Y-3.000
X3.100Y-3.100
X3.100Y-3.200
X3.200Y-2.300
X3.200Y-2.400
X3.200Y-2.500
X3.200Y-3.000
X3.200Y-3.100
X3.200Y-3.200
X3.300Y-2.300
X3.300Y-2.400
X3.300Y-2.500
X3.300Y-3.000
X3.300Y-3.100
X3.300Y-3.200
X3.400Y-3.000
X3.400Y-3.100
X3.400Y-3.200
X3.500Y-3.000
X3.500Y-3.100
X3.500Y-3.200
T3
X3.700Y-2.300
X3.700Y-3.200
T0
M30
