G04 (created by PCBNEW-RS274X (2012-01-19 BZR 3256)-stable) date 1/1/2013 10:27:46 PM*
G01*
G70*
G90*
%MOIN*%
G04 Gerber Fmt 3.4, Leading zero omitted, Abs format*
%FSLAX34Y34*%
G04 APERTURE LIST*
%ADD10C,0.006000*%
%ADD11O,0.098400X0.078700*%
%ADD12R,0.055000X0.055000*%
%ADD13C,0.055000*%
%ADD14C,0.024000*%
%ADD15C,0.010000*%
G04 APERTURE END LIST*
G54D10*
G54D11*
X37000Y-32000D03*
X37000Y-23000D03*
G54D12*
X27000Y-29000D03*
G54D13*
X27000Y-28000D03*
X27000Y-27000D03*
X27000Y-26000D03*
G54D12*
X27000Y-30000D03*
G54D13*
X28000Y-30000D03*
X29000Y-30000D03*
X30000Y-30000D03*
X31000Y-30000D03*
X32000Y-30000D03*
X33000Y-30000D03*
X34000Y-30000D03*
X35000Y-30000D03*
G54D12*
X27000Y-25000D03*
G54D13*
X28000Y-25000D03*
X29000Y-25000D03*
X30000Y-25000D03*
X31000Y-25000D03*
X32000Y-25000D03*
X33000Y-25000D03*
G54D12*
X27000Y-31000D03*
G54D13*
X28000Y-31000D03*
X29000Y-31000D03*
X30000Y-31000D03*
X31000Y-31000D03*
X32000Y-31000D03*
X33000Y-31000D03*
X34000Y-31000D03*
X35000Y-31000D03*
G54D12*
X27000Y-24000D03*
G54D13*
X28000Y-24000D03*
X29000Y-24000D03*
X30000Y-24000D03*
X31000Y-24000D03*
X32000Y-24000D03*
X33000Y-24000D03*
G54D12*
X27000Y-32000D03*
G54D13*
X28000Y-32000D03*
X29000Y-32000D03*
X30000Y-32000D03*
X31000Y-32000D03*
X32000Y-32000D03*
X33000Y-32000D03*
X34000Y-32000D03*
X35000Y-32000D03*
G54D12*
X27000Y-23000D03*
G54D13*
X28000Y-23000D03*
X29000Y-23000D03*
X30000Y-23000D03*
X31000Y-23000D03*
X32000Y-23000D03*
X33000Y-23000D03*
G54D14*
X30000Y-23000D02*
X31000Y-23000D01*
X27000Y-23000D02*
X28000Y-23000D01*
X32000Y-23000D02*
X33000Y-23000D01*
X29000Y-23000D02*
X28000Y-23000D01*
X33000Y-32000D02*
X34000Y-32000D01*
X34000Y-32000D02*
X35000Y-32000D01*
X32000Y-32000D02*
X33000Y-32000D01*
X31000Y-23000D02*
X32000Y-23000D01*
X29000Y-32000D02*
X30000Y-32000D01*
X31000Y-32000D02*
X32000Y-32000D01*
X27000Y-32000D02*
X28000Y-32000D01*
X29000Y-23000D02*
X30000Y-23000D01*
X28000Y-32000D02*
X29000Y-32000D01*
X28000Y-23000D02*
X29000Y-23000D01*
X30000Y-32000D02*
X31000Y-32000D01*
X30000Y-24000D02*
X29000Y-24000D01*
X33000Y-24000D02*
X32000Y-24000D01*
X28000Y-24000D02*
X27000Y-24000D01*
X29000Y-24000D02*
X28000Y-24000D01*
X31000Y-24000D02*
X30000Y-24000D01*
X32000Y-24000D02*
X31000Y-24000D01*
G54D10*
G36*
X27050Y-23050D02*
X26950Y-23050D01*
X26950Y-22950D01*
X27050Y-22950D01*
X27050Y-23050D01*
X27050Y-23050D01*
G37*
G54D15*
X27050Y-23050D02*
X26950Y-23050D01*
X26950Y-22950D01*
X27050Y-22950D01*
X27050Y-23050D01*
G54D10*
G36*
X27050Y-32050D02*
X26950Y-32050D01*
X26950Y-31950D01*
X27050Y-31950D01*
X27050Y-32050D01*
X27050Y-32050D01*
G37*
G54D15*
X27050Y-32050D02*
X26950Y-32050D01*
X26950Y-31950D01*
X27050Y-31950D01*
X27050Y-32050D01*
G54D10*
G36*
X37425Y-31445D02*
X37239Y-31369D01*
X36988Y-31369D01*
X36950Y-31369D01*
X36950Y-23574D01*
X36950Y-23050D01*
X36323Y-23050D01*
X36276Y-23150D01*
X36294Y-23196D01*
X36415Y-23413D01*
X36610Y-23568D01*
X36850Y-23636D01*
X36950Y-23574D01*
X36950Y-31369D01*
X36762Y-31369D01*
X36530Y-31465D01*
X36352Y-31642D01*
X36256Y-31874D01*
X36256Y-32125D01*
X36276Y-32175D01*
X35483Y-32175D01*
X35519Y-32074D01*
X35508Y-31870D01*
X35452Y-31733D01*
X35361Y-31710D01*
X35106Y-31965D01*
X35071Y-32000D01*
X35000Y-32071D01*
X34929Y-32000D01*
X34894Y-31965D01*
X34639Y-31710D01*
X34548Y-31733D01*
X34503Y-31859D01*
X34452Y-31733D01*
X34361Y-31710D01*
X34106Y-31965D01*
X34071Y-32000D01*
X34000Y-32071D01*
X33929Y-32000D01*
X33894Y-31965D01*
X33639Y-31710D01*
X33548Y-31733D01*
X33503Y-31859D01*
X33452Y-31733D01*
X33361Y-31710D01*
X33106Y-31965D01*
X33071Y-32000D01*
X33000Y-32071D01*
X32929Y-32000D01*
X32894Y-31965D01*
X32639Y-31710D01*
X32548Y-31733D01*
X32503Y-31859D01*
X32452Y-31733D01*
X32361Y-31710D01*
X32106Y-31965D01*
X32071Y-32000D01*
X32000Y-32071D01*
X31929Y-32000D01*
X31894Y-31965D01*
X31639Y-31710D01*
X31548Y-31733D01*
X31503Y-31859D01*
X31452Y-31733D01*
X31361Y-31710D01*
X31106Y-31965D01*
X31071Y-32000D01*
X31000Y-32071D01*
X30929Y-32000D01*
X30894Y-31965D01*
X30639Y-31710D01*
X30548Y-31733D01*
X30503Y-31859D01*
X30452Y-31733D01*
X30361Y-31710D01*
X30106Y-31965D01*
X30071Y-32000D01*
X30000Y-32071D01*
X29929Y-32000D01*
X29894Y-31965D01*
X29639Y-31710D01*
X29548Y-31733D01*
X29503Y-31859D01*
X29452Y-31733D01*
X29361Y-31710D01*
X29106Y-31965D01*
X29071Y-32000D01*
X29000Y-32071D01*
X28929Y-32000D01*
X28894Y-31965D01*
X28639Y-31710D01*
X28548Y-31733D01*
X28503Y-31859D01*
X28452Y-31733D01*
X28361Y-31710D01*
X28106Y-31965D01*
X28071Y-32000D01*
X28000Y-32071D01*
X27929Y-32000D01*
X27894Y-31965D01*
X27639Y-31710D01*
X27548Y-31733D01*
X27524Y-31801D01*
X27524Y-31774D01*
X27524Y-31675D01*
X27486Y-31584D01*
X27416Y-31514D01*
X27382Y-31500D01*
X27416Y-31486D01*
X27486Y-31416D01*
X27524Y-31325D01*
X27524Y-31226D01*
X27524Y-31222D01*
X27555Y-31297D01*
X27702Y-31445D01*
X27842Y-31503D01*
X27733Y-31548D01*
X27710Y-31639D01*
X28000Y-31929D01*
X28290Y-31639D01*
X28267Y-31548D01*
X28148Y-31506D01*
X28297Y-31445D01*
X28445Y-31298D01*
X28500Y-31164D01*
X28555Y-31297D01*
X28702Y-31445D01*
X28842Y-31503D01*
X28733Y-31548D01*
X28710Y-31639D01*
X29000Y-31929D01*
X29290Y-31639D01*
X29267Y-31548D01*
X29148Y-31506D01*
X29297Y-31445D01*
X29445Y-31298D01*
X29500Y-31164D01*
X29555Y-31297D01*
X29702Y-31445D01*
X29842Y-31503D01*
X29733Y-31548D01*
X29710Y-31639D01*
X30000Y-31929D01*
X30290Y-31639D01*
X30267Y-31548D01*
X30148Y-31506D01*
X30297Y-31445D01*
X30445Y-31298D01*
X30500Y-31164D01*
X30555Y-31297D01*
X30702Y-31445D01*
X30842Y-31503D01*
X30733Y-31548D01*
X30710Y-31639D01*
X31000Y-31929D01*
X31290Y-31639D01*
X31267Y-31548D01*
X31148Y-31506D01*
X31297Y-31445D01*
X31445Y-31298D01*
X31500Y-31164D01*
X31555Y-31297D01*
X31702Y-31445D01*
X31842Y-31503D01*
X31733Y-31548D01*
X31710Y-31639D01*
X32000Y-31929D01*
X32290Y-31639D01*
X32267Y-31548D01*
X32148Y-31506D01*
X32297Y-31445D01*
X32445Y-31298D01*
X32500Y-31164D01*
X32555Y-31297D01*
X32702Y-31445D01*
X32842Y-31503D01*
X32733Y-31548D01*
X32710Y-31639D01*
X33000Y-31929D01*
X33290Y-31639D01*
X33267Y-31548D01*
X33148Y-31506D01*
X33297Y-31445D01*
X33445Y-31298D01*
X33500Y-31164D01*
X33555Y-31297D01*
X33702Y-31445D01*
X33842Y-31503D01*
X33733Y-31548D01*
X33710Y-31639D01*
X34000Y-31929D01*
X34290Y-31639D01*
X34267Y-31548D01*
X34148Y-31506D01*
X34297Y-31445D01*
X34445Y-31298D01*
X34500Y-31164D01*
X34555Y-31297D01*
X34702Y-31445D01*
X34842Y-31503D01*
X34733Y-31548D01*
X34710Y-31639D01*
X35000Y-31929D01*
X35290Y-31639D01*
X35267Y-31548D01*
X35148Y-31506D01*
X35297Y-31445D01*
X35445Y-31298D01*
X35525Y-31105D01*
X35525Y-30896D01*
X35445Y-30703D01*
X35298Y-30555D01*
X35164Y-30499D01*
X35297Y-30445D01*
X35445Y-30298D01*
X35525Y-30105D01*
X35525Y-29896D01*
X35445Y-29703D01*
X35298Y-29555D01*
X35105Y-29475D01*
X34896Y-29475D01*
X34703Y-29555D01*
X34555Y-29702D01*
X34499Y-29835D01*
X34445Y-29703D01*
X34298Y-29555D01*
X34105Y-29475D01*
X33896Y-29475D01*
X33703Y-29555D01*
X33555Y-29702D01*
X33499Y-29835D01*
X33445Y-29703D01*
X33298Y-29555D01*
X33105Y-29475D01*
X32896Y-29475D01*
X32703Y-29555D01*
X32555Y-29702D01*
X32499Y-29835D01*
X32445Y-29703D01*
X32298Y-29555D01*
X32105Y-29475D01*
X31896Y-29475D01*
X31703Y-29555D01*
X31555Y-29702D01*
X31499Y-29835D01*
X31445Y-29703D01*
X31298Y-29555D01*
X31105Y-29475D01*
X30896Y-29475D01*
X30703Y-29555D01*
X30555Y-29702D01*
X30499Y-29835D01*
X30445Y-29703D01*
X30298Y-29555D01*
X30105Y-29475D01*
X29896Y-29475D01*
X29703Y-29555D01*
X29555Y-29702D01*
X29499Y-29835D01*
X29445Y-29703D01*
X29298Y-29555D01*
X29105Y-29475D01*
X28896Y-29475D01*
X28703Y-29555D01*
X28555Y-29702D01*
X28499Y-29835D01*
X28445Y-29703D01*
X28298Y-29555D01*
X28105Y-29475D01*
X27896Y-29475D01*
X27703Y-29555D01*
X27555Y-29702D01*
X27524Y-29776D01*
X27524Y-29676D01*
X27486Y-29584D01*
X27416Y-29514D01*
X27382Y-29499D01*
X27416Y-29486D01*
X27486Y-29416D01*
X27524Y-29325D01*
X27524Y-29226D01*
X27524Y-28676D01*
X27486Y-28584D01*
X27416Y-28514D01*
X27325Y-28476D01*
X27226Y-28476D01*
X27222Y-28476D01*
X27297Y-28445D01*
X27445Y-28298D01*
X27525Y-28105D01*
X27525Y-27896D01*
X27445Y-27703D01*
X27298Y-27555D01*
X27164Y-27499D01*
X27297Y-27445D01*
X27445Y-27298D01*
X27525Y-27105D01*
X27525Y-26896D01*
X27519Y-26881D01*
X27519Y-26074D01*
X27508Y-25870D01*
X27452Y-25733D01*
X27361Y-25710D01*
X27071Y-26000D01*
X27361Y-26290D01*
X27452Y-26267D01*
X27519Y-26074D01*
X27519Y-26881D01*
X27445Y-26703D01*
X27298Y-26555D01*
X27157Y-26496D01*
X27267Y-26452D01*
X27290Y-26361D01*
X27035Y-26106D01*
X27000Y-26071D01*
X26929Y-26000D01*
X27000Y-25929D01*
X27035Y-25894D01*
X27290Y-25639D01*
X27267Y-25548D01*
X27197Y-25524D01*
X27324Y-25524D01*
X27416Y-25486D01*
X27486Y-25416D01*
X27524Y-25325D01*
X27524Y-25226D01*
X27524Y-25222D01*
X27555Y-25297D01*
X27702Y-25445D01*
X27895Y-25525D01*
X28104Y-25525D01*
X28297Y-25445D01*
X28445Y-25298D01*
X28500Y-25164D01*
X28555Y-25297D01*
X28702Y-25445D01*
X28895Y-25525D01*
X29104Y-25525D01*
X29297Y-25445D01*
X29445Y-25298D01*
X29500Y-25164D01*
X29555Y-25297D01*
X29702Y-25445D01*
X29895Y-25525D01*
X30104Y-25525D01*
X30297Y-25445D01*
X30445Y-25298D01*
X30500Y-25164D01*
X30555Y-25297D01*
X30702Y-25445D01*
X30895Y-25525D01*
X31104Y-25525D01*
X31297Y-25445D01*
X31445Y-25298D01*
X31500Y-25164D01*
X31555Y-25297D01*
X31702Y-25445D01*
X31895Y-25525D01*
X32104Y-25525D01*
X32297Y-25445D01*
X32445Y-25298D01*
X32500Y-25164D01*
X32555Y-25297D01*
X32702Y-25445D01*
X32895Y-25525D01*
X33104Y-25525D01*
X33297Y-25445D01*
X33445Y-25298D01*
X33525Y-25105D01*
X33525Y-24896D01*
X33445Y-24703D01*
X33298Y-24555D01*
X33164Y-24499D01*
X33297Y-24445D01*
X33445Y-24298D01*
X33525Y-24105D01*
X33525Y-23896D01*
X33445Y-23703D01*
X33298Y-23555D01*
X33157Y-23496D01*
X33267Y-23452D01*
X33290Y-23361D01*
X33000Y-23071D01*
X32710Y-23361D01*
X32733Y-23452D01*
X32851Y-23493D01*
X32703Y-23555D01*
X32627Y-23630D01*
X32372Y-23630D01*
X32298Y-23555D01*
X32157Y-23496D01*
X32267Y-23452D01*
X32290Y-23361D01*
X32000Y-23071D01*
X31710Y-23361D01*
X31733Y-23452D01*
X31851Y-23493D01*
X31703Y-23555D01*
X31627Y-23630D01*
X31372Y-23630D01*
X31298Y-23555D01*
X31157Y-23496D01*
X31267Y-23452D01*
X31290Y-23361D01*
X31000Y-23071D01*
X30710Y-23361D01*
X30733Y-23452D01*
X30851Y-23493D01*
X30703Y-23555D01*
X30627Y-23630D01*
X30372Y-23630D01*
X30298Y-23555D01*
X30157Y-23496D01*
X30267Y-23452D01*
X30290Y-23361D01*
X30000Y-23071D01*
X29710Y-23361D01*
X29733Y-23452D01*
X29851Y-23493D01*
X29703Y-23555D01*
X29627Y-23630D01*
X29372Y-23630D01*
X29298Y-23555D01*
X29157Y-23496D01*
X29267Y-23452D01*
X29290Y-23361D01*
X29000Y-23071D01*
X28710Y-23361D01*
X28733Y-23452D01*
X28851Y-23493D01*
X28703Y-23555D01*
X28627Y-23630D01*
X28372Y-23630D01*
X28298Y-23555D01*
X28157Y-23496D01*
X28267Y-23452D01*
X28290Y-23361D01*
X28000Y-23071D01*
X27710Y-23361D01*
X27733Y-23452D01*
X27851Y-23493D01*
X27703Y-23555D01*
X27627Y-23630D01*
X27505Y-23630D01*
X27486Y-23584D01*
X27416Y-23514D01*
X27382Y-23499D01*
X27416Y-23486D01*
X27486Y-23416D01*
X27524Y-23325D01*
X27524Y-23226D01*
X27524Y-23208D01*
X27548Y-23267D01*
X27639Y-23290D01*
X27894Y-23035D01*
X27929Y-23000D01*
X28000Y-22929D01*
X28071Y-23000D01*
X28106Y-23035D01*
X28361Y-23290D01*
X28452Y-23267D01*
X28496Y-23140D01*
X28548Y-23267D01*
X28639Y-23290D01*
X28894Y-23035D01*
X28929Y-23000D01*
X29000Y-22929D01*
X29071Y-23000D01*
X29106Y-23035D01*
X29361Y-23290D01*
X29452Y-23267D01*
X29496Y-23140D01*
X29548Y-23267D01*
X29639Y-23290D01*
X29894Y-23035D01*
X29929Y-23000D01*
X30000Y-22929D01*
X30071Y-23000D01*
X30106Y-23035D01*
X30361Y-23290D01*
X30452Y-23267D01*
X30496Y-23140D01*
X30548Y-23267D01*
X30639Y-23290D01*
X30894Y-23035D01*
X30929Y-23000D01*
X31000Y-22929D01*
X31071Y-23000D01*
X31106Y-23035D01*
X31361Y-23290D01*
X31452Y-23267D01*
X31496Y-23140D01*
X31548Y-23267D01*
X31639Y-23290D01*
X31894Y-23035D01*
X31929Y-23000D01*
X32000Y-22929D01*
X32071Y-23000D01*
X32106Y-23035D01*
X32361Y-23290D01*
X32452Y-23267D01*
X32496Y-23140D01*
X32548Y-23267D01*
X32639Y-23290D01*
X32894Y-23035D01*
X32929Y-23000D01*
X33000Y-22929D01*
X33071Y-23000D01*
X33106Y-23035D01*
X33361Y-23290D01*
X33452Y-23267D01*
X33519Y-23074D01*
X33508Y-22870D01*
X33489Y-22825D01*
X36285Y-22825D01*
X36276Y-22850D01*
X36323Y-22950D01*
X36900Y-22950D01*
X36950Y-22950D01*
X37050Y-22950D01*
X37050Y-23050D01*
X37050Y-23100D01*
X37050Y-23574D01*
X37150Y-23636D01*
X37390Y-23568D01*
X37425Y-23540D01*
X37425Y-31445D01*
X37425Y-31445D01*
G37*
G54D15*
X37425Y-31445D02*
X37239Y-31369D01*
X36988Y-31369D01*
X36950Y-31369D01*
X36950Y-23574D01*
X36950Y-23050D01*
X36323Y-23050D01*
X36276Y-23150D01*
X36294Y-23196D01*
X36415Y-23413D01*
X36610Y-23568D01*
X36850Y-23636D01*
X36950Y-23574D01*
X36950Y-31369D01*
X36762Y-31369D01*
X36530Y-31465D01*
X36352Y-31642D01*
X36256Y-31874D01*
X36256Y-32125D01*
X36276Y-32175D01*
X35483Y-32175D01*
X35519Y-32074D01*
X35508Y-31870D01*
X35452Y-31733D01*
X35361Y-31710D01*
X35106Y-31965D01*
X35071Y-32000D01*
X35000Y-32071D01*
X34929Y-32000D01*
X34894Y-31965D01*
X34639Y-31710D01*
X34548Y-31733D01*
X34503Y-31859D01*
X34452Y-31733D01*
X34361Y-31710D01*
X34106Y-31965D01*
X34071Y-32000D01*
X34000Y-32071D01*
X33929Y-32000D01*
X33894Y-31965D01*
X33639Y-31710D01*
X33548Y-31733D01*
X33503Y-31859D01*
X33452Y-31733D01*
X33361Y-31710D01*
X33106Y-31965D01*
X33071Y-32000D01*
X33000Y-32071D01*
X32929Y-32000D01*
X32894Y-31965D01*
X32639Y-31710D01*
X32548Y-31733D01*
X32503Y-31859D01*
X32452Y-31733D01*
X32361Y-31710D01*
X32106Y-31965D01*
X32071Y-32000D01*
X32000Y-32071D01*
X31929Y-32000D01*
X31894Y-31965D01*
X31639Y-31710D01*
X31548Y-31733D01*
X31503Y-31859D01*
X31452Y-31733D01*
X31361Y-31710D01*
X31106Y-31965D01*
X31071Y-32000D01*
X31000Y-32071D01*
X30929Y-32000D01*
X30894Y-31965D01*
X30639Y-31710D01*
X30548Y-31733D01*
X30503Y-31859D01*
X30452Y-31733D01*
X30361Y-31710D01*
X30106Y-31965D01*
X30071Y-32000D01*
X30000Y-32071D01*
X29929Y-32000D01*
X29894Y-31965D01*
X29639Y-31710D01*
X29548Y-31733D01*
X29503Y-31859D01*
X29452Y-31733D01*
X29361Y-31710D01*
X29106Y-31965D01*
X29071Y-32000D01*
X29000Y-32071D01*
X28929Y-32000D01*
X28894Y-31965D01*
X28639Y-31710D01*
X28548Y-31733D01*
X28503Y-31859D01*
X28452Y-31733D01*
X28361Y-31710D01*
X28106Y-31965D01*
X28071Y-32000D01*
X28000Y-32071D01*
X27929Y-32000D01*
X27894Y-31965D01*
X27639Y-31710D01*
X27548Y-31733D01*
X27524Y-31801D01*
X27524Y-31774D01*
X27524Y-31675D01*
X27486Y-31584D01*
X27416Y-31514D01*
X27382Y-31500D01*
X27416Y-31486D01*
X27486Y-31416D01*
X27524Y-31325D01*
X27524Y-31226D01*
X27524Y-31222D01*
X27555Y-31297D01*
X27702Y-31445D01*
X27842Y-31503D01*
X27733Y-31548D01*
X27710Y-31639D01*
X28000Y-31929D01*
X28290Y-31639D01*
X28267Y-31548D01*
X28148Y-31506D01*
X28297Y-31445D01*
X28445Y-31298D01*
X28500Y-31164D01*
X28555Y-31297D01*
X28702Y-31445D01*
X28842Y-31503D01*
X28733Y-31548D01*
X28710Y-31639D01*
X29000Y-31929D01*
X29290Y-31639D01*
X29267Y-31548D01*
X29148Y-31506D01*
X29297Y-31445D01*
X29445Y-31298D01*
X29500Y-31164D01*
X29555Y-31297D01*
X29702Y-31445D01*
X29842Y-31503D01*
X29733Y-31548D01*
X29710Y-31639D01*
X30000Y-31929D01*
X30290Y-31639D01*
X30267Y-31548D01*
X30148Y-31506D01*
X30297Y-31445D01*
X30445Y-31298D01*
X30500Y-31164D01*
X30555Y-31297D01*
X30702Y-31445D01*
X30842Y-31503D01*
X30733Y-31548D01*
X30710Y-31639D01*
X31000Y-31929D01*
X31290Y-31639D01*
X31267Y-31548D01*
X31148Y-31506D01*
X31297Y-31445D01*
X31445Y-31298D01*
X31500Y-31164D01*
X31555Y-31297D01*
X31702Y-31445D01*
X31842Y-31503D01*
X31733Y-31548D01*
X31710Y-31639D01*
X32000Y-31929D01*
X32290Y-31639D01*
X32267Y-31548D01*
X32148Y-31506D01*
X32297Y-31445D01*
X32445Y-31298D01*
X32500Y-31164D01*
X32555Y-31297D01*
X32702Y-31445D01*
X32842Y-31503D01*
X32733Y-31548D01*
X32710Y-31639D01*
X33000Y-31929D01*
X33290Y-31639D01*
X33267Y-31548D01*
X33148Y-31506D01*
X33297Y-31445D01*
X33445Y-31298D01*
X33500Y-31164D01*
X33555Y-31297D01*
X33702Y-31445D01*
X33842Y-31503D01*
X33733Y-31548D01*
X33710Y-31639D01*
X34000Y-31929D01*
X34290Y-31639D01*
X34267Y-31548D01*
X34148Y-31506D01*
X34297Y-31445D01*
X34445Y-31298D01*
X34500Y-31164D01*
X34555Y-31297D01*
X34702Y-31445D01*
X34842Y-31503D01*
X34733Y-31548D01*
X34710Y-31639D01*
X35000Y-31929D01*
X35290Y-31639D01*
X35267Y-31548D01*
X35148Y-31506D01*
X35297Y-31445D01*
X35445Y-31298D01*
X35525Y-31105D01*
X35525Y-30896D01*
X35445Y-30703D01*
X35298Y-30555D01*
X35164Y-30499D01*
X35297Y-30445D01*
X35445Y-30298D01*
X35525Y-30105D01*
X35525Y-29896D01*
X35445Y-29703D01*
X35298Y-29555D01*
X35105Y-29475D01*
X34896Y-29475D01*
X34703Y-29555D01*
X34555Y-29702D01*
X34499Y-29835D01*
X34445Y-29703D01*
X34298Y-29555D01*
X34105Y-29475D01*
X33896Y-29475D01*
X33703Y-29555D01*
X33555Y-29702D01*
X33499Y-29835D01*
X33445Y-29703D01*
X33298Y-29555D01*
X33105Y-29475D01*
X32896Y-29475D01*
X32703Y-29555D01*
X32555Y-29702D01*
X32499Y-29835D01*
X32445Y-29703D01*
X32298Y-29555D01*
X32105Y-29475D01*
X31896Y-29475D01*
X31703Y-29555D01*
X31555Y-29702D01*
X31499Y-29835D01*
X31445Y-29703D01*
X31298Y-29555D01*
X31105Y-29475D01*
X30896Y-29475D01*
X30703Y-29555D01*
X30555Y-29702D01*
X30499Y-29835D01*
X30445Y-29703D01*
X30298Y-29555D01*
X30105Y-29475D01*
X29896Y-29475D01*
X29703Y-29555D01*
X29555Y-29702D01*
X29499Y-29835D01*
X29445Y-29703D01*
X29298Y-29555D01*
X29105Y-29475D01*
X28896Y-29475D01*
X28703Y-29555D01*
X28555Y-29702D01*
X28499Y-29835D01*
X28445Y-29703D01*
X28298Y-29555D01*
X28105Y-29475D01*
X27896Y-29475D01*
X27703Y-29555D01*
X27555Y-29702D01*
X27524Y-29776D01*
X27524Y-29676D01*
X27486Y-29584D01*
X27416Y-29514D01*
X27382Y-29499D01*
X27416Y-29486D01*
X27486Y-29416D01*
X27524Y-29325D01*
X27524Y-29226D01*
X27524Y-28676D01*
X27486Y-28584D01*
X27416Y-28514D01*
X27325Y-28476D01*
X27226Y-28476D01*
X27222Y-28476D01*
X27297Y-28445D01*
X27445Y-28298D01*
X27525Y-28105D01*
X27525Y-27896D01*
X27445Y-27703D01*
X27298Y-27555D01*
X27164Y-27499D01*
X27297Y-27445D01*
X27445Y-27298D01*
X27525Y-27105D01*
X27525Y-26896D01*
X27519Y-26881D01*
X27519Y-26074D01*
X27508Y-25870D01*
X27452Y-25733D01*
X27361Y-25710D01*
X27071Y-26000D01*
X27361Y-26290D01*
X27452Y-26267D01*
X27519Y-26074D01*
X27519Y-26881D01*
X27445Y-26703D01*
X27298Y-26555D01*
X27157Y-26496D01*
X27267Y-26452D01*
X27290Y-26361D01*
X27035Y-26106D01*
X27000Y-26071D01*
X26929Y-26000D01*
X27000Y-25929D01*
X27035Y-25894D01*
X27290Y-25639D01*
X27267Y-25548D01*
X27197Y-25524D01*
X27324Y-25524D01*
X27416Y-25486D01*
X27486Y-25416D01*
X27524Y-25325D01*
X27524Y-25226D01*
X27524Y-25222D01*
X27555Y-25297D01*
X27702Y-25445D01*
X27895Y-25525D01*
X28104Y-25525D01*
X28297Y-25445D01*
X28445Y-25298D01*
X28500Y-25164D01*
X28555Y-25297D01*
X28702Y-25445D01*
X28895Y-25525D01*
X29104Y-25525D01*
X29297Y-25445D01*
X29445Y-25298D01*
X29500Y-25164D01*
X29555Y-25297D01*
X29702Y-25445D01*
X29895Y-25525D01*
X30104Y-25525D01*
X30297Y-25445D01*
X30445Y-25298D01*
X30500Y-25164D01*
X30555Y-25297D01*
X30702Y-25445D01*
X30895Y-25525D01*
X31104Y-25525D01*
X31297Y-25445D01*
X31445Y-25298D01*
X31500Y-25164D01*
X31555Y-25297D01*
X31702Y-25445D01*
X31895Y-25525D01*
X32104Y-25525D01*
X32297Y-25445D01*
X32445Y-25298D01*
X32500Y-25164D01*
X32555Y-25297D01*
X32702Y-25445D01*
X32895Y-25525D01*
X33104Y-25525D01*
X33297Y-25445D01*
X33445Y-25298D01*
X33525Y-25105D01*
X33525Y-24896D01*
X33445Y-24703D01*
X33298Y-24555D01*
X33164Y-24499D01*
X33297Y-24445D01*
X33445Y-24298D01*
X33525Y-24105D01*
X33525Y-23896D01*
X33445Y-23703D01*
X33298Y-23555D01*
X33157Y-23496D01*
X33267Y-23452D01*
X33290Y-23361D01*
X33000Y-23071D01*
X32710Y-23361D01*
X32733Y-23452D01*
X32851Y-23493D01*
X32703Y-23555D01*
X32627Y-23630D01*
X32372Y-23630D01*
X32298Y-23555D01*
X32157Y-23496D01*
X32267Y-23452D01*
X32290Y-23361D01*
X32000Y-23071D01*
X31710Y-23361D01*
X31733Y-23452D01*
X31851Y-23493D01*
X31703Y-23555D01*
X31627Y-23630D01*
X31372Y-23630D01*
X31298Y-23555D01*
X31157Y-23496D01*
X31267Y-23452D01*
X31290Y-23361D01*
X31000Y-23071D01*
X30710Y-23361D01*
X30733Y-23452D01*
X30851Y-23493D01*
X30703Y-23555D01*
X30627Y-23630D01*
X30372Y-23630D01*
X30298Y-23555D01*
X30157Y-23496D01*
X30267Y-23452D01*
X30290Y-23361D01*
X30000Y-23071D01*
X29710Y-23361D01*
X29733Y-23452D01*
X29851Y-23493D01*
X29703Y-23555D01*
X29627Y-23630D01*
X29372Y-23630D01*
X29298Y-23555D01*
X29157Y-23496D01*
X29267Y-23452D01*
X29290Y-23361D01*
X29000Y-23071D01*
X28710Y-23361D01*
X28733Y-23452D01*
X28851Y-23493D01*
X28703Y-23555D01*
X28627Y-23630D01*
X28372Y-23630D01*
X28298Y-23555D01*
X28157Y-23496D01*
X28267Y-23452D01*
X28290Y-23361D01*
X28000Y-23071D01*
X27710Y-23361D01*
X27733Y-23452D01*
X27851Y-23493D01*
X27703Y-23555D01*
X27627Y-23630D01*
X27505Y-23630D01*
X27486Y-23584D01*
X27416Y-23514D01*
X27382Y-23499D01*
X27416Y-23486D01*
X27486Y-23416D01*
X27524Y-23325D01*
X27524Y-23226D01*
X27524Y-23208D01*
X27548Y-23267D01*
X27639Y-23290D01*
X27894Y-23035D01*
X27929Y-23000D01*
X28000Y-22929D01*
X28071Y-23000D01*
X28106Y-23035D01*
X28361Y-23290D01*
X28452Y-23267D01*
X28496Y-23140D01*
X28548Y-23267D01*
X28639Y-23290D01*
X28894Y-23035D01*
X28929Y-23000D01*
X29000Y-22929D01*
X29071Y-23000D01*
X29106Y-23035D01*
X29361Y-23290D01*
X29452Y-23267D01*
X29496Y-23140D01*
X29548Y-23267D01*
X29639Y-23290D01*
X29894Y-23035D01*
X29929Y-23000D01*
X30000Y-22929D01*
X30071Y-23000D01*
X30106Y-23035D01*
X30361Y-23290D01*
X30452Y-23267D01*
X30496Y-23140D01*
X30548Y-23267D01*
X30639Y-23290D01*
X30894Y-23035D01*
X30929Y-23000D01*
X31000Y-22929D01*
X31071Y-23000D01*
X31106Y-23035D01*
X31361Y-23290D01*
X31452Y-23267D01*
X31496Y-23140D01*
X31548Y-23267D01*
X31639Y-23290D01*
X31894Y-23035D01*
X31929Y-23000D01*
X32000Y-22929D01*
X32071Y-23000D01*
X32106Y-23035D01*
X32361Y-23290D01*
X32452Y-23267D01*
X32496Y-23140D01*
X32548Y-23267D01*
X32639Y-23290D01*
X32894Y-23035D01*
X32929Y-23000D01*
X33000Y-22929D01*
X33071Y-23000D01*
X33106Y-23035D01*
X33361Y-23290D01*
X33452Y-23267D01*
X33519Y-23074D01*
X33508Y-22870D01*
X33489Y-22825D01*
X36285Y-22825D01*
X36276Y-22850D01*
X36323Y-22950D01*
X36900Y-22950D01*
X36950Y-22950D01*
X37050Y-22950D01*
X37050Y-23050D01*
X37050Y-23100D01*
X37050Y-23574D01*
X37150Y-23636D01*
X37390Y-23568D01*
X37425Y-23540D01*
X37425Y-31445D01*
M02*
