G04 (created by PCBNEW-RS274X (2012-01-19 BZR 3256)-stable) date 1/1/2013 10:27:46 PM*
G01*
G70*
G90*
%MOIN*%
G04 Gerber Fmt 3.4, Leading zero omitted, Abs format*
%FSLAX34Y34*%
G04 APERTURE LIST*
%ADD10C,0.006000*%
%ADD11C,0.007900*%
%ADD12C,0.009900*%
%ADD13C,0.005900*%
%ADD14C,0.012000*%
%ADD15C,0.005000*%
%ADD16C,0.002600*%
%ADD17C,0.004000*%
%ADD18C,0.002000*%
%ADD19C,0.006500*%
%ADD20C,0.008000*%
%ADD21O,0.118400X0.098700*%
%ADD22R,0.075000X0.075000*%
%ADD23C,0.075000*%
%ADD24R,0.100000X0.080000*%
%ADD25R,0.067200X0.067200*%
%ADD26R,0.070000X0.058000*%
%ADD27R,0.075000X0.055000*%
%ADD28R,0.036000X0.070000*%
%ADD29R,0.100000X0.164000*%
%ADD30R,0.100000X0.060000*%
%ADD31R,0.055000X0.075000*%
G04 APERTURE END LIST*
G54D10*
G54D11*
X27102Y-29393D02*
X26899Y-29393D01*
X27001Y-29393D02*
X27001Y-29039D01*
X26967Y-29090D01*
X26933Y-29124D01*
X26899Y-29140D01*
X34933Y-29393D02*
X35001Y-29393D01*
X35034Y-29376D01*
X35051Y-29360D01*
X35085Y-29309D01*
X35102Y-29242D01*
X35102Y-29107D01*
X35085Y-29073D01*
X35068Y-29056D01*
X35034Y-29039D01*
X34967Y-29039D01*
X34933Y-29056D01*
X34916Y-29073D01*
X34899Y-29107D01*
X34899Y-29191D01*
X34916Y-29225D01*
X34933Y-29242D01*
X34967Y-29258D01*
X35034Y-29258D01*
X35068Y-29242D01*
X35085Y-29225D01*
X35102Y-29191D01*
G54D12*
X43067Y-33122D02*
X43048Y-33141D01*
X42992Y-33159D01*
X42954Y-33159D01*
X42898Y-33141D01*
X42861Y-33103D01*
X42842Y-33066D01*
X42823Y-32991D01*
X42823Y-32934D01*
X42842Y-32859D01*
X42861Y-32822D01*
X42898Y-32784D01*
X42954Y-32765D01*
X42992Y-32765D01*
X43048Y-32784D01*
X43067Y-32803D01*
X43461Y-33122D02*
X43442Y-33141D01*
X43386Y-33159D01*
X43348Y-33159D01*
X43292Y-33141D01*
X43255Y-33103D01*
X43236Y-33066D01*
X43217Y-32991D01*
X43217Y-32934D01*
X43236Y-32859D01*
X43255Y-32822D01*
X43292Y-32784D01*
X43348Y-32765D01*
X43386Y-32765D01*
X43442Y-32784D01*
X43461Y-32803D01*
X43630Y-33009D02*
X43930Y-33009D01*
X44249Y-32953D02*
X44305Y-32972D01*
X44324Y-32991D01*
X44343Y-33028D01*
X44343Y-33084D01*
X44324Y-33122D01*
X44305Y-33141D01*
X44268Y-33159D01*
X44118Y-33159D01*
X44118Y-32765D01*
X44249Y-32765D01*
X44287Y-32784D01*
X44305Y-32803D01*
X44324Y-32841D01*
X44324Y-32878D01*
X44305Y-32916D01*
X44287Y-32934D01*
X44249Y-32953D01*
X44118Y-32953D01*
X44587Y-32972D02*
X44587Y-33159D01*
X44456Y-32765D02*
X44587Y-32972D01*
X44718Y-32765D01*
X44850Y-33009D02*
X45150Y-33009D01*
X45338Y-33159D02*
X45338Y-32765D01*
X45563Y-33159D01*
X45563Y-32765D01*
X45976Y-33122D02*
X45957Y-33141D01*
X45901Y-33159D01*
X45863Y-33159D01*
X45807Y-33141D01*
X45770Y-33103D01*
X45751Y-33066D01*
X45732Y-32991D01*
X45732Y-32934D01*
X45751Y-32859D01*
X45770Y-32822D01*
X45807Y-32784D01*
X45863Y-32765D01*
X45901Y-32765D01*
X45957Y-32784D01*
X45976Y-32803D01*
X46145Y-33009D02*
X46445Y-33009D01*
X46614Y-33141D02*
X46670Y-33159D01*
X46764Y-33159D01*
X46802Y-33141D01*
X46820Y-33122D01*
X46839Y-33084D01*
X46839Y-33047D01*
X46820Y-33009D01*
X46802Y-32991D01*
X46764Y-32972D01*
X46689Y-32953D01*
X46652Y-32934D01*
X46633Y-32916D01*
X46614Y-32878D01*
X46614Y-32841D01*
X46633Y-32803D01*
X46652Y-32784D01*
X46689Y-32765D01*
X46783Y-32765D01*
X46839Y-32784D01*
X46989Y-33047D02*
X47177Y-33047D01*
X46952Y-33159D02*
X47083Y-32765D01*
X47214Y-33159D01*
G54D13*
X46067Y-25217D02*
X46277Y-25217D01*
X45947Y-25292D02*
X46172Y-25367D01*
X46172Y-25172D01*
X45962Y-25082D02*
X45962Y-24872D01*
X46277Y-25007D01*
X46277Y-24752D02*
X45962Y-24752D01*
X46157Y-24722D02*
X46277Y-24632D01*
X46067Y-24632D02*
X46187Y-24752D01*
G54D14*
X23751Y-16405D02*
X23951Y-16405D01*
X24037Y-16824D02*
X23751Y-16824D01*
X23751Y-16024D01*
X24037Y-16024D01*
X24237Y-16024D02*
X24637Y-16824D01*
X24637Y-16024D02*
X24237Y-16824D01*
X24865Y-16405D02*
X25065Y-16405D01*
X25151Y-16824D02*
X24865Y-16824D01*
X24865Y-16024D01*
X25151Y-16024D01*
X25751Y-16824D02*
X25551Y-16443D01*
X25408Y-16824D02*
X25408Y-16024D01*
X25636Y-16024D01*
X25694Y-16062D01*
X25722Y-16100D01*
X25751Y-16176D01*
X25751Y-16290D01*
X25722Y-16367D01*
X25694Y-16405D01*
X25636Y-16443D01*
X25408Y-16443D01*
X26322Y-16062D02*
X26265Y-16024D01*
X26179Y-16024D01*
X26094Y-16062D01*
X26036Y-16138D01*
X26008Y-16214D01*
X25979Y-16367D01*
X25979Y-16481D01*
X26008Y-16633D01*
X26036Y-16710D01*
X26094Y-16786D01*
X26179Y-16824D01*
X26236Y-16824D01*
X26322Y-16786D01*
X26351Y-16748D01*
X26351Y-16481D01*
X26236Y-16481D01*
X26608Y-16824D02*
X26608Y-16024D01*
X26865Y-16595D02*
X27151Y-16595D01*
X26808Y-16824D02*
X27008Y-16024D01*
X27208Y-16824D01*
X27408Y-16519D02*
X27865Y-16519D01*
X28465Y-16824D02*
X28122Y-16824D01*
X28294Y-16824D02*
X28294Y-16024D01*
X28237Y-16138D01*
X28179Y-16214D01*
X28122Y-16252D01*
X29607Y-15986D02*
X29093Y-17014D01*
X30265Y-16290D02*
X30265Y-17090D01*
X30265Y-16329D02*
X30322Y-16290D01*
X30436Y-16290D01*
X30493Y-16329D01*
X30522Y-16367D01*
X30551Y-16443D01*
X30551Y-16671D01*
X30522Y-16748D01*
X30493Y-16786D01*
X30436Y-16824D01*
X30322Y-16824D01*
X30265Y-16786D01*
X30808Y-16824D02*
X30808Y-16024D01*
X30808Y-16329D02*
X30865Y-16290D01*
X30979Y-16290D01*
X31036Y-16329D01*
X31065Y-16367D01*
X31094Y-16443D01*
X31094Y-16671D01*
X31065Y-16748D01*
X31036Y-16786D01*
X30979Y-16824D01*
X30865Y-16824D01*
X30808Y-16786D01*
X31351Y-16824D02*
X31351Y-16290D01*
X31351Y-16443D02*
X31379Y-16367D01*
X31408Y-16329D01*
X31465Y-16290D01*
X31522Y-16290D01*
X31722Y-16824D02*
X31722Y-16290D01*
X31722Y-16024D02*
X31693Y-16062D01*
X31722Y-16100D01*
X31750Y-16062D01*
X31722Y-16024D01*
X31722Y-16100D01*
X32236Y-16786D02*
X32179Y-16824D01*
X32065Y-16824D01*
X32008Y-16786D01*
X31979Y-16710D01*
X31979Y-16405D01*
X32008Y-16329D01*
X32065Y-16290D01*
X32179Y-16290D01*
X32236Y-16329D01*
X32265Y-16405D01*
X32265Y-16481D01*
X31979Y-16557D01*
X32522Y-16824D02*
X32522Y-16290D01*
X32522Y-16443D02*
X32550Y-16367D01*
X32579Y-16329D01*
X32636Y-16290D01*
X32693Y-16290D01*
X32893Y-16748D02*
X32921Y-16786D01*
X32893Y-16824D01*
X32864Y-16786D01*
X32893Y-16748D01*
X32893Y-16824D01*
X33179Y-16290D02*
X33179Y-16824D01*
X33179Y-16367D02*
X33207Y-16329D01*
X33265Y-16290D01*
X33350Y-16290D01*
X33407Y-16329D01*
X33436Y-16405D01*
X33436Y-16824D01*
X33808Y-16824D02*
X33750Y-16786D01*
X33722Y-16710D01*
X33722Y-16024D01*
G54D13*
X48627Y-28252D02*
X48627Y-28402D01*
X48312Y-28402D01*
X48627Y-28147D02*
X48312Y-28147D01*
X48312Y-28072D01*
X48327Y-28027D01*
X48357Y-27997D01*
X48387Y-27982D01*
X48447Y-27967D01*
X48492Y-27967D01*
X48552Y-27982D01*
X48582Y-27997D01*
X48612Y-28027D01*
X48627Y-28072D01*
X48627Y-28147D01*
X48627Y-27667D02*
X48627Y-27847D01*
X48627Y-27757D02*
X48312Y-27757D01*
X48357Y-27787D01*
X48387Y-27817D01*
X48402Y-27847D01*
X48627Y-27367D02*
X48627Y-27547D01*
X48627Y-27457D02*
X48312Y-27457D01*
X48357Y-27487D01*
X48387Y-27517D01*
X48402Y-27547D01*
X48627Y-27067D02*
X48627Y-27247D01*
X48627Y-27157D02*
X48312Y-27157D01*
X48357Y-27187D01*
X48387Y-27217D01*
X48402Y-27247D01*
X48312Y-26962D02*
X48312Y-26752D01*
X48627Y-26887D01*
X48312Y-26677D02*
X48627Y-26572D01*
X48312Y-26467D01*
X48312Y-26392D02*
X48312Y-26197D01*
X48432Y-26302D01*
X48432Y-26257D01*
X48447Y-26227D01*
X48462Y-26212D01*
X48492Y-26197D01*
X48567Y-26197D01*
X48597Y-26212D01*
X48612Y-26227D01*
X48627Y-26257D01*
X48627Y-26347D01*
X48612Y-26377D01*
X48597Y-26392D01*
X48312Y-26092D02*
X48312Y-25897D01*
X48432Y-26002D01*
X48432Y-25957D01*
X48447Y-25927D01*
X48462Y-25912D01*
X48492Y-25897D01*
X48567Y-25897D01*
X48597Y-25912D01*
X48612Y-25927D01*
X48627Y-25957D01*
X48627Y-26047D01*
X48612Y-26077D01*
X48597Y-26092D01*
X48597Y-25582D02*
X48612Y-25597D01*
X48627Y-25642D01*
X48627Y-25672D01*
X48612Y-25717D01*
X48582Y-25747D01*
X48552Y-25762D01*
X48492Y-25777D01*
X48447Y-25777D01*
X48387Y-25762D01*
X48357Y-25747D01*
X48327Y-25717D01*
X48312Y-25672D01*
X48312Y-25642D01*
X48327Y-25597D01*
X48342Y-25582D01*
X46542Y-24997D02*
X46527Y-24982D01*
X46512Y-24952D01*
X46512Y-24877D01*
X46527Y-24847D01*
X46542Y-24832D01*
X46572Y-24817D01*
X46602Y-24817D01*
X46647Y-24832D01*
X46827Y-25012D01*
X46827Y-24817D01*
X46542Y-24697D02*
X46527Y-24682D01*
X46512Y-24652D01*
X46512Y-24577D01*
X46527Y-24547D01*
X46542Y-24532D01*
X46572Y-24517D01*
X46602Y-24517D01*
X46647Y-24532D01*
X46827Y-24712D01*
X46827Y-24517D01*
X46512Y-24322D02*
X46512Y-24292D01*
X46527Y-24262D01*
X46542Y-24247D01*
X46572Y-24232D01*
X46632Y-24217D01*
X46707Y-24217D01*
X46767Y-24232D01*
X46797Y-24247D01*
X46812Y-24262D01*
X46827Y-24292D01*
X46827Y-24322D01*
X46812Y-24352D01*
X46797Y-24367D01*
X46767Y-24382D01*
X46707Y-24397D01*
X46632Y-24397D01*
X46572Y-24382D01*
X46542Y-24367D01*
X46527Y-24352D01*
X46512Y-24322D01*
X46827Y-23902D02*
X46677Y-24007D01*
X46827Y-24082D02*
X46512Y-24082D01*
X46512Y-23962D01*
X46527Y-23932D01*
X46542Y-23917D01*
X46572Y-23902D01*
X46617Y-23902D01*
X46647Y-23917D01*
X46662Y-23932D01*
X46677Y-23962D01*
X46677Y-24082D01*
X46127Y-23687D02*
X46127Y-23867D01*
X46127Y-23777D02*
X45812Y-23777D01*
X45857Y-23807D01*
X45887Y-23837D01*
X45902Y-23867D01*
X45917Y-23552D02*
X46127Y-23552D01*
X45947Y-23552D02*
X45932Y-23537D01*
X45917Y-23507D01*
X45917Y-23462D01*
X45932Y-23432D01*
X45962Y-23417D01*
X46127Y-23417D01*
X45962Y-23162D02*
X45962Y-23267D01*
X46127Y-23267D02*
X45812Y-23267D01*
X45812Y-23117D01*
X42127Y-35487D02*
X42127Y-35667D01*
X42127Y-35577D02*
X41812Y-35577D01*
X41857Y-35607D01*
X41887Y-35637D01*
X41902Y-35667D01*
X41812Y-35292D02*
X41812Y-35262D01*
X41827Y-35232D01*
X41842Y-35217D01*
X41872Y-35202D01*
X41932Y-35187D01*
X42007Y-35187D01*
X42067Y-35202D01*
X42097Y-35217D01*
X42112Y-35232D01*
X42127Y-35262D01*
X42127Y-35292D01*
X42112Y-35322D01*
X42097Y-35337D01*
X42067Y-35352D01*
X42007Y-35367D01*
X41932Y-35367D01*
X41872Y-35352D01*
X41842Y-35337D01*
X41827Y-35322D01*
X41812Y-35292D01*
X41812Y-34992D02*
X41812Y-34962D01*
X41827Y-34932D01*
X41842Y-34917D01*
X41872Y-34902D01*
X41932Y-34887D01*
X42007Y-34887D01*
X42067Y-34902D01*
X42097Y-34917D01*
X42112Y-34932D01*
X42127Y-34962D01*
X42127Y-34992D01*
X42112Y-35022D01*
X42097Y-35037D01*
X42067Y-35052D01*
X42007Y-35067D01*
X41932Y-35067D01*
X41872Y-35052D01*
X41842Y-35037D01*
X41827Y-35022D01*
X41812Y-34992D01*
X41917Y-34752D02*
X42127Y-34752D01*
X41947Y-34752D02*
X41932Y-34737D01*
X41917Y-34707D01*
X41917Y-34662D01*
X41932Y-34632D01*
X41962Y-34617D01*
X42127Y-34617D01*
X41962Y-34362D02*
X41962Y-34467D01*
X42127Y-34467D02*
X41812Y-34467D01*
X41812Y-34317D01*
X46127Y-35187D02*
X46127Y-35367D01*
X46127Y-35277D02*
X45812Y-35277D01*
X45857Y-35307D01*
X45887Y-35337D01*
X45902Y-35367D01*
X45917Y-34917D02*
X46127Y-34917D01*
X45917Y-35052D02*
X46082Y-35052D01*
X46112Y-35037D01*
X46127Y-35007D01*
X46127Y-34962D01*
X46112Y-34932D01*
X46097Y-34917D01*
X45962Y-34662D02*
X45962Y-34767D01*
X46127Y-34767D02*
X45812Y-34767D01*
X45812Y-34617D01*
X45377Y-27337D02*
X45377Y-27517D01*
X45377Y-27427D02*
X45062Y-27427D01*
X45107Y-27457D01*
X45137Y-27487D01*
X45152Y-27517D01*
X45062Y-27142D02*
X45062Y-27112D01*
X45077Y-27082D01*
X45092Y-27067D01*
X45122Y-27052D01*
X45182Y-27037D01*
X45257Y-27037D01*
X45317Y-27052D01*
X45347Y-27067D01*
X45362Y-27082D01*
X45377Y-27112D01*
X45377Y-27142D01*
X45362Y-27172D01*
X45347Y-27187D01*
X45317Y-27202D01*
X45257Y-27217D01*
X45182Y-27217D01*
X45122Y-27202D01*
X45092Y-27187D01*
X45077Y-27172D01*
X45062Y-27142D01*
X45167Y-26767D02*
X45377Y-26767D01*
X45167Y-26902D02*
X45332Y-26902D01*
X45362Y-26887D01*
X45377Y-26857D01*
X45377Y-26812D01*
X45362Y-26782D01*
X45347Y-26767D01*
X45212Y-26512D02*
X45212Y-26617D01*
X45377Y-26617D02*
X45062Y-26617D01*
X45062Y-26467D01*
X46192Y-31497D02*
X46177Y-31482D01*
X46162Y-31452D01*
X46162Y-31377D01*
X46177Y-31347D01*
X46192Y-31332D01*
X46222Y-31317D01*
X46252Y-31317D01*
X46297Y-31332D01*
X46477Y-31512D01*
X46477Y-31317D01*
X46192Y-31197D02*
X46177Y-31182D01*
X46162Y-31152D01*
X46162Y-31077D01*
X46177Y-31047D01*
X46192Y-31032D01*
X46222Y-31017D01*
X46252Y-31017D01*
X46297Y-31032D01*
X46477Y-31212D01*
X46477Y-31017D01*
X46162Y-30822D02*
X46162Y-30792D01*
X46177Y-30762D01*
X46192Y-30747D01*
X46222Y-30732D01*
X46282Y-30717D01*
X46357Y-30717D01*
X46417Y-30732D01*
X46447Y-30747D01*
X46462Y-30762D01*
X46477Y-30792D01*
X46477Y-30822D01*
X46462Y-30852D01*
X46447Y-30867D01*
X46417Y-30882D01*
X46357Y-30897D01*
X46282Y-30897D01*
X46222Y-30882D01*
X46192Y-30867D01*
X46177Y-30852D01*
X46162Y-30822D01*
X46477Y-30402D02*
X46327Y-30507D01*
X46477Y-30582D02*
X46162Y-30582D01*
X46162Y-30462D01*
X46177Y-30432D01*
X46192Y-30417D01*
X46222Y-30402D01*
X46267Y-30402D01*
X46297Y-30417D01*
X46312Y-30432D01*
X46327Y-30462D01*
X46327Y-30582D01*
X36877Y-30920D02*
X36562Y-30920D01*
X36562Y-30800D01*
X36577Y-30770D01*
X36592Y-30755D01*
X36622Y-30740D01*
X36667Y-30740D01*
X36697Y-30755D01*
X36712Y-30770D01*
X36727Y-30800D01*
X36727Y-30920D01*
X36562Y-30635D02*
X36877Y-30560D01*
X36652Y-30500D01*
X36877Y-30440D01*
X36562Y-30365D01*
X36877Y-30065D02*
X36727Y-30170D01*
X36877Y-30245D02*
X36562Y-30245D01*
X36562Y-30125D01*
X36577Y-30095D01*
X36592Y-30080D01*
X36622Y-30065D01*
X36667Y-30065D01*
X36697Y-30080D01*
X36712Y-30095D01*
X36727Y-30125D01*
X36727Y-30245D01*
X36877Y-24852D02*
X36877Y-25002D01*
X36562Y-25002D01*
X36712Y-24747D02*
X36712Y-24642D01*
X36877Y-24597D02*
X36877Y-24747D01*
X36562Y-24747D01*
X36562Y-24597D01*
X36877Y-24462D02*
X36562Y-24462D01*
X36562Y-24387D01*
X36577Y-24342D01*
X36607Y-24312D01*
X36637Y-24297D01*
X36697Y-24282D01*
X36742Y-24282D01*
X36802Y-24297D01*
X36832Y-24312D01*
X36862Y-24342D01*
X36877Y-24387D01*
X36877Y-24462D01*
X36592Y-24162D02*
X36577Y-24147D01*
X36562Y-24117D01*
X36562Y-24042D01*
X36577Y-24012D01*
X36592Y-23997D01*
X36622Y-23982D01*
X36652Y-23982D01*
X36697Y-23997D01*
X36877Y-24177D01*
X36877Y-23982D01*
G54D11*
X27067Y-25607D02*
X27270Y-25607D01*
X27168Y-25607D02*
X27168Y-25961D01*
X27202Y-25910D01*
X27236Y-25876D01*
X27270Y-25860D01*
X26899Y-25607D02*
X26831Y-25607D01*
X26798Y-25624D01*
X26781Y-25640D01*
X26747Y-25691D01*
X26730Y-25758D01*
X26730Y-25893D01*
X26747Y-25927D01*
X26764Y-25944D01*
X26798Y-25961D01*
X26865Y-25961D01*
X26899Y-25944D01*
X26916Y-25927D01*
X26933Y-25893D01*
X26933Y-25809D01*
X26916Y-25775D01*
X26899Y-25758D01*
X26865Y-25742D01*
X26798Y-25742D01*
X26764Y-25758D01*
X26747Y-25775D01*
X26730Y-25809D01*
X28067Y-25607D02*
X28270Y-25607D01*
X28168Y-25607D02*
X28168Y-25961D01*
X28202Y-25910D01*
X28236Y-25876D01*
X28270Y-25860D01*
X27865Y-25809D02*
X27899Y-25826D01*
X27916Y-25843D01*
X27933Y-25876D01*
X27933Y-25893D01*
X27916Y-25927D01*
X27899Y-25944D01*
X27865Y-25961D01*
X27798Y-25961D01*
X27764Y-25944D01*
X27747Y-25927D01*
X27730Y-25893D01*
X27730Y-25876D01*
X27747Y-25843D01*
X27764Y-25826D01*
X27798Y-25809D01*
X27865Y-25809D01*
X27899Y-25792D01*
X27916Y-25775D01*
X27933Y-25742D01*
X27933Y-25674D01*
X27916Y-25640D01*
X27899Y-25624D01*
X27865Y-25607D01*
X27798Y-25607D01*
X27764Y-25624D01*
X27747Y-25640D01*
X27730Y-25674D01*
X27730Y-25742D01*
X27747Y-25775D01*
X27764Y-25792D01*
X27798Y-25809D01*
X29067Y-25607D02*
X29270Y-25607D01*
X29168Y-25607D02*
X29168Y-25961D01*
X29202Y-25910D01*
X29236Y-25876D01*
X29270Y-25860D01*
X28747Y-25961D02*
X28916Y-25961D01*
X28933Y-25792D01*
X28916Y-25809D01*
X28882Y-25826D01*
X28798Y-25826D01*
X28764Y-25809D01*
X28747Y-25792D01*
X28730Y-25758D01*
X28730Y-25674D01*
X28747Y-25640D01*
X28764Y-25624D01*
X28798Y-25607D01*
X28882Y-25607D01*
X28916Y-25624D01*
X28933Y-25640D01*
X30067Y-25607D02*
X30270Y-25607D01*
X30168Y-25607D02*
X30168Y-25961D01*
X30202Y-25910D01*
X30236Y-25876D01*
X30270Y-25860D01*
X29764Y-25843D02*
X29764Y-25607D01*
X29848Y-25978D02*
X29933Y-25725D01*
X29713Y-25725D01*
X31067Y-25607D02*
X31270Y-25607D01*
X31168Y-25607D02*
X31168Y-25961D01*
X31202Y-25910D01*
X31236Y-25876D01*
X31270Y-25860D01*
X30949Y-25961D02*
X30730Y-25961D01*
X30848Y-25826D01*
X30798Y-25826D01*
X30764Y-25809D01*
X30747Y-25792D01*
X30730Y-25758D01*
X30730Y-25674D01*
X30747Y-25640D01*
X30764Y-25624D01*
X30798Y-25607D01*
X30899Y-25607D01*
X30933Y-25624D01*
X30949Y-25640D01*
X32067Y-25607D02*
X32270Y-25607D01*
X32168Y-25607D02*
X32168Y-25961D01*
X32202Y-25910D01*
X32236Y-25876D01*
X32270Y-25860D01*
X31933Y-25927D02*
X31916Y-25944D01*
X31882Y-25961D01*
X31798Y-25961D01*
X31764Y-25944D01*
X31747Y-25927D01*
X31730Y-25893D01*
X31730Y-25860D01*
X31747Y-25809D01*
X31949Y-25607D01*
X31730Y-25607D01*
X33067Y-25607D02*
X33270Y-25607D01*
X33168Y-25607D02*
X33168Y-25961D01*
X33202Y-25910D01*
X33236Y-25876D01*
X33270Y-25860D01*
X32730Y-25607D02*
X32933Y-25607D01*
X32831Y-25607D02*
X32831Y-25961D01*
X32865Y-25910D01*
X32899Y-25876D01*
X32933Y-25860D01*
X33967Y-29191D02*
X33933Y-29174D01*
X33916Y-29157D01*
X33899Y-29124D01*
X33899Y-29107D01*
X33916Y-29073D01*
X33933Y-29056D01*
X33967Y-29039D01*
X34034Y-29039D01*
X34068Y-29056D01*
X34085Y-29073D01*
X34102Y-29107D01*
X34102Y-29124D01*
X34085Y-29157D01*
X34068Y-29174D01*
X34034Y-29191D01*
X33967Y-29191D01*
X33933Y-29208D01*
X33916Y-29225D01*
X33899Y-29258D01*
X33899Y-29326D01*
X33916Y-29360D01*
X33933Y-29376D01*
X33967Y-29393D01*
X34034Y-29393D01*
X34068Y-29376D01*
X34085Y-29360D01*
X34102Y-29326D01*
X34102Y-29258D01*
X34085Y-29225D01*
X34068Y-29208D01*
X34034Y-29191D01*
X32883Y-29039D02*
X33119Y-29039D01*
X32967Y-29393D01*
X32068Y-29039D02*
X32001Y-29039D01*
X31967Y-29056D01*
X31950Y-29073D01*
X31916Y-29124D01*
X31899Y-29191D01*
X31899Y-29326D01*
X31916Y-29360D01*
X31933Y-29376D01*
X31967Y-29393D01*
X32034Y-29393D01*
X32068Y-29376D01*
X32085Y-29360D01*
X32102Y-29326D01*
X32102Y-29242D01*
X32085Y-29208D01*
X32068Y-29191D01*
X32034Y-29174D01*
X31967Y-29174D01*
X31933Y-29191D01*
X31916Y-29208D01*
X31899Y-29242D01*
X31085Y-29039D02*
X30916Y-29039D01*
X30899Y-29208D01*
X30916Y-29191D01*
X30950Y-29174D01*
X31034Y-29174D01*
X31068Y-29191D01*
X31085Y-29208D01*
X31102Y-29242D01*
X31102Y-29326D01*
X31085Y-29360D01*
X31068Y-29376D01*
X31034Y-29393D01*
X30950Y-29393D01*
X30916Y-29376D01*
X30899Y-29360D01*
X30068Y-29157D02*
X30068Y-29393D01*
X29984Y-29022D02*
X29899Y-29275D01*
X30119Y-29275D01*
X28883Y-29039D02*
X29102Y-29039D01*
X28984Y-29174D01*
X29034Y-29174D01*
X29068Y-29191D01*
X29085Y-29208D01*
X29102Y-29242D01*
X29102Y-29326D01*
X29085Y-29360D01*
X29068Y-29376D01*
X29034Y-29393D01*
X28933Y-29393D01*
X28899Y-29376D01*
X28883Y-29360D01*
X27899Y-29073D02*
X27916Y-29056D01*
X27950Y-29039D01*
X28034Y-29039D01*
X28068Y-29056D01*
X28085Y-29073D01*
X28102Y-29107D01*
X28102Y-29140D01*
X28085Y-29191D01*
X27883Y-29393D01*
X28102Y-29393D01*
G54D13*
X43188Y-23745D02*
X42873Y-23850D01*
X43188Y-23955D01*
X42873Y-24225D02*
X42873Y-24045D01*
X42873Y-24135D02*
X43188Y-24135D01*
X43143Y-24105D01*
X43113Y-24075D01*
X43098Y-24045D01*
X36573Y-31212D02*
X36618Y-31227D01*
X36633Y-31242D01*
X36648Y-31272D01*
X36648Y-31317D01*
X36633Y-31347D01*
X36618Y-31362D01*
X36588Y-31377D01*
X36468Y-31377D01*
X36468Y-31062D01*
X36573Y-31062D01*
X36603Y-31077D01*
X36618Y-31092D01*
X36633Y-31122D01*
X36633Y-31152D01*
X36618Y-31182D01*
X36603Y-31197D01*
X36573Y-31212D01*
X36468Y-31212D01*
X36768Y-31287D02*
X36918Y-31287D01*
X36738Y-31377D02*
X36843Y-31062D01*
X36948Y-31377D01*
X37008Y-31062D02*
X37188Y-31062D01*
X37098Y-31377D02*
X37098Y-31062D01*
X37293Y-31257D02*
X37533Y-31257D01*
X37413Y-31377D02*
X37413Y-31137D01*
X36815Y-23577D02*
X36785Y-23562D01*
X36740Y-23562D01*
X36695Y-23577D01*
X36665Y-23607D01*
X36650Y-23637D01*
X36635Y-23697D01*
X36635Y-23742D01*
X36650Y-23802D01*
X36665Y-23832D01*
X36695Y-23862D01*
X36740Y-23877D01*
X36770Y-23877D01*
X36815Y-23862D01*
X36830Y-23847D01*
X36830Y-23742D01*
X36770Y-23742D01*
X36965Y-23877D02*
X36965Y-23562D01*
X37145Y-23877D01*
X37145Y-23562D01*
X37295Y-23877D02*
X37295Y-23562D01*
X37370Y-23562D01*
X37415Y-23577D01*
X37445Y-23607D01*
X37460Y-23637D01*
X37475Y-23697D01*
X37475Y-23742D01*
X37460Y-23802D01*
X37445Y-23832D01*
X37415Y-23862D01*
X37370Y-23877D01*
X37295Y-23877D01*
X37610Y-23757D02*
X37850Y-23757D01*
X43188Y-22610D02*
X43188Y-22805D01*
X43068Y-22700D01*
X43068Y-22745D01*
X43053Y-22775D01*
X43038Y-22790D01*
X43008Y-22805D01*
X42933Y-22805D01*
X42903Y-22790D01*
X42888Y-22775D01*
X42873Y-22745D01*
X42873Y-22655D01*
X42888Y-22625D01*
X42903Y-22610D01*
X43188Y-22895D02*
X42873Y-23000D01*
X43188Y-23105D01*
X43188Y-23180D02*
X43188Y-23375D01*
X43068Y-23270D01*
X43068Y-23315D01*
X43053Y-23345D01*
X43038Y-23360D01*
X43008Y-23375D01*
X42933Y-23375D01*
X42903Y-23360D01*
X42888Y-23345D01*
X42873Y-23315D01*
X42873Y-23225D01*
X42888Y-23195D01*
X42903Y-23180D01*
X43038Y-24768D02*
X43023Y-24813D01*
X43008Y-24828D01*
X42978Y-24843D01*
X42933Y-24843D01*
X42903Y-24828D01*
X42888Y-24813D01*
X42873Y-24783D01*
X42873Y-24663D01*
X43188Y-24663D01*
X43188Y-24768D01*
X43173Y-24798D01*
X43158Y-24813D01*
X43128Y-24828D01*
X43098Y-24828D01*
X43068Y-24813D01*
X43053Y-24798D01*
X43038Y-24768D01*
X43038Y-24663D01*
X42963Y-24963D02*
X42963Y-25113D01*
X42873Y-24933D02*
X43188Y-25038D01*
X42873Y-25143D01*
X43188Y-25203D02*
X43188Y-25383D01*
X42873Y-25293D02*
X43188Y-25293D01*
X27743Y-28630D02*
X27743Y-28870D01*
X27623Y-28750D02*
X27863Y-28750D01*
X27688Y-27910D02*
X27688Y-28090D01*
X27373Y-28000D02*
X27688Y-28000D01*
X27373Y-27098D02*
X27523Y-26993D01*
X27373Y-26918D02*
X27688Y-26918D01*
X27688Y-27038D01*
X27673Y-27068D01*
X27658Y-27083D01*
X27628Y-27098D01*
X27583Y-27098D01*
X27553Y-27083D01*
X27538Y-27068D01*
X27523Y-27038D01*
X27523Y-26918D01*
X27743Y-26130D02*
X27743Y-26370D01*
G54D10*
X37500Y-32500D02*
X36500Y-32500D01*
X36500Y-31500D02*
X37500Y-31500D01*
X36500Y-32500D02*
X36500Y-31500D01*
X37500Y-31500D02*
X37500Y-32500D01*
X37500Y-23500D02*
X36500Y-23500D01*
X36500Y-22500D02*
X37500Y-22500D01*
X36500Y-23500D02*
X36500Y-22500D01*
X37500Y-22500D02*
X37500Y-23500D01*
G54D14*
X26500Y-29500D02*
X26500Y-29500D01*
X27500Y-29500D02*
X26500Y-29500D01*
X26500Y-29500D02*
X26500Y-29500D01*
X26500Y-29500D02*
X26500Y-25500D01*
X26500Y-25500D02*
X27500Y-25500D01*
X27500Y-25500D02*
X27500Y-29500D01*
X27500Y-28500D02*
X26500Y-28500D01*
G54D15*
X32950Y-26500D02*
X32050Y-26500D01*
X32050Y-26500D02*
X32050Y-27150D01*
X32950Y-27850D02*
X32950Y-28500D01*
X32950Y-28500D02*
X32050Y-28500D01*
X32050Y-28500D02*
X32050Y-27850D01*
X32950Y-27150D02*
X32950Y-26500D01*
G54D16*
X37132Y-30446D02*
X37004Y-30446D01*
X37004Y-30446D02*
X37004Y-30643D01*
X37132Y-30643D02*
X37004Y-30643D01*
X37132Y-30446D02*
X37132Y-30643D01*
X37377Y-30446D02*
X37318Y-30446D01*
X37318Y-30446D02*
X37318Y-30545D01*
X37377Y-30545D02*
X37318Y-30545D01*
X37377Y-30446D02*
X37377Y-30545D01*
X37182Y-30446D02*
X37123Y-30446D01*
X37123Y-30446D02*
X37123Y-30545D01*
X37182Y-30545D02*
X37123Y-30545D01*
X37182Y-30446D02*
X37182Y-30545D01*
X37328Y-30446D02*
X37172Y-30446D01*
X37172Y-30446D02*
X37172Y-30515D01*
X37328Y-30515D02*
X37172Y-30515D01*
X37328Y-30446D02*
X37328Y-30515D01*
X37132Y-29857D02*
X37004Y-29857D01*
X37004Y-29857D02*
X37004Y-30054D01*
X37132Y-30054D02*
X37004Y-30054D01*
X37132Y-29857D02*
X37132Y-30054D01*
X37496Y-29857D02*
X37368Y-29857D01*
X37368Y-29857D02*
X37368Y-30054D01*
X37496Y-30054D02*
X37368Y-30054D01*
X37496Y-29857D02*
X37496Y-30054D01*
X37182Y-29955D02*
X37123Y-29955D01*
X37123Y-29955D02*
X37123Y-30054D01*
X37182Y-30054D02*
X37123Y-30054D01*
X37182Y-29955D02*
X37182Y-30054D01*
X37377Y-29955D02*
X37318Y-29955D01*
X37318Y-29955D02*
X37318Y-30054D01*
X37377Y-30054D02*
X37318Y-30054D01*
X37377Y-29955D02*
X37377Y-30054D01*
X37328Y-29985D02*
X37172Y-29985D01*
X37172Y-29985D02*
X37172Y-30054D01*
X37328Y-30054D02*
X37172Y-30054D01*
X37328Y-29985D02*
X37328Y-30054D01*
X37289Y-30250D02*
X37211Y-30250D01*
X37211Y-30250D02*
X37211Y-30328D01*
X37289Y-30328D02*
X37211Y-30328D01*
X37289Y-30250D02*
X37289Y-30328D01*
X37486Y-30446D02*
X37368Y-30446D01*
X37368Y-30446D02*
X37368Y-30564D01*
X37486Y-30564D02*
X37368Y-30564D01*
X37486Y-30446D02*
X37486Y-30564D01*
X37496Y-30614D02*
X37407Y-30614D01*
X37407Y-30614D02*
X37407Y-30643D01*
X37496Y-30643D02*
X37407Y-30643D01*
X37496Y-30614D02*
X37496Y-30643D01*
G54D17*
X37024Y-30456D02*
X37024Y-30044D01*
X37476Y-30054D02*
X37476Y-30614D01*
G54D18*
X37455Y-30584D02*
X37454Y-30589D01*
X37452Y-30594D01*
X37450Y-30599D01*
X37446Y-30603D01*
X37442Y-30607D01*
X37437Y-30609D01*
X37432Y-30611D01*
X37427Y-30611D01*
X37422Y-30611D01*
X37417Y-30609D01*
X37412Y-30607D01*
X37408Y-30604D01*
X37404Y-30599D01*
X37402Y-30595D01*
X37400Y-30589D01*
X37400Y-30584D01*
X37400Y-30579D01*
X37401Y-30574D01*
X37404Y-30569D01*
X37407Y-30565D01*
X37412Y-30562D01*
X37416Y-30559D01*
X37421Y-30557D01*
X37427Y-30557D01*
X37431Y-30557D01*
X37437Y-30558D01*
X37442Y-30561D01*
X37446Y-30564D01*
X37449Y-30568D01*
X37452Y-30573D01*
X37454Y-30578D01*
X37454Y-30584D01*
X37455Y-30584D01*
G54D17*
X37387Y-30643D02*
X37386Y-30632D01*
X37384Y-30620D01*
X37382Y-30608D01*
X37378Y-30597D01*
X37374Y-30586D01*
X37368Y-30575D01*
X37362Y-30565D01*
X37354Y-30555D01*
X37346Y-30547D01*
X37338Y-30539D01*
X37328Y-30531D01*
X37318Y-30525D01*
X37307Y-30519D01*
X37296Y-30515D01*
X37285Y-30511D01*
X37273Y-30509D01*
X37261Y-30507D01*
X37250Y-30506D01*
X37239Y-30507D01*
X37227Y-30509D01*
X37215Y-30511D01*
X37204Y-30515D01*
X37193Y-30519D01*
X37182Y-30525D01*
X37172Y-30531D01*
X37162Y-30539D01*
X37154Y-30547D01*
X37146Y-30555D01*
X37138Y-30565D01*
X37132Y-30575D01*
X37126Y-30586D01*
X37122Y-30597D01*
X37118Y-30608D01*
X37116Y-30620D01*
X37114Y-30632D01*
X37113Y-30643D01*
X37113Y-29857D02*
X37114Y-29868D01*
X37116Y-29880D01*
X37118Y-29892D01*
X37122Y-29903D01*
X37126Y-29914D01*
X37132Y-29925D01*
X37138Y-29935D01*
X37146Y-29945D01*
X37154Y-29953D01*
X37162Y-29961D01*
X37172Y-29969D01*
X37182Y-29975D01*
X37193Y-29981D01*
X37204Y-29985D01*
X37215Y-29989D01*
X37227Y-29991D01*
X37239Y-29993D01*
X37250Y-29994D01*
X37261Y-29993D01*
X37273Y-29991D01*
X37285Y-29989D01*
X37296Y-29985D01*
X37307Y-29981D01*
X37318Y-29975D01*
X37328Y-29969D01*
X37338Y-29961D01*
X37346Y-29953D01*
X37354Y-29945D01*
X37362Y-29935D01*
X37368Y-29925D01*
X37374Y-29914D01*
X37378Y-29903D01*
X37382Y-29892D01*
X37384Y-29880D01*
X37386Y-29868D01*
X37387Y-29857D01*
G54D16*
X37368Y-24554D02*
X37496Y-24554D01*
X37496Y-24554D02*
X37496Y-24357D01*
X37368Y-24357D02*
X37496Y-24357D01*
X37368Y-24554D02*
X37368Y-24357D01*
X37123Y-24554D02*
X37182Y-24554D01*
X37182Y-24554D02*
X37182Y-24455D01*
X37123Y-24455D02*
X37182Y-24455D01*
X37123Y-24554D02*
X37123Y-24455D01*
X37318Y-24554D02*
X37377Y-24554D01*
X37377Y-24554D02*
X37377Y-24455D01*
X37318Y-24455D02*
X37377Y-24455D01*
X37318Y-24554D02*
X37318Y-24455D01*
X37172Y-24554D02*
X37328Y-24554D01*
X37328Y-24554D02*
X37328Y-24485D01*
X37172Y-24485D02*
X37328Y-24485D01*
X37172Y-24554D02*
X37172Y-24485D01*
X37368Y-25143D02*
X37496Y-25143D01*
X37496Y-25143D02*
X37496Y-24946D01*
X37368Y-24946D02*
X37496Y-24946D01*
X37368Y-25143D02*
X37368Y-24946D01*
X37004Y-25143D02*
X37132Y-25143D01*
X37132Y-25143D02*
X37132Y-24946D01*
X37004Y-24946D02*
X37132Y-24946D01*
X37004Y-25143D02*
X37004Y-24946D01*
X37318Y-25045D02*
X37377Y-25045D01*
X37377Y-25045D02*
X37377Y-24946D01*
X37318Y-24946D02*
X37377Y-24946D01*
X37318Y-25045D02*
X37318Y-24946D01*
X37123Y-25045D02*
X37182Y-25045D01*
X37182Y-25045D02*
X37182Y-24946D01*
X37123Y-24946D02*
X37182Y-24946D01*
X37123Y-25045D02*
X37123Y-24946D01*
X37172Y-25015D02*
X37328Y-25015D01*
X37328Y-25015D02*
X37328Y-24946D01*
X37172Y-24946D02*
X37328Y-24946D01*
X37172Y-25015D02*
X37172Y-24946D01*
X37211Y-24750D02*
X37289Y-24750D01*
X37289Y-24750D02*
X37289Y-24672D01*
X37211Y-24672D02*
X37289Y-24672D01*
X37211Y-24750D02*
X37211Y-24672D01*
X37014Y-24554D02*
X37132Y-24554D01*
X37132Y-24554D02*
X37132Y-24436D01*
X37014Y-24436D02*
X37132Y-24436D01*
X37014Y-24554D02*
X37014Y-24436D01*
X37004Y-24386D02*
X37093Y-24386D01*
X37093Y-24386D02*
X37093Y-24357D01*
X37004Y-24357D02*
X37093Y-24357D01*
X37004Y-24386D02*
X37004Y-24357D01*
G54D17*
X37476Y-24544D02*
X37476Y-24956D01*
X37024Y-24946D02*
X37024Y-24386D01*
G54D18*
X37101Y-24416D02*
X37100Y-24421D01*
X37098Y-24426D01*
X37096Y-24431D01*
X37092Y-24435D01*
X37088Y-24439D01*
X37083Y-24441D01*
X37078Y-24443D01*
X37073Y-24443D01*
X37068Y-24443D01*
X37063Y-24441D01*
X37058Y-24439D01*
X37054Y-24436D01*
X37050Y-24431D01*
X37048Y-24427D01*
X37046Y-24421D01*
X37046Y-24416D01*
X37046Y-24411D01*
X37047Y-24406D01*
X37050Y-24401D01*
X37053Y-24397D01*
X37058Y-24394D01*
X37062Y-24391D01*
X37067Y-24389D01*
X37073Y-24389D01*
X37077Y-24389D01*
X37083Y-24390D01*
X37088Y-24393D01*
X37092Y-24396D01*
X37095Y-24400D01*
X37098Y-24405D01*
X37100Y-24410D01*
X37100Y-24416D01*
X37101Y-24416D01*
G54D17*
X37113Y-24357D02*
X37114Y-24368D01*
X37116Y-24380D01*
X37118Y-24392D01*
X37122Y-24403D01*
X37126Y-24414D01*
X37132Y-24425D01*
X37138Y-24435D01*
X37146Y-24445D01*
X37154Y-24453D01*
X37162Y-24461D01*
X37172Y-24469D01*
X37182Y-24475D01*
X37193Y-24481D01*
X37204Y-24485D01*
X37215Y-24489D01*
X37227Y-24491D01*
X37239Y-24493D01*
X37250Y-24494D01*
X37261Y-24493D01*
X37273Y-24491D01*
X37285Y-24489D01*
X37296Y-24485D01*
X37307Y-24481D01*
X37318Y-24475D01*
X37328Y-24469D01*
X37338Y-24461D01*
X37346Y-24453D01*
X37354Y-24445D01*
X37362Y-24435D01*
X37368Y-24425D01*
X37374Y-24414D01*
X37378Y-24403D01*
X37382Y-24392D01*
X37384Y-24380D01*
X37386Y-24368D01*
X37387Y-24357D01*
X37387Y-25143D02*
X37386Y-25132D01*
X37384Y-25120D01*
X37382Y-25108D01*
X37378Y-25097D01*
X37374Y-25086D01*
X37368Y-25075D01*
X37362Y-25065D01*
X37354Y-25055D01*
X37346Y-25047D01*
X37338Y-25039D01*
X37328Y-25031D01*
X37318Y-25025D01*
X37307Y-25019D01*
X37296Y-25015D01*
X37285Y-25011D01*
X37273Y-25009D01*
X37261Y-25007D01*
X37250Y-25006D01*
X37239Y-25007D01*
X37227Y-25009D01*
X37215Y-25011D01*
X37204Y-25015D01*
X37193Y-25019D01*
X37182Y-25025D01*
X37172Y-25031D01*
X37162Y-25039D01*
X37154Y-25047D01*
X37146Y-25055D01*
X37138Y-25065D01*
X37132Y-25075D01*
X37126Y-25086D01*
X37122Y-25097D01*
X37118Y-25108D01*
X37116Y-25120D01*
X37114Y-25132D01*
X37113Y-25143D01*
G54D15*
X35650Y-30750D02*
X35650Y-32250D01*
X35650Y-32250D02*
X36350Y-32250D01*
X36350Y-32250D02*
X36350Y-30750D01*
X35650Y-30750D02*
X36350Y-30750D01*
X33650Y-23250D02*
X33650Y-24750D01*
X33650Y-24750D02*
X34350Y-24750D01*
X34350Y-24750D02*
X34350Y-23250D01*
X33650Y-23250D02*
X34350Y-23250D01*
X35500Y-22850D02*
X35499Y-22859D01*
X35496Y-22869D01*
X35491Y-22877D01*
X35485Y-22885D01*
X35477Y-22891D01*
X35469Y-22896D01*
X35460Y-22898D01*
X35450Y-22899D01*
X35441Y-22899D01*
X35432Y-22896D01*
X35423Y-22891D01*
X35416Y-22885D01*
X35409Y-22878D01*
X35405Y-22869D01*
X35402Y-22860D01*
X35401Y-22850D01*
X35401Y-22841D01*
X35404Y-22832D01*
X35408Y-22823D01*
X35415Y-22816D01*
X35422Y-22809D01*
X35430Y-22805D01*
X35440Y-22802D01*
X35449Y-22801D01*
X35458Y-22801D01*
X35468Y-22804D01*
X35476Y-22808D01*
X35484Y-22814D01*
X35490Y-22822D01*
X35495Y-22830D01*
X35498Y-22839D01*
X35499Y-22849D01*
X35500Y-22850D01*
X35450Y-23300D02*
X35450Y-22900D01*
X35450Y-22900D02*
X36050Y-22900D01*
X36050Y-22900D02*
X36050Y-23300D01*
X36050Y-23700D02*
X36050Y-24100D01*
X36050Y-24100D02*
X35450Y-24100D01*
X35450Y-24100D02*
X35450Y-23700D01*
X37000Y-28100D02*
X36999Y-28109D01*
X36996Y-28119D01*
X36991Y-28127D01*
X36985Y-28135D01*
X36977Y-28141D01*
X36969Y-28146D01*
X36960Y-28148D01*
X36950Y-28149D01*
X36941Y-28149D01*
X36932Y-28146D01*
X36923Y-28141D01*
X36916Y-28135D01*
X36909Y-28128D01*
X36905Y-28119D01*
X36902Y-28110D01*
X36901Y-28100D01*
X36901Y-28091D01*
X36904Y-28082D01*
X36908Y-28073D01*
X36915Y-28066D01*
X36922Y-28059D01*
X36930Y-28055D01*
X36940Y-28052D01*
X36949Y-28051D01*
X36958Y-28051D01*
X36968Y-28054D01*
X36976Y-28058D01*
X36984Y-28064D01*
X36990Y-28072D01*
X36995Y-28080D01*
X36998Y-28089D01*
X36999Y-28099D01*
X37000Y-28100D01*
X36950Y-28550D02*
X36950Y-28150D01*
X36950Y-28150D02*
X37550Y-28150D01*
X37550Y-28150D02*
X37550Y-28550D01*
X37550Y-28950D02*
X37550Y-29350D01*
X37550Y-29350D02*
X36950Y-29350D01*
X36950Y-29350D02*
X36950Y-28950D01*
X37000Y-25600D02*
X36999Y-25609D01*
X36996Y-25619D01*
X36991Y-25627D01*
X36985Y-25635D01*
X36977Y-25641D01*
X36969Y-25646D01*
X36960Y-25648D01*
X36950Y-25649D01*
X36941Y-25649D01*
X36932Y-25646D01*
X36923Y-25641D01*
X36916Y-25635D01*
X36909Y-25628D01*
X36905Y-25619D01*
X36902Y-25610D01*
X36901Y-25600D01*
X36901Y-25591D01*
X36904Y-25582D01*
X36908Y-25573D01*
X36915Y-25566D01*
X36922Y-25559D01*
X36930Y-25555D01*
X36940Y-25552D01*
X36949Y-25551D01*
X36958Y-25551D01*
X36968Y-25554D01*
X36976Y-25558D01*
X36984Y-25564D01*
X36990Y-25572D01*
X36995Y-25580D01*
X36998Y-25589D01*
X36999Y-25599D01*
X37000Y-25600D01*
X36950Y-26050D02*
X36950Y-25650D01*
X36950Y-25650D02*
X37550Y-25650D01*
X37550Y-25650D02*
X37550Y-26050D01*
X37550Y-26450D02*
X37550Y-26850D01*
X37550Y-26850D02*
X36950Y-26850D01*
X36950Y-26850D02*
X36950Y-26450D01*
G54D19*
X31000Y-26550D02*
X28000Y-26550D01*
X28000Y-27950D02*
X31000Y-27950D01*
X31000Y-26550D02*
X31000Y-27950D01*
G54D10*
X28000Y-27950D02*
X28000Y-26550D01*
G54D15*
X28341Y-27750D02*
X28338Y-27777D01*
X28330Y-27803D01*
X28317Y-27828D01*
X28300Y-27849D01*
X28278Y-27866D01*
X28254Y-27879D01*
X28228Y-27888D01*
X28200Y-27890D01*
X28174Y-27888D01*
X28148Y-27880D01*
X28123Y-27867D01*
X28102Y-27850D01*
X28084Y-27829D01*
X28071Y-27805D01*
X28063Y-27779D01*
X28060Y-27751D01*
X28062Y-27725D01*
X28069Y-27699D01*
X28082Y-27674D01*
X28099Y-27653D01*
X28120Y-27635D01*
X28144Y-27621D01*
X28170Y-27613D01*
X28198Y-27610D01*
X28224Y-27612D01*
X28250Y-27619D01*
X28275Y-27631D01*
X28297Y-27648D01*
X28315Y-27669D01*
X28328Y-27693D01*
X28337Y-27719D01*
X28340Y-27747D01*
X28341Y-27750D01*
X28000Y-27000D02*
X28300Y-27000D01*
X28300Y-27000D02*
X28300Y-27500D01*
X28300Y-27500D02*
X28000Y-27500D01*
G54D20*
X35600Y-28650D02*
X36800Y-28650D01*
X36800Y-28650D02*
X36800Y-25850D01*
X36800Y-25850D02*
X35600Y-25850D01*
X34400Y-28650D02*
X34100Y-28650D01*
X34100Y-28650D02*
X33200Y-28050D01*
X33200Y-28050D02*
X33200Y-26450D01*
X33200Y-26450D02*
X34100Y-25850D01*
X34100Y-25850D02*
X34400Y-25850D01*
G54D14*
X35500Y-29500D02*
X35500Y-30500D01*
X35500Y-30500D02*
X26500Y-30500D01*
X26500Y-30500D02*
X26500Y-29500D01*
X35500Y-29500D02*
X26500Y-29500D01*
X27500Y-29500D02*
X27500Y-30500D01*
X26500Y-24500D02*
X26500Y-24500D01*
X26500Y-24500D02*
X33500Y-24500D01*
X33500Y-24500D02*
X33500Y-25500D01*
X33500Y-25500D02*
X26500Y-25500D01*
X26500Y-25500D02*
X26500Y-24500D01*
X27500Y-25500D02*
X27500Y-25500D01*
X27500Y-25500D02*
X27500Y-24500D01*
X35500Y-30500D02*
X35500Y-31500D01*
X35500Y-31500D02*
X26500Y-31500D01*
X26500Y-31500D02*
X26500Y-30500D01*
X35500Y-30500D02*
X26500Y-30500D01*
X27500Y-30500D02*
X27500Y-31500D01*
X26500Y-23500D02*
X26500Y-23500D01*
X26500Y-23500D02*
X33500Y-23500D01*
X33500Y-23500D02*
X33500Y-24500D01*
X33500Y-24500D02*
X26500Y-24500D01*
X26500Y-24500D02*
X26500Y-23500D01*
X27500Y-24500D02*
X27500Y-24500D01*
X27500Y-24500D02*
X27500Y-23500D01*
X35500Y-31500D02*
X35500Y-32500D01*
X35500Y-32500D02*
X26500Y-32500D01*
X26500Y-32500D02*
X26500Y-31500D01*
X35500Y-31500D02*
X26500Y-31500D01*
X27500Y-31500D02*
X27500Y-32500D01*
X26500Y-22500D02*
X26500Y-22500D01*
X26500Y-22500D02*
X33500Y-22500D01*
X33500Y-22500D02*
X33500Y-23500D01*
X33500Y-23500D02*
X26500Y-23500D01*
X26500Y-23500D02*
X26500Y-22500D01*
X27500Y-23500D02*
X27500Y-23500D01*
X27500Y-23500D02*
X27500Y-22500D01*
G54D15*
X31250Y-27100D02*
X31249Y-27109D01*
X31246Y-27119D01*
X31241Y-27127D01*
X31235Y-27135D01*
X31227Y-27141D01*
X31219Y-27146D01*
X31210Y-27148D01*
X31200Y-27149D01*
X31191Y-27149D01*
X31182Y-27146D01*
X31173Y-27141D01*
X31166Y-27135D01*
X31159Y-27128D01*
X31155Y-27119D01*
X31152Y-27110D01*
X31151Y-27100D01*
X31151Y-27091D01*
X31154Y-27082D01*
X31158Y-27073D01*
X31165Y-27066D01*
X31172Y-27059D01*
X31180Y-27055D01*
X31190Y-27052D01*
X31199Y-27051D01*
X31208Y-27051D01*
X31218Y-27054D01*
X31226Y-27058D01*
X31234Y-27064D01*
X31240Y-27072D01*
X31245Y-27080D01*
X31248Y-27089D01*
X31249Y-27099D01*
X31250Y-27100D01*
X31200Y-27550D02*
X31200Y-27150D01*
X31200Y-27150D02*
X31800Y-27150D01*
X31800Y-27150D02*
X31800Y-27550D01*
X31800Y-27950D02*
X31800Y-28350D01*
X31800Y-28350D02*
X31200Y-28350D01*
X31200Y-28350D02*
X31200Y-27950D01*
X35350Y-24150D02*
X35349Y-24159D01*
X35346Y-24169D01*
X35341Y-24177D01*
X35335Y-24185D01*
X35327Y-24191D01*
X35319Y-24196D01*
X35310Y-24198D01*
X35300Y-24199D01*
X35291Y-24199D01*
X35282Y-24196D01*
X35273Y-24191D01*
X35266Y-24185D01*
X35259Y-24178D01*
X35255Y-24169D01*
X35252Y-24160D01*
X35251Y-24150D01*
X35251Y-24141D01*
X35254Y-24132D01*
X35258Y-24123D01*
X35265Y-24116D01*
X35272Y-24109D01*
X35280Y-24105D01*
X35290Y-24102D01*
X35299Y-24101D01*
X35308Y-24101D01*
X35318Y-24104D01*
X35326Y-24108D01*
X35334Y-24114D01*
X35340Y-24122D01*
X35345Y-24130D01*
X35348Y-24139D01*
X35349Y-24149D01*
X35350Y-24150D01*
X35300Y-23700D02*
X35300Y-24100D01*
X35300Y-24100D02*
X34700Y-24100D01*
X34700Y-24100D02*
X34700Y-23700D01*
X34700Y-23300D02*
X34700Y-22900D01*
X34700Y-22900D02*
X35300Y-22900D01*
X35300Y-22900D02*
X35300Y-23300D01*
X34900Y-25300D02*
X34899Y-25309D01*
X34896Y-25319D01*
X34891Y-25327D01*
X34885Y-25335D01*
X34877Y-25341D01*
X34869Y-25346D01*
X34860Y-25348D01*
X34850Y-25349D01*
X34841Y-25349D01*
X34832Y-25346D01*
X34823Y-25341D01*
X34816Y-25335D01*
X34809Y-25328D01*
X34805Y-25319D01*
X34802Y-25310D01*
X34801Y-25300D01*
X34801Y-25291D01*
X34804Y-25282D01*
X34808Y-25273D01*
X34815Y-25266D01*
X34822Y-25259D01*
X34830Y-25255D01*
X34840Y-25252D01*
X34849Y-25251D01*
X34858Y-25251D01*
X34868Y-25254D01*
X34876Y-25258D01*
X34884Y-25264D01*
X34890Y-25272D01*
X34895Y-25280D01*
X34898Y-25289D01*
X34899Y-25299D01*
X34900Y-25300D01*
X35300Y-25300D02*
X34900Y-25300D01*
X34900Y-25300D02*
X34900Y-24700D01*
X34900Y-24700D02*
X35300Y-24700D01*
X35700Y-24700D02*
X36100Y-24700D01*
X36100Y-24700D02*
X36100Y-25300D01*
X36100Y-25300D02*
X35700Y-25300D01*
X32593Y-27550D02*
X32607Y-27564D01*
X32621Y-27607D01*
X32621Y-27636D01*
X32607Y-27679D01*
X32579Y-27707D01*
X32550Y-27722D01*
X32493Y-27736D01*
X32450Y-27736D01*
X32393Y-27722D01*
X32364Y-27707D01*
X32336Y-27679D01*
X32321Y-27636D01*
X32321Y-27607D01*
X32336Y-27564D01*
X32350Y-27550D01*
X32350Y-27436D02*
X32336Y-27422D01*
X32321Y-27393D01*
X32321Y-27322D01*
X32336Y-27293D01*
X32350Y-27279D01*
X32379Y-27264D01*
X32407Y-27264D01*
X32450Y-27279D01*
X32621Y-27450D01*
X32621Y-27264D01*
X34762Y-24222D02*
X34362Y-24222D01*
X34762Y-24050D02*
X34533Y-24179D01*
X34362Y-24050D02*
X34590Y-24222D01*
X34400Y-23936D02*
X34381Y-23922D01*
X34362Y-23893D01*
X34362Y-23822D01*
X34381Y-23793D01*
X34400Y-23779D01*
X34438Y-23764D01*
X34476Y-23764D01*
X34533Y-23779D01*
X34762Y-23950D01*
X34762Y-23764D01*
X35851Y-23542D02*
X35732Y-23625D01*
X35851Y-23684D02*
X35601Y-23684D01*
X35601Y-23589D01*
X35613Y-23565D01*
X35625Y-23554D01*
X35649Y-23542D01*
X35685Y-23542D01*
X35708Y-23554D01*
X35720Y-23565D01*
X35732Y-23589D01*
X35732Y-23684D01*
X35851Y-23304D02*
X35851Y-23446D01*
X35851Y-23375D02*
X35601Y-23375D01*
X35637Y-23399D01*
X35661Y-23423D01*
X35673Y-23446D01*
X37351Y-28792D02*
X37232Y-28875D01*
X37351Y-28934D02*
X37101Y-28934D01*
X37101Y-28839D01*
X37113Y-28815D01*
X37125Y-28804D01*
X37149Y-28792D01*
X37185Y-28792D01*
X37208Y-28804D01*
X37220Y-28815D01*
X37232Y-28839D01*
X37232Y-28934D01*
X37125Y-28696D02*
X37113Y-28684D01*
X37101Y-28661D01*
X37101Y-28601D01*
X37113Y-28577D01*
X37125Y-28565D01*
X37149Y-28554D01*
X37173Y-28554D01*
X37208Y-28565D01*
X37351Y-28708D01*
X37351Y-28554D01*
X37351Y-26292D02*
X37232Y-26375D01*
X37351Y-26434D02*
X37101Y-26434D01*
X37101Y-26339D01*
X37113Y-26315D01*
X37125Y-26304D01*
X37149Y-26292D01*
X37185Y-26292D01*
X37208Y-26304D01*
X37220Y-26315D01*
X37232Y-26339D01*
X37232Y-26434D01*
X37101Y-26208D02*
X37101Y-26054D01*
X37196Y-26137D01*
X37196Y-26101D01*
X37208Y-26077D01*
X37220Y-26065D01*
X37244Y-26054D01*
X37304Y-26054D01*
X37327Y-26065D01*
X37339Y-26077D01*
X37351Y-26101D01*
X37351Y-26173D01*
X37339Y-26196D01*
X37327Y-26208D01*
X29271Y-26821D02*
X29271Y-27064D01*
X29286Y-27093D01*
X29300Y-27107D01*
X29329Y-27121D01*
X29386Y-27121D01*
X29414Y-27107D01*
X29429Y-27093D01*
X29443Y-27064D01*
X29443Y-26821D01*
X29743Y-27121D02*
X29571Y-27121D01*
X29657Y-27121D02*
X29657Y-26821D01*
X29628Y-26864D01*
X29600Y-26893D01*
X29571Y-26907D01*
X27858Y-27321D02*
X28029Y-27321D01*
X27943Y-27621D02*
X27943Y-27321D01*
X28129Y-27621D02*
X28129Y-27321D01*
X28272Y-27507D02*
X28501Y-27507D01*
X28786Y-27621D02*
X28643Y-27621D01*
X28643Y-27321D01*
X28872Y-27536D02*
X29015Y-27536D01*
X28844Y-27621D02*
X28944Y-27321D01*
X29044Y-27621D01*
X29143Y-27321D02*
X29143Y-27564D01*
X29158Y-27593D01*
X29172Y-27607D01*
X29201Y-27621D01*
X29258Y-27621D01*
X29286Y-27607D01*
X29301Y-27593D01*
X29315Y-27564D01*
X29315Y-27321D01*
X29457Y-27621D02*
X29457Y-27321D01*
X29629Y-27621D01*
X29629Y-27321D01*
X29943Y-27593D02*
X29929Y-27607D01*
X29886Y-27621D01*
X29857Y-27621D01*
X29814Y-27607D01*
X29786Y-27579D01*
X29771Y-27550D01*
X29757Y-27493D01*
X29757Y-27450D01*
X29771Y-27393D01*
X29786Y-27364D01*
X29814Y-27336D01*
X29857Y-27321D01*
X29886Y-27321D01*
X29929Y-27336D01*
X29943Y-27350D01*
X30071Y-27621D02*
X30071Y-27321D01*
X30071Y-27464D02*
X30243Y-27464D01*
X30243Y-27621D02*
X30243Y-27321D01*
X30385Y-27621D02*
X30385Y-27321D01*
X30500Y-27321D01*
X30528Y-27336D01*
X30543Y-27350D01*
X30557Y-27379D01*
X30557Y-27421D01*
X30543Y-27450D01*
X30528Y-27464D01*
X30500Y-27479D01*
X30385Y-27479D01*
X30671Y-27536D02*
X30814Y-27536D01*
X30643Y-27621D02*
X30743Y-27321D01*
X30843Y-27621D01*
X30942Y-27621D02*
X30942Y-27321D01*
X31014Y-27321D01*
X31057Y-27336D01*
X31085Y-27364D01*
X31100Y-27393D01*
X31114Y-27450D01*
X31114Y-27493D01*
X31100Y-27550D01*
X31085Y-27579D01*
X31057Y-27607D01*
X31014Y-27621D01*
X30942Y-27621D01*
G54D20*
X34462Y-27555D02*
X34786Y-27555D01*
X34824Y-27536D01*
X34843Y-27517D01*
X34862Y-27479D01*
X34862Y-27402D01*
X34843Y-27364D01*
X34824Y-27345D01*
X34786Y-27326D01*
X34462Y-27326D01*
X34500Y-27155D02*
X34481Y-27136D01*
X34462Y-27098D01*
X34462Y-27002D01*
X34481Y-26964D01*
X34500Y-26945D01*
X34538Y-26926D01*
X34576Y-26926D01*
X34633Y-26945D01*
X34862Y-27174D01*
X34862Y-26926D01*
X35462Y-28840D02*
X35462Y-29031D01*
X35062Y-29031D01*
X35462Y-28707D02*
X35062Y-28707D01*
X35062Y-28612D01*
X35081Y-28554D01*
X35119Y-28516D01*
X35157Y-28497D01*
X35233Y-28478D01*
X35290Y-28478D01*
X35367Y-28497D01*
X35405Y-28516D01*
X35443Y-28554D01*
X35462Y-28612D01*
X35462Y-28707D01*
X35462Y-28097D02*
X35462Y-28326D01*
X35462Y-28212D02*
X35062Y-28212D01*
X35119Y-28250D01*
X35157Y-28288D01*
X35176Y-28326D01*
X35462Y-27716D02*
X35462Y-27945D01*
X35462Y-27831D02*
X35062Y-27831D01*
X35119Y-27869D01*
X35157Y-27907D01*
X35176Y-27945D01*
X35462Y-27335D02*
X35462Y-27564D01*
X35462Y-27450D02*
X35062Y-27450D01*
X35119Y-27488D01*
X35157Y-27526D01*
X35176Y-27564D01*
X35062Y-27202D02*
X35062Y-26935D01*
X35462Y-27107D01*
X35062Y-26840D02*
X35462Y-26707D01*
X35062Y-26573D01*
X35062Y-26478D02*
X35062Y-26230D01*
X35214Y-26364D01*
X35214Y-26306D01*
X35233Y-26268D01*
X35252Y-26249D01*
X35290Y-26230D01*
X35386Y-26230D01*
X35424Y-26249D01*
X35443Y-26268D01*
X35462Y-26306D01*
X35462Y-26421D01*
X35443Y-26459D01*
X35424Y-26478D01*
X35062Y-26097D02*
X35062Y-25849D01*
X35214Y-25983D01*
X35214Y-25925D01*
X35233Y-25887D01*
X35252Y-25868D01*
X35290Y-25849D01*
X35386Y-25849D01*
X35424Y-25868D01*
X35443Y-25887D01*
X35462Y-25925D01*
X35462Y-26040D01*
X35443Y-26078D01*
X35424Y-26097D01*
X35424Y-25449D02*
X35443Y-25468D01*
X35462Y-25525D01*
X35462Y-25563D01*
X35443Y-25621D01*
X35405Y-25659D01*
X35367Y-25678D01*
X35290Y-25697D01*
X35233Y-25697D01*
X35157Y-25678D01*
X35119Y-25659D01*
X35081Y-25621D01*
X35062Y-25563D01*
X35062Y-25525D01*
X35081Y-25468D01*
X35100Y-25449D01*
G54D15*
X31577Y-27792D02*
X31589Y-27804D01*
X31601Y-27839D01*
X31601Y-27863D01*
X31589Y-27899D01*
X31565Y-27923D01*
X31542Y-27934D01*
X31494Y-27946D01*
X31458Y-27946D01*
X31411Y-27934D01*
X31387Y-27923D01*
X31363Y-27899D01*
X31351Y-27863D01*
X31351Y-27839D01*
X31363Y-27804D01*
X31375Y-27792D01*
X31351Y-27708D02*
X31351Y-27554D01*
X31446Y-27637D01*
X31446Y-27601D01*
X31458Y-27577D01*
X31470Y-27565D01*
X31494Y-27554D01*
X31554Y-27554D01*
X31577Y-27565D01*
X31589Y-27577D01*
X31601Y-27601D01*
X31601Y-27673D01*
X31589Y-27696D01*
X31577Y-27708D01*
X35077Y-23542D02*
X35089Y-23554D01*
X35101Y-23589D01*
X35101Y-23613D01*
X35089Y-23649D01*
X35065Y-23673D01*
X35042Y-23684D01*
X34994Y-23696D01*
X34958Y-23696D01*
X34911Y-23684D01*
X34887Y-23673D01*
X34863Y-23649D01*
X34851Y-23613D01*
X34851Y-23589D01*
X34863Y-23554D01*
X34875Y-23542D01*
X34935Y-23327D02*
X35101Y-23327D01*
X34839Y-23387D02*
X35018Y-23446D01*
X35018Y-23292D01*
X35458Y-25077D02*
X35446Y-25089D01*
X35411Y-25101D01*
X35387Y-25101D01*
X35351Y-25089D01*
X35327Y-25065D01*
X35316Y-25042D01*
X35304Y-24994D01*
X35304Y-24958D01*
X35316Y-24911D01*
X35327Y-24887D01*
X35351Y-24863D01*
X35387Y-24851D01*
X35411Y-24851D01*
X35446Y-24863D01*
X35458Y-24875D01*
X35696Y-25101D02*
X35554Y-25101D01*
X35625Y-25101D02*
X35625Y-24851D01*
X35601Y-24887D01*
X35577Y-24911D01*
X35554Y-24923D01*
%LPC*%
G54D21*
X37000Y-32000D03*
X37000Y-23000D03*
G54D22*
X27000Y-29000D03*
G54D23*
X27000Y-28000D03*
X27000Y-27000D03*
X27000Y-26000D03*
G54D24*
X32500Y-26850D03*
X32500Y-28150D03*
G54D25*
X37250Y-29837D03*
X37250Y-30663D03*
X37250Y-25163D03*
X37250Y-24337D03*
G54D26*
X36000Y-31000D03*
X36000Y-31500D03*
X36000Y-32000D03*
X34000Y-23500D03*
X34000Y-24000D03*
X34000Y-24500D03*
G54D27*
X35750Y-23125D03*
X35750Y-23875D03*
X37250Y-28375D03*
X37250Y-29125D03*
X37250Y-25875D03*
X37250Y-26625D03*
G54D28*
X28350Y-28300D03*
X28600Y-28300D03*
X28860Y-28300D03*
X29120Y-28300D03*
X29370Y-28300D03*
X29630Y-28300D03*
X29890Y-28300D03*
X30140Y-28300D03*
X30400Y-28300D03*
X30650Y-28300D03*
X30650Y-26200D03*
X30400Y-26200D03*
X30140Y-26200D03*
X29890Y-26200D03*
X29630Y-26200D03*
X29370Y-26200D03*
X29120Y-26200D03*
X28860Y-26200D03*
X28600Y-26200D03*
X28350Y-26200D03*
G54D29*
X33700Y-27250D03*
G54D30*
X36300Y-27250D03*
X36300Y-26350D03*
X36300Y-28150D03*
G54D22*
X27000Y-30000D03*
G54D23*
X28000Y-30000D03*
X29000Y-30000D03*
X30000Y-30000D03*
X31000Y-30000D03*
X32000Y-30000D03*
X33000Y-30000D03*
X34000Y-30000D03*
X35000Y-30000D03*
G54D22*
X27000Y-25000D03*
G54D23*
X28000Y-25000D03*
X29000Y-25000D03*
X30000Y-25000D03*
X31000Y-25000D03*
X32000Y-25000D03*
X33000Y-25000D03*
G54D22*
X27000Y-31000D03*
G54D23*
X28000Y-31000D03*
X29000Y-31000D03*
X30000Y-31000D03*
X31000Y-31000D03*
X32000Y-31000D03*
X33000Y-31000D03*
X34000Y-31000D03*
X35000Y-31000D03*
G54D22*
X27000Y-24000D03*
G54D23*
X28000Y-24000D03*
X29000Y-24000D03*
X30000Y-24000D03*
X31000Y-24000D03*
X32000Y-24000D03*
X33000Y-24000D03*
G54D22*
X27000Y-32000D03*
G54D23*
X28000Y-32000D03*
X29000Y-32000D03*
X30000Y-32000D03*
X31000Y-32000D03*
X32000Y-32000D03*
X33000Y-32000D03*
X34000Y-32000D03*
X35000Y-32000D03*
G54D22*
X27000Y-23000D03*
G54D23*
X28000Y-23000D03*
X29000Y-23000D03*
X30000Y-23000D03*
X31000Y-23000D03*
X32000Y-23000D03*
X33000Y-23000D03*
G54D27*
X31500Y-27375D03*
X31500Y-28125D03*
X35000Y-23875D03*
X35000Y-23125D03*
G54D31*
X35125Y-25000D03*
X35875Y-25000D03*
M02*
